<?xml version="1.0" encoding="utf-8"?>
<!-- Generator: Adobe Illustrator 19.2.1, SVG Export Plug-In . SVG Version: 6.00 Build 0)  -->
<svg version="1.1" id="Capa_1" xmlns="http://www.w3.org/2000/svg" xmlns:xlink="http://www.w3.org/1999/xlink" x="0px" y="0px"
	 viewBox="0 0 512 512" style="enable-background:new 0 0 512 512;" xml:space="preserve">

<g>
	<path class="st0" d="M13.9,341.6c-7.7,0-13.9,6.2-13.9,13.9c0,7.7,6.2,13.9,13.9,13.9h51.4V429c0,9.8,8,17.8,17.8,17.8h59.7v51.4
		c0,7.7,6.2,13.9,13.9,13.9c7.7,0,13.9-6.2,13.9-13.9v-51.4H209v51.4c0,7.7,6.2,13.9,13.9,13.9s13.9-6.2,13.9-13.9v-51.4h38.6v51.4
		c0,7.7,6.2,13.9,13.9,13.9s13.9-6.2,13.9-13.9v-51.4h38.6v51.4c0,7.7,6.2,13.9,13.9,13.9s13.9-6.2,13.9-13.9v-51.4H429
		c9.8,0,17.8-8,17.8-17.8v-59.7h51.4c7.7,0,13.9-6.2,13.9-13.9s-6.2-13.9-13.9-13.9h-51.4V303h51.4c7.7,0,13.9-6.2,13.9-13.9
		s-6.2-13.9-13.9-13.9h-51.4v-38.6h51.4c7.7,0,13.9-6.2,13.9-13.9c0-7.7-6.2-13.9-13.9-13.9h-51.4v-38.6h51.4
		c7.7,0,13.9-6.2,13.9-13.9s-6.2-13.9-13.9-13.9h-51.4V83c0-9.8-8-17.8-17.8-17.8h-59.7V13.9c0-7.7-6.2-13.9-13.9-13.9
		c-7.7,0-13.9,6.2-13.9,13.9v51.4H303V13.9C303,6.2,296.8,0,289.2,0c-7.7,0-13.9,6.2-13.9,13.9v51.4h-38.6V13.9
		c0-7.7-6.2-13.9-13.9-13.9C215.2,0,209,6.2,209,13.9v51.4h-38.6V13.9c0-7.7-6.2-13.9-13.9-13.9s-13.9,6.2-13.9,13.9v51.4H83
		c-9.8,0-17.8,8-17.8,17.8v59.7H13.9c-7.7,0-13.9,6.2-13.9,13.9s6.2,13.9,13.9,13.9h51.4V209H13.9C6.2,209,0,215.2,0,222.8
		c0,7.6,6.2,13.9,13.9,13.9h51.4v38.6H13.9c-7.7,0-13.9,6.2-13.9,13.9c0,7.7,6.2,13.9,13.9,13.9h51.4v38.6L13.9,341.6L13.9,341.6z
		 M306.5,115.7c0-6.5,5.3-11.8,11.8-11.8h77.9c6.5,0,11.8,5.3,11.8,11.8v77.9c0,6.5-5.3,11.8-11.8,11.8h-3
		c-6.5,0-11.8-5.3-11.8-11.8v-63.1h-63.1c-6.5,0-11.8-5.3-11.8-11.8L306.5,115.7L306.5,115.7z M306.5,393.3
		c0-6.5,5.3-11.8,11.8-11.8h63.1v-63.1c0-6.5,5.3-11.8,11.8-11.8h3c6.5,0,11.8,5.3,11.8,11.8v77.9c0,6.5-5.3,11.8-11.8,11.8h-77.9
		c-6.5,0-11.8-5.3-11.8-11.8V393.3z M103.9,115.7c0-6.5,5.3-11.8,11.8-11.8h77.9c6.5,0,11.8,5.3,11.8,11.8v3
		c0,6.5-5.3,11.8-11.8,11.8h-63.1v63.1c0,6.5-5.3,11.8-11.8,11.8h-3c-6.5,0-11.8-5.3-11.8-11.8L103.9,115.7L103.9,115.7z
		 M103.9,318.4c0-6.5,5.3-11.8,11.8-11.8h3c6.5,0,11.8,5.3,11.8,11.8v63.1h63.1c6.5,0,11.8,5.3,11.8,11.8v3
		c0,6.5-5.3,11.8-11.8,11.8h-77.9c-6.5,0-11.8-5.3-11.8-11.8L103.9,318.4L103.9,318.4z"/>
</g>
</svg>
