<?xml version="1.0" encoding="utf-8"?>
<!-- Generator: Adobe Illustrator 19.2.1, SVG Export Plug-In . SVG Version: 6.00 Build 0)  -->
<svg version="1.1" id="Capa_1" xmlns="http://www.w3.org/2000/svg" xmlns:xlink="http://www.w3.org/1999/xlink" x="0px" y="0px"
	 viewBox="0 0 512 512" style="enable-background:new 0 0 512 512;" xml:space="preserve">

<g>
	<g>
		<path class="st0" d="M442.5,99.3c0-1.8-0.2-3.6-0.8-5.3c-0.1-0.2-0.2-0.4-0.2-0.7c-0.4-1.4-1.1-2.9-1.9-4.3
			c-0.2-0.4-0.4-0.8-0.8-1.2c-0.9-1.2-1.8-2.4-3-3.5c-0.2-0.2-0.3-0.4-0.5-0.7c-0.1-0.1-0.1-0.1-0.2-0.2c-1.3-1.2-2.9-2.1-4.3-2.9
			c-0.1-0.1-0.2-0.2-0.3-0.2L272.7,2.3c-3-1.5-6.2-2.3-9.6-2.3h-14c-3.3,0-6.6,0.8-9.7,2.2L81.5,80.3c-0.1,0-0.1,0.1-0.2,0.1
			c-1.4,0.8-2.7,1.5-4.1,2.6c-0.1,0.1-0.2,0.3-0.4,0.4c-0.3,0.3-0.7,0.7-0.9,1c-1,1-1.9,2.1-2.6,3.2c-0.2,0.4-0.5,0.8-0.8,1.2
			c-0.9,1.5-1.6,3.2-2.2,4.8c0,0,0,0,0,0.1c-0.4,1.8-0.7,3.5-0.8,5.3c0,0.2-0.1,0.4-0.1,0.7v321.1c0,5.1,1.8,10,5,13.9l57.8,69.4
			c4.2,4.9,10.2,7.8,16.7,7.8h211.2c1.5,0,3.1-0.2,4.5-0.4c0.3-0.1,0.7-0.2,1-0.3c1.1-0.3,2.2-0.7,3.3-1.1c0.4-0.2,0.9-0.4,1.2-0.7
			c0.9-0.4,1.8-0.9,2.5-1.5c0.4-0.3,0.9-0.7,1.3-1.1c0.7-0.6,1.3-1.2,2-1.9c0.1-0.2,0.3-0.3,0.5-0.4l60.8-69.4
			c3.4-3.9,5.4-9,5.4-14.3V99.7C442.6,99.7,442.5,99.5,442.5,99.3z M131.6,182.3v217.3l-13.4,4.8c-3,1-4.8,3.5-5.4,6.4V159.7
			L131.6,182.3z M121.2,421.4c1,0,2-0.2,3-0.6l7.6-2.7v17.6l-12.2-14.6C120,421.2,120.5,421.4,121.2,421.4z M175,402.6l22.6-8
			c4.5-1.6,6.9-6.6,5.3-11.1c-1.6-4.5-6.6-6.9-11.1-5.3l-16.8,6V191h72.3v4.4c0,4.8,3.8,8.7,8.7,8.7c4.8,0,8.7-3.8,8.7-8.7V191h73.7
			v193.7l-18.2-6.5c-4.5-1.6-9.4,0.8-11.1,5.3c-1.6,4.5,0.8,9.4,5.3,11.1l24,8.6v65.5H174.9v-66L175,402.6L175,402.6z M381.8,418.6
			l6.1,2.2c1,0.3,2,0.5,3,0.5c0.3,0,0.7-0.1,1-0.1l-10,11.4v-14L381.8,418.6L381.8,418.6z M393.8,404.5l-12-4.3V177.4l17.3-19.9
			v253.3C398.6,408,396.8,405.6,393.8,404.5z M250.1,45.4c1.5,1.4,3.6,2.4,5.9,2.4c2.3,0,4.4-0.9,5.9-2.4L386,106.9l-35.7,40.8h-87
			c0.8-1.3,1.3-2.7,1.3-4.4v-26c0-4.8-3.8-8.7-8.7-8.7c-4.8,0-8.7,3.8-8.7,8.7v26c0,1.6,0.6,3.1,1.3,4.4h-89.5l-33.8-40.5
			L250.1,45.4z"/>
		<path class="st0" d="M295.7,369.5l-24.5-8.8c-4.5-1.6-9.4,0.8-11.1,5.3c-1.6,4.5,0.8,9.4,5.3,11.1l24.5,8.8c1,0.3,2,0.6,3,0.6
			c3.6,0,6.9-2.2,8.1-5.8C302.5,376.1,300.2,371.1,295.7,369.5z"/>
		<path class="st0" d="M240.9,360.7l-24.6,8.8c-4.5,1.6-6.9,6.6-5.3,11.1c1.3,3.5,4.6,5.8,8.2,5.8c1,0,2-0.2,3-0.6l24.6-8.8
			c4.5-1.6,6.9-6.6,5.3-11.1C250.3,361.5,245.4,359.1,240.9,360.7z"/>
		<path class="st0" d="M264.7,351.5v-26c0-4.8-3.8-8.7-8.7-8.7s-8.7,3.8-8.7,8.7v26c0,4.8,3.8,8.7,8.7,8.7
			C260.8,360.2,264.7,356.3,264.7,351.5z"/>
		<path class="st0" d="M256,99.8c4.8,0,8.7-3.8,8.7-8.7v-26c0-4.8-3.8-8.7-8.7-8.7c-4.8,0-8.7,3.8-8.7,8.7v26
			C247.3,96,251.2,99.8,256,99.8z"/>
		<path class="st0" d="M256,308.2c4.8,0,8.7-3.8,8.7-8.7v-26.1c0-4.8-3.8-8.7-8.7-8.7c-4.8,0-8.7,3.8-8.7,8.7v26
			C247.3,304.2,251.2,308.2,256,308.2z"/>
		<path class="st0" d="M256,256.1c4.8,0,8.7-3.8,8.7-8.7v-26c0-4.8-3.8-8.7-8.7-8.7c-4.8,0-8.7,3.8-8.7,8.7v26
			C247.3,252.2,251.2,256.1,256,256.1z"/>
	</g>
</g>
</svg>
