<?xml version="1.0" encoding="utf-8"?>
<!-- Generator: Adobe Illustrator 19.2.1, SVG Export Plug-In . SVG Version: 6.00 Build 0)  -->
<svg version="1.1" id="Capa_1" xmlns="http://www.w3.org/2000/svg" xmlns:xlink="http://www.w3.org/1999/xlink" x="0px" y="0px"
	 viewBox="0 0 512 512" style="enable-background:new 0 0 512 512;" xml:space="preserve">
<style type="text/css">
	.st0{fill:#FFFFFF;}
</style>
<g>
	<g>
		<g>
			<g>
				<path class="st0" d="M506.5,235.9l-240-208c-6-5.2-14.9-5.2-21,0L160,102V72c0-17.7-14.3-32-32-32S96,54.3,96,72v85.5L5.5,235.9
					c-6.7,5.8-7.4,15.9-1.6,22.6c5.8,6.7,15.9,7.4,22.6,1.6L256,61.2l229.5,198.9c3.1,2.6,6.8,3.9,10.5,3.9c4.5,0,8.9-1.9,12.1-5.5
					C513.9,251.8,513.1,241.8,506.5,235.9z"/>
				<path class="st0" d="M276.3,143.3c-5.9-4.8-13.1-7.3-20.3-7.3s-14.4,2.4-20.3,7.3l-160,131.2c-7.4,6.1-11.7,15.1-11.7,24.8V456
					c0,17.7,14.3,32,32,32h96V328h128v160h96c17.6,0,32-14.3,32-32V299.2c0-9.7-4.3-18.7-11.7-24.7L276.3,143.3z"/>
			</g>
		</g>
	</g>
</g>
</svg>
