<?xml version="1.0" encoding="utf-8"?>
<!-- Generator: Adobe Illustrator 19.2.1, SVG Export Plug-In . SVG Version: 6.00 Build 0)  -->
<svg version="1.1" id="Capa_1" xmlns="http://www.w3.org/2000/svg" xmlns:xlink="http://www.w3.org/1999/xlink" x="0px" y="0px"
	 viewBox="0 0 512 512" style="enable-background:new 0 0 512 512;" xml:space="preserve">

<g>
	<g>
		<path class="st0" d="M198.2,138.1h115.7c11.6,0,21.1-9.4,21.1-21.1v-14.3c0-11.6-9.4-21.1-21.1-21.1h-6.5v-8.9
			c0-8.9-7.2-16.2-16.2-16.2h-70.4c-8.9,0-16.2,7.2-16.2,16.2v8.9h-6.5c-11.6,0-21.1,9.4-21.1,21.1V117
			C177.1,128.7,186.6,138.1,198.2,138.1z"/>
		<path class="st0" d="M453.2,111.7h-98.8v5.2c0,22.3-18.2,40.6-40.6,40.6H198.2c-22.3,0-40.6-18.2-40.6-40.6v-5.2H58.8
			C26.3,111.7,0,138.1,0,170.6v226c0,32.5,26.3,58.8,58.8,58.8h394.3c32.5,0,58.8-26.3,58.8-58.8v-226
			C512,138.2,485.7,111.7,453.2,111.7z M147.3,385.5c-56.2,0-101.8-45.6-101.8-101.8s45.6-101.8,101.8-101.8s101.8,45.6,101.8,101.8
			S203.7,385.5,147.3,385.5z M454.5,340.8H282.6v-21.9h171.8v21.9H454.5z M454.5,294.5H282.6v-21.9h171.8v21.9H454.5z M454.5,248.3
			H282.6v-21.9h171.8v21.9H454.5z"/>
		<path class="st0" d="M147.7,201.4c-45.4,0-82.2,36.8-82.2,82.2c0,19.5,6.8,37.4,18.1,51.5c0.7-6.6,3.6-14.2,12-16.3
			c16.2-4.1,29.3-13.3,29.3-13.3l12.2,38.4l1.7,5.2l5.5-15.4c-13.6-19,3.6-18.2,3.6-18.2s17.2-0.7,3.6,18.2l5.3,15.3l1.7-5.1v0.1
			l1.9-6.1l10.2-32.3c0,0,13.1,9.2,29.3,13.3c8.4,2.1,11.2,9.6,12,16.3c11.3-14.1,18.1-32,18.1-51.5
			C229.9,238.2,193.1,201.4,147.7,201.4z M180.2,274c-2.1,7.6-4.2,9.8-5.7,9.9c-1.4,9-8.6,20.5-19.8,24.5c-4.7,1.7-9.9,1.7-14.6,0
			c-11.4-4.1-18.5-15.5-19.8-24.5c-1.5-0.1-3.6-2.2-5.7-9.9c-2.9-10.4,0.2-12,2.8-11.6c-0.5-1.5-0.8-2.8-1.2-4.3l0,0
			c-0.9-4.8-1.2-9.3-0.1-13.7c1.4-5.8,4.5-10.4,8-14.1c2.2-2.3,4.7-4.4,7.3-6.1c2.2-1.5,4.6-2.8,7.1-3.7l0,0
			c2.1-0.7,4.2-1.2,6.5-1.3c7.1-0.6,12.5,1.2,16.4,3.5c5.8,3.1,8,7.4,8,7.4s13.2,0.9,8.8,27.9c-0.2,1.4-0.6,2.8-1.2,4.3
			C180,262.1,183.1,263.6,180.2,274z"/>
	</g>
</g>
</svg>
