<?xml version="1.0" encoding="utf-8"?>
<!-- Generator: Adobe Illustrator 19.2.1, SVG Export Plug-In . SVG Version: 6.00 Build 0)  -->
<svg version="1.1" id="Capa_1" xmlns="http://www.w3.org/2000/svg" xmlns:xlink="http://www.w3.org/1999/xlink" x="0px" y="0px"
	 viewBox="0 0 512 512" style="enable-background:new 0 0 512 512;" xml:space="preserve">

<g>
	<g>
		<path class="st0" d="M327.9,403.5c0-45.6-37-82.6-82.6-82.6H224c-11.1,0-20-9-20-20c0-4.1,1.7-8,4.6-10.9
			c12.4-12.1,22.8-28.3,30.4-45.8c1.5,1.1,3.2,2,5,2c12,0,26-26.5,26-44.5s-1.7-32.7-13.7-32.7c-1.4,0-2.9,0.2-4.4,0.6
			c-0.8-48.9-13.2-110-87.9-110c-78,0-87.1,60.9-87.9,109.8c-1.1-0.2-2.2-0.4-3.2-0.4c-12,0-13.6,14.6-13.6,32.7s14.1,44.5,26,44.5
			c1.5,0,2.8-0.4,4.1-1.2c7.5,17.2,17.8,33.1,30,45c2.9,2.9,4.6,6.8,4.6,10.9c0,11.1-9,20-20,20H82.6C37,320.9,0,357.9,0,403.5v22.9
			c0,14.4,11.7,26.1,26.1,26.1h275.7c14.4,0,26.1-11.7,26.1-26.1L327.9,403.5L327.9,403.5z"/>
		<path class="st0" d="M261.4,94.2c6.7,14.8,11.4,32.9,13.4,55.4c4.9,3,8.6,8,11.7,13.9h206.1c10.7,0,19.3-8.7,19.3-19.3v-30.7
			c0-10.7-8.7-19.3-19.3-19.3L261.4,94.2L261.4,94.2z"/>
		<path class="st0" d="M253.7,268.5c-0.5,1-1.2,1.9-1.8,2.9v18.4h240.7c10.7,0,19.3-8.7,19.3-19.3v-30.7c0-10.7-8.7-19.3-19.3-19.3
			H291.3C285.8,241.2,272.3,262.8,253.7,268.5z"/>
		<path class="st0" d="M351.9,403.5v12.7h140.8c10.7,0,19.3-8.7,19.3-19.3v-30.7c0-10.7-8.7-19.3-19.3-19.3H335.5
			C345.8,363.3,351.9,382.6,351.9,403.5z"/>
	</g>
</g>
</svg>
