<?xml version="1.0" encoding="utf-8"?>
<!-- Generator: Adobe Illustrator 19.2.1, SVG Export Plug-In . SVG Version: 6.00 Build 0)  -->
<svg version="1.1" id="Capa_1" xmlns="http://www.w3.org/2000/svg" xmlns:xlink="http://www.w3.org/1999/xlink" x="0px" y="0px"
	 viewBox="0 0 512 512" style="enable-background:new 0 0 512 512;" xml:space="preserve">

<g>
	<g>
		<path class="st0" d="M421.7,347.6c-54.7-20.9-87.4-42.2-87.4-42.2l-42.1,133.3l-5.8,18l-18.9-53.5c43.4-60.5-3.2-63.4-11.4-63.4
			l0,0h-0.1h-0.1h-0.1h-0.1l0,0c-8.1,0.1-54.7,2.9-11.3,63.4l-18.9,53.5l-5.8-18l-42.1-133.3c0,0-32.7,21.4-87.4,42.2
			C29.8,369.5,33.6,419.1,32.4,512h223.4h0.5h223.4C478.2,419.1,481.8,369.5,421.7,347.6z"/>
		<path class="st0" d="M149.2,239.3c-5.5,11.6-14.7,26.1-29.5,33.3c-4.8,2.4-3.8,9.6,1.6,10.5c16.1,2.5,39.3-0.3,60.9-16.7l0.3,0.2
			c54.8,32.4,126.6,24.9,173.8-22.1c56-56,56-146.6,0-202.5c-56-56-146.5-56-202.5,0C100,95.9,98,181.8,147.8,238.1L149.2,239.3z
			 M261.1,54.8c12.9,0.1,23.2,10.6,23.1,23.7c-0.1,12.9-10.6,23.5-23.2,23.4c-13-0.1-23.5-10.7-23.4-23.7
			C237.7,65,248.2,54.8,261.1,54.8z M215.7,117.5c0.3-2.5,1.9-4.2,5.2-4.8c1.8-0.3,3.6-0.4,5.3-0.4c7.1,0,14.4,0,21.5,0
			c7.5,0,15.2,0,22.7,0c5.5,0,8.7,2.6,8.8,8.1c0.1,4.5-0.6,9.1-1.5,13.6c-2.9,16.7-6.1,33.3-9.1,50c-1,5.6-2.1,11-2.8,16.6
			c-0.3,2.6,0.1,5.5,0.7,8.1c0.8,3.5,3.5,5.5,7,5c2.9-0.3,5.9-1.4,8.7-2.4c2.3-0.8,4.3-2.4,6.6-3.4c3.4-1.4,6.2,1,5.3,4.5
			c-0.5,2-1.8,4.1-3.2,5.6c-8.5,8.6-18.7,13.7-30.8,13.8c-5.7,0.1-11.4-0.1-17-0.9c-9.3-1.4-21.2-12.9-19.5-25.3
			c1.2-8.4,2.4-16.9,3.9-25.2c2.5-14.6,5.1-29.1,7.7-43.7c0.2-0.9,0.2-1.9,0.2-2.8c0-6.1-1.9-8.3-8-9.1c-2.6-0.3-5.2-0.5-7.7-1.5
			C216.7,122.2,215.5,119.8,215.7,117.5z"/>
	</g>
</g>
</svg>
