<?xml version="1.0" encoding="utf-8"?>
<!-- Generator: Adobe Illustrator 19.2.1, SVG Export Plug-In . SVG Version: 6.00 Build 0)  -->
<svg version="1.1" id="Capa_1" xmlns="http://www.w3.org/2000/svg" xmlns:xlink="http://www.w3.org/1999/xlink" x="0px" y="0px"
	 viewBox="0 0 512 512" style="enable-background:new 0 0 512 512;" xml:space="preserve">

<g>
	<g id="_x37__40_">
		<g>
			<path class="st0" d="M368,128h128c8.8,0,16-7.2,16-16s-7.2-16-16-16H368c-8.8,0-16,7.2-16,16S359.2,128,368,128z M496,384h-96
				c-8.8,0-16,7.2-16,16s7.2,16,16,16h96c8.8,0,16-7.2,16-16S504.8,384,496,384z M496,192H368c-8.8,0-16,7.2-16,16
				c0,8.8,7.2,16,16,16h128c8.8,0,16-7.2,16-16C512,199.2,504.8,192,496,192z M496,288h-96c-8.8,0-16,7.2-16,16c0,8.8,7.2,16,16,16
				h96c8.8,0,16-7.2,16-16C512,295.2,504.8,288,496,288z M315.2,277.1C283.1,322.6,232.7,352,176,352S68.9,322.6,36.8,277.1
				C14.5,294.6,0,321.5,0,352v64c0,53,43,96,96,96h160c53,0,96-43,96-96v-64C352,321.5,337.5,294.6,315.2,277.1z M176,320
				c79.5,0,144-71.6,144-160S255.5,0,176,0S32,71.6,32,160S96.5,320,176,320z"/>
		</g>
	</g>
</g>
</svg>
