<?xml version="1.0" encoding="utf-8"?>
<!-- Generator: Adobe Illustrator 19.2.1, SVG Export Plug-In . SVG Version: 6.00 Build 0)  -->
<svg version="1.1" id="Capa_1" xmlns="http://www.w3.org/2000/svg" xmlns:xlink="http://www.w3.org/1999/xlink" x="0px" y="0px"
	 viewBox="0 0 512 512" style="enable-background:new 0 0 512 512;" xml:space="preserve">

<g>
	<g id="Atom">
		<g>
			<path class="st0" d="M256,224c-17.7,0-32,14.3-32,32c0,17.7,14.3,32,32,32s32-14.3,32-32C288,238.3,273.7,224,256,224z
				 M432.2,256c43.7-48.5,58.3-93.5,40-125.6c-12.7-22.1-37.5-33.6-72.2-34.4c-15.8-0.3-33.6,1.6-53.1,5.7C326.5,36.8,294.1,0,256,0
				s-70.5,36.8-90.8,101.7c-62.1-13-107.2-3-125.4,28.7c-18.3,32.1-3.7,77.1,40,125.6c-43.7,48.5-58.3,93.5-40,125.6
				c13.1,22.9,39.3,34.4,75.9,34.4c14.8,0,31.4-1.8,49.5-5.6C185.5,475.2,217.9,512,256,512c38.1,0,70.5-36.8,90.8-101.7
				c17.6,3.7,33.9,5.6,48.6,5.6c37,0,63.8-11.6,76.8-34.3C490.5,349.5,475.9,304.5,432.2,256z M256,48c11.2,0,34.9,23.9,50.6,88.2
				c1.9,7.9,3.4,16.4,4.9,24.8c-0.2-0.1-0.4-0.3-0.7-0.4c-14.3-8.3-29.3-16.2-44.6-23.5c-18.7-8.9-37-16.4-54.9-22.5
				C226.7,66.5,246.1,48,256,48z M81.5,357.7c-5.3-9.3,3.1-40.5,48.3-84.5c4.5-4.4,9.3-8.8,14.3-13.1c0.1,15,0.7,30,1.8,44.5
				c1.6,20.6,4.6,40.1,8.2,59.1C109.4,372.7,86,365.6,81.5,357.7z M155.9,189.7c-15,10.7-28.9,21.7-41.7,32.8
				c-31.5-35.4-37.3-60.1-32.7-68.2c5.2-9.1,35.3-17.3,94.1-0.7c7.9,2.2,16,4.9,24.2,7.8C185.1,170,170.4,179.5,155.9,189.7z
				 M256,464c-11.2,0-34.9-23.9-50.6-88.2c-1.9-7.9-3.4-16.4-4.9-24.8c0.2,0.1,0.4,0.3,0.7,0.4c14.3,8.4,29.3,16.3,44.6,23.5
				c18.7,8.9,37,16.4,54.9,22.5C285.3,445.5,265.9,464,256,464z M286.7,309.9c-9.9,5.8-20.3,11.2-30.7,16.5
				c-10.5-5.2-20.8-10.7-30.7-16.5c-10.7-6.2-21.4-13.1-32-20.3c-0.6-11.1-1.3-22.3-1.3-33.6c0-11.4,0.6-22.5,1.3-33.6
				c10.6-7.2,21.3-14.1,32-20.3c9.9-5.8,20.3-11.2,30.7-16.5c10.5,5.2,20.8,10.7,30.7,16.5c10.7,6.2,21.4,13.1,32,20.3
				c0.6,11.1,1.3,22.3,1.3,33.6c0,11.4-0.6,22.5-1.3,33.6C308.1,296.8,297.4,303.7,286.7,309.9z M430.5,357.7
				c-5.2,9-35.3,17.2-94.1,0.7c-7.9-2.2-16-4.9-24.2-7.8c14.7-8.6,29.4-18.1,43.9-28.3c15-10.7,28.9-21.7,41.7-32.8
				C429.3,324.9,435.2,349.6,430.5,357.7z M382.2,238.8c-4.5,4.4-9.3,8.8-14.3,13.1c-0.1-15-0.7-30-1.8-44.5
				c-1.6-20.6-4.6-40.1-8.2-59.1c44.7-9.1,68-2,72.6,5.9C435.8,163.6,427.4,194.7,382.2,238.8z"/>
		</g>
	</g>
</g>
</svg>
