<?xml version="1.0" encoding="utf-8"?>
<!-- Generator: Adobe Illustrator 19.2.1, SVG Export Plug-In . SVG Version: 6.00 Build 0)  -->
<svg version="1.1" id="Capa_1" xmlns="http://www.w3.org/2000/svg" xmlns:xlink="http://www.w3.org/1999/xlink" x="0px" y="0px"
	 viewBox="0 0 512 512" style="enable-background:new 0 0 512 512;" xml:space="preserve">
<path class="st0" d="M256,0C114.8,0,0,114.8,0,256s114.8,256,256,256s256-114.8,256-256S397.2,0,256,0z M376.8,125.4
	c26.4,0,47.8,21.4,47.8,47.8c0,26.4-21.4,47.8-47.8,47.8c-26.4,0-47.8-21.4-47.8-47.8C329,146.9,350.4,125.4,376.8,125.4z
	 M85.8,266.8c0-11,8.9-19.9,19.9-19.9c11,0,19.9,8.9,19.9,19.9c0,11-8.9,19.9-19.9,19.9C94.8,286.7,85.8,277.8,85.8,266.8z
	 M133.1,374.6c-11.9,0-21.6-9.7-21.6-21.6c0-11.9,9.7-21.6,21.6-21.6s21.6,9.7,21.6,21.6C154.7,364.9,145,374.6,133.1,374.6z
	 M217.1,439.4c-14.7,0-26.6-11.9-26.6-26.6c0-14.7,11.9-26.6,26.6-26.6c14.7,0,26.6,11.9,26.6,26.6
	C243.7,427.5,231.8,439.4,217.1,439.4z M249.3,162.5c-30.3,0-54.9-24.6-54.9-54.9c0-30.3,24.6-54.9,54.9-54.9
	c30.3,0,54.9,24.6,54.9,54.9C304.1,137.9,279.5,162.5,249.3,162.5z M327.4,439.1c-18.6,0-33.7-15.1-33.7-33.7
	c0-18.6,15.1-33.7,33.7-33.7s33.7,15.1,33.7,33.7C361.1,424,346,439.1,327.4,439.1z M398.9,351.6c-22.5,0-40.7-18.3-40.7-40.7
	c0-22.5,18.3-40.7,40.7-40.7c22.5,0,40.7,18.3,40.7,40.7C439.6,333.4,421.3,351.6,398.9,351.6z"/>
</svg>
