<?xml version="1.0" encoding="utf-8"?>
<!-- Generator: Adobe Illustrator 19.2.1, SVG Export Plug-In . SVG Version: 6.00 Build 0)  -->
<svg version="1.1" id="Capa_1" xmlns="http://www.w3.org/2000/svg" xmlns:xlink="http://www.w3.org/1999/xlink" x="0px" y="0px"
	 viewBox="0 0 512 512" style="enable-background:new 0 0 512 512;" xml:space="preserve">
<g>
	<g>
		<path class="st0" d="M72.9,174c22.8,0,43.1-10.5,56.5-26.8h82.9l52.8-46.1l-52.8-46.1h-82.9C116,38.7,95.7,28.2,72.9,28.2
			C32.6,28.2,0,60.9,0,101.1C0,141.4,32.6,174,72.9,174z M72.3,62.6h11.4v77.1H69.4V78.2l-11.9,6.4l-3.1-12.4L72.3,62.6z"/>
		<path class="st0" d="M72.9,329.1c22.9,0,43.3-10.6,56.7-27h206.2l52.8-46.1l-52.8-46.1H129.3c-13.4-16.3-33.6-26.6-56.3-26.6
			C32.6,183.3,0,215.9,0,256.2C0,296.5,32.6,329.1,72.9,329.1z M48,286.1l8.2-8c18.5-17.6,26.2-26.5,26.3-36.5
			c0-5.6-2.2-12.2-12.5-12.2c-6.4,0-11.6,3.6-14.1,5.7l-1.9,1.6l-4.7-10.4l1.1-0.9c5.9-5,13.6-7.8,21.6-7.8c16.5,0,24,11.5,24,22.8
			c0,14.5-10.5,25.7-25.4,40.1L68,283h29.8v11.8H48V286.1z"/>
		<path class="st0" d="M512,410.9l-52.8-46.1H129.4C116,348.4,95.7,338,72.9,338C32.6,338,0,370.6,0,410.9
			c0,40.3,32.6,72.9,72.9,72.9c22.8,0,43.1-10.5,56.5-26.8h329.8L512,410.9z M69.3,450c-8.8,0-16.1-2.8-19.8-5.2l-1.2-0.8l3.9-11.1
			l2,1.3c2.3,1.5,8.4,4.3,15,4.3c5,0,8.8-1.3,11.3-3.9c2.1-2.1,3.2-5.1,3.2-8.2c-0.1-9.3-8.7-12.6-16.8-12.6h-7.3v-11h7.3
			c5.7,0,14.3-2.8,14.3-10.4c0-5.7-3.9-9-10.8-9c-5.3,0-10.5,2.4-13.4,4.4l-2,1.4l-3.8-10.7l1.1-0.8c4-2.9,11.7-5.9,20-5.9
			c15.5,0,22.5,9.6,22.5,19.1c0,7.1-3.7,13-10.2,16.8c8,3.2,13,10.3,13,19C97.5,438.2,88.8,450,69.3,450z"/>
	</g>
</g>
</svg>
