<?xml version="1.0" encoding="utf-8"?>
<!-- Generator: Adobe Illustrator 19.2.1, SVG Export Plug-In . SVG Version: 6.00 Build 0)  -->
<svg version="1.1" id="Capa_1" xmlns="http://www.w3.org/2000/svg" xmlns:xlink="http://www.w3.org/1999/xlink" x="0px" y="0px"
	 viewBox="0 0 512 512" style="enable-background:new 0 0 512 512;" xml:space="preserve">

<g>
	<g id="_x31_4_26_">
		<g>
			<path class="st0" d="M276.8,41.4c5.8-7.7,4.9-24,4-38.3c0-0.6-0.1-1.2-0.1-1.8C272.7,0.4,264.4,0,256.1,0
				c-31.9,0-62.4,5.9-90.5,16.5c20.1,9.6,51.1,26.3,85.7,50.8C263.1,57.2,272,47.8,276.8,41.4z"/>
			<path class="st0" d="M406.6,187.4c-12.6,1.4-23.3,3.5-32.4,6.4c43.5,76,60.5,171.9,64.6,241.4c43.1-43.9,70.5-103.3,73.1-169
				C482.2,229.7,442.8,183.3,406.6,187.4z"/>
			<path class="st0" d="M147.9,121.9c30.6-6.4,59.3-21.7,82.2-38c-47.8-32.9-87.6-50-95.5-53.2C85,57.4,45.4,100.1,22.3,151.9
				c30-11.9,62.5-18,94.4-24C127,126,137.6,124,147.9,121.9z"/>
			<path class="st0" d="M324.9,129.3c2.7,2.7,5.4,5.5,8.2,8.4c10,10.5,19,21.9,27.3,34c12.1-4.6,26.3-7.8,43.3-9.7
				c40.1-4.5,75.8,27.2,106.4,62.2c-6.6-53-29.3-101.1-63.2-138.9c-18.5,2.2-39.1,6-60.2,12.3C372.9,101.7,351,112.9,324.9,129.3z"
				/>
			<path class="st0" d="M291.2,261.5c10.5-35.6,22.7-61.2,46.2-77.8c-7.1-10.2-14.7-19.7-22.9-28.3c-3.8-4-7.7-7.9-11.5-11.7
				c-94.5,64.3-224,182.6-235.8,285c39.3,43,93.1,72.5,153.7,80.9c22.1-43.9,42.8-133.1,55.1-186.2
				C281.9,297.8,287,275.8,291.2,261.5z"/>
			<path class="st0" d="M184,205.1c33-30.4,67.8-57.6,99.6-79.5c-10.6-9.4-21.3-18-31.7-26c-26.4,19.9-61.1,39.5-98.8,47.3
				c-10.6,2.2-21.4,4.2-31.8,6.1c-40.3,7.5-78.9,14.7-111.4,32.9c-6.3,22.3-9.8,45.8-9.8,70.1c0,54.4,17,104.8,45.9,146.2
				C64.8,328.1,129,255.8,184,205.1z"/>
			<path class="st0" d="M305.7,111c30.5-19.4,56.7-32.8,73.7-37.9c15.3-4.6,30.3-7.9,44.5-10.3c-32.8-28.5-73-48.9-117.3-57.7
				c1,17.9,1.4,37.5-9.3,51.8c-5.1,6.8-13.8,16.1-25,26.1C283.3,91.5,294.5,100.8,305.7,111z"/>
			<path class="st0" d="M315.7,268.8c-4,13.5-9,35.2-14.9,60.3c-17.2,74.1-33.7,140.4-53,182.7c2.7,0.1,5.5,0.2,8.2,0.2
				c59.7,0,114.5-20.5,158-54.7c-1.7-72.8-19.2-175.7-63.1-252C334,217.9,324.9,237.9,315.7,268.8z"/>
		</g>
	</g>
</g>
</svg>
