<?xml version="1.0" encoding="utf-8"?>
<!-- Generator: Adobe Illustrator 19.2.1, SVG Export Plug-In . SVG Version: 6.00 Build 0)  -->
<svg version="1.1" id="Capa_1" xmlns="http://www.w3.org/2000/svg" xmlns:xlink="http://www.w3.org/1999/xlink" x="0px" y="0px"
	 viewBox="0 0 512 512" style="enable-background:new 0 0 512 512;" xml:space="preserve">

<g>
	<path class="st0" d="M287,384c-2.9-2.1-5.7-3.9-8-5.4l-1.2-0.8l-1-1c-1.5-1.6-9.2-10.3-7.9-21.8c0.6-5.1,3.1-12.5,12.2-18.5
		l1.8-1.2l2.1-0.5c2-0.4,4.1-0.7,6.3-0.7c9.4,0,20.7,4.2,30.8,9.1c1.1-1.8,2.2-3.6,3.2-5.4c-1-1.2-2.1-2.3-3.2-3.5
		c-5.6-5.8-11-11.3-16.5-16.7c-12.8-12.8-26-26.1-42.8-45.5l-0.8-1c-9-13-6.3-22.7-3.8-27.3c4.1-7.9,13.3-12.7,23.3-12.3
		c-5.7-7.9-7.5-13.3-6.6-18.1c0-5.9,2.1-11.6,6.2-16.2c5.2-5.9,13-9.5,20.5-9.5c5.4,0,10.3,1.9,13.8,5.5c1.6,1.7,6.5,6.2,13.1,12.3
		c0-0.7,0.1-1.4,0.2-2.1c0.8-6.1,3.4-11.5,7-15.6c-25.5-63.1-87.3-107.6-159.4-107.6c-95,0-172,77-172,172s77,172,172,172
		C218.6,424.2,257.1,409,287,384z M180,92.2L180,92.2c41.4-3.7,70.8,18.6,70.8,18.6l-39.4,70.6c-9.6-7.4-31.4-8.2-31.4-8.2V92.2z
		 M111.3,252.2c0-37.9,30.8-68.7,68.7-68.7c37.9,0,68.7,30.8,68.7,68.7c0,37.9-30.8,68.7-68.7,68.7
		C142.1,320.9,111.3,290.1,111.3,252.2z M331.3,171.2c-0.1-0.2-0.2-0.5-0.3-0.7c0.1,0.2,0.2,0.3,0.3,0.5
		C331.3,171.1,331.3,171.2,331.3,171.2z M241.4,252.2c0-33.8-27.5-61.4-61.4-61.4c-33.9,0-61.4,27.6-61.4,61.4
		c0,33.9,27.6,61.4,61.4,61.4S241.4,286.1,241.4,252.2z M149.4,252.2c0-16.8,13.7-30.5,30.6-30.5s30.5,13.7,30.5,30.5
		c0,16.9-13.6,30.5-30.5,30.5S149.4,269.1,149.4,252.2z M437.2,434.9c0,0,2.7-9-13.4-11.4c0,0-38.7-0.6-67.8-10.1
		c-8.6-4.2-29.8-9.7-37.4-19.2s-31.3-25-31.3-25s-12.1-12.6,2.3-22.2c17-3.7,53.5,21.7,53.5,21.7s15.6,1.2,11.8-9.4
		c0,0-4.6-14.4-22.1-32.7c-18.9-19.6-35.2-34.5-58.9-61.8c-13.6-19.7,10.4-24.9,16.9-18.2c2.3-1,70.6,63.9,75.5,58.3
		c3.3-3.8-82.5-80.2-77.4-89.6c-1.5-11.9,14.6-19.1,20.2-13.5c6.3,6.4,94.6,88.1,92.3,79.8c-2.6-9.8-59.7-70.1-58.9-76.2
		c1.7-13.2,15.2-18.3,23.5-7.3c2,2.6,65.7,83.9,67.6,75.5c2.2-9.8-21.7-34-32-56.3c-6-13,11.3-15.4,17.4-5.6
		c10.8,17.2,51.5,72.4,53.5,76.4c0,0,21.8,34.7,35,84.6l4.5,16L437.2,434.9z M39.1,95.3c0.8-1.7,20.4-41.9,66.4-41.9v10.2
		c-39.5,0-56.5,34.6-57.3,36.1L39.1,95.3z M9.2,83.3L0,78.9c0.3-0.7,32.7-67.1,106.4-67.1V22C39.3,22,9.5,82.7,9.2,83.3z
		 M249.7,429.9l7.2,7.2c-1.4,1.4-33.1,32.8-76.5,17.7l3.4-9.6C221,458.1,248.5,431,249.7,429.9z M281.2,458.2l7.2,7.2
		c-0.5,0.5-53,52.6-122.5,28.4l3.3-9.6C232.7,506.2,280.8,458.7,281.2,458.2z"/>
</g>
</svg>
