<?xml version="1.0" encoding="utf-8"?>
<!-- Generator: Adobe Illustrator 19.2.1, SVG Export Plug-In . SVG Version: 6.00 Build 0)  -->
<svg version="1.1" id="Capa_1" xmlns="http://www.w3.org/2000/svg" xmlns:xlink="http://www.w3.org/1999/xlink" x="0px" y="0px"
	 viewBox="0 0 512 512" style="enable-background:new 0 0 512 512;" xml:space="preserve">

<g>
	<path class="st0" d="M293.2,297c-3.5,1-7.1,1.5-10.7,1.5c-3.9,0-7.7-0.6-11.2-1.7c-4.1,23.8-24.7,42-49.7,42
		c-27.9,0-50.5-22.6-50.5-50.5c0-27.9,22.6-50.5,50.5-50.5c9.6,0,18.6,2.8,26.2,7.5c4.4-10,12.8-17.9,23.3-21.2l8.7-2.7l-1.4-0.5
		l-18.1-6.4l-57.7-20.2c-2.2,3.7-6.1,6.3-10.7,6.3c-31.9,0-57.9,26-57.9,57.9c0,7-5.7,12.7-12.7,12.7c-7,0-12.7-5.7-12.7-12.7
		c0-35.9,22.9-66.2,54.8-77.9L156,178c-5-1.8-9.4-4.7-13-8.5c-33,19.3-55.3,55.1-55.3,96c0,7-5.7,12.7-12.7,12.7
		c-7,0-12.7-5.7-12.7-12.7c0-51.6,28.8-96.7,71.1-119.9c0-3.6,0.5-7.3,1.8-10.8c2.3-6.5,6.4-12,11.6-15.9
		c-10.2-8.2-14.7-21.9-11.3-35C55.9,117.6,0,196.4,0,288.2c0,122.4,99.2,221.6,221.6,221.6c122.4,0,221.6-99.2,221.6-221.6
		c0-8.6-0.6-17.1-1.6-25.4L293.2,297z M251.4,375.8c31.9,0,57.9-26,57.9-57.9c0-7,5.7-12.7,12.7-12.7c7,0,12.7,5.7,12.7,12.7
		c0,45.9-37.3,83.3-83.2,83.3c-7,0-12.7-5.7-12.7-12.7C238.7,381.5,244.4,375.8,251.4,375.8z M244.3,447.6c-7,0-12.7-5.7-12.7-12.7
		c0-7,5.7-12.7,12.7-12.7c61.4,0,111.3-49.9,111.3-111.3c0-7,5.7-12.7,12.7-12.7c7,0,12.7,5.7,12.7,12.7
		C381,386.3,319.7,447.6,244.3,447.6z"/>
	<path class="st0" d="M500.1,113.4l-90.6-61.8c0,0,0,0-0.1,0L271,3.1c-1.8-0.6-3.7-1-5.6-1c-7,0-13.5,4.4-16,11.3
		C246.3,22.3,251,32,259.8,35l66.6,23.3c4.4,1.5,6.7,6.4,5.2,10.8c-0.7,2.1-2.3,3.9-4.3,4.8c-1.2,0.6-2.4,0.8-3.7,0.8
		c-1,0-1.9-0.2-2.8-0.5L206.3,34.2c-1.9-0.6-3.7-1-5.6-1c-7,0-13.5,4.4-16,11.3c-3.1,8.8,1.6,18.5,10.4,21.6l114.5,40.1
		c2.1,0.7,3.9,2.3,4.8,4.3c1,2,1.1,4.3,0.4,6.5c-1.2,3.5-4.5,5.7-8,5.7c-0.9,0-1.9-0.2-2.8-0.5L173.5,76.6c-1.8-0.6-3.7-1-5.6-1
		c-7,0-13.5,4.4-16,11.3c-3.1,8.8,1.6,18.5,10.4,21.6l130.5,45.7c2.1,0.7,3.9,2.3,4.8,4.3c1,2,1.1,4.3,0.4,6.5
		c-1.2,3.5-4.5,5.7-8,5.7c-0.9,0-1.9-0.2-2.8-0.5l-114.5-40.1c-1.9-0.6-3.7-1-5.6-1c-7,0-13.5,4.4-16,11.3
		c-3.1,8.8,1.6,18.5,10.4,21.6L284,204.9l0,0l49.6,17.3l-57.4,18c-6.6,2.1-11.5,7.1-13.6,13.2c-1.5,4.1-1.6,8.8-0.2,13.3
		c2.8,9,11.2,14.8,20.2,14.8c2.1,0,4.2-0.3,6.3-1l174.8-40.2c9.1-2.1,16.5-8.7,19.6-17.5l27.3-77.9
		C514.5,133.3,510.3,120.4,500.1,113.4z"/>
</g>
</svg>
