<?xml version="1.0" encoding="utf-8"?>
<!-- Generator: Adobe Illustrator 19.2.1, SVG Export Plug-In . SVG Version: 6.00 Build 0)  -->
<svg version="1.1" id="Capa_1" xmlns="http://www.w3.org/2000/svg" xmlns:xlink="http://www.w3.org/1999/xlink" x="0px" y="0px"
	 viewBox="0 0 512 512" style="enable-background:new 0 0 512 512;" xml:space="preserve">

<g>
	<path class="st0" d="M509.8,135.6l-3.1-3.3h-15.7l3.5-28.5c0.4-3.6-0.8-7.2-3.3-9.9c-2.4-2.7-5.9-4.2-9.6-4.2H461V59.7
		c0-7-5.7-12.7-12.7-12.7h-21.4V17.1c0-7-5.7-12.7-12.7-12.7H98.3c-7,0-12.7,5.7-12.7,12.7V47H64.2c-7,0-12.7,5.7-12.7,12.7v29.9
		H30.7c-3.6,0-7.1,1.6-9.6,4.2c-2.4,2.7-3.6,6.3-3.2,10.1l3.5,28.3H9.7c-2.7,0-5.3,1.2-7.1,3.3L0,139.1l50.8,357.1
		c1.2,6.7,6.9,11.5,13.7,11.5h383.4c6.7,0,12.5-4.8,13.7-11.8l50.2-352.8C512.3,140.4,511.6,137.7,509.8,135.6z M102.7,21.4h307.1
		V47H102.7C102.7,47,102.7,21.4,102.7,21.4z M68.6,64.1h17.1h341.2h17.1v25.6H68.6C68.6,89.7,68.6,64.1,68.6,64.1z M35.4,106.7h16.1
		H461H477l-3.1,25.6H38.6L35.4,106.7z M252,465c-96.4,0-174.9-65.1-174.9-145S155.5,175,252,175S426.8,240,426.8,320
		S348.4,465,252,465z"/>
	<path class="st0" d="M260.5,217.1c0-4.7-3.8-8.5-8.5-8.5c-34.1,0-66.4,10.3-93.4,29.8c-3.8,2.8-4.7,8.1-1.9,11.9
		c1.7,2.3,4.3,3.5,6.9,3.5c1.7,0,3.5-0.5,5-1.6c24.1-17.4,52.9-26.6,83.4-26.6C256.7,225.6,260.5,221.8,260.5,217.1z"/>
	<path class="st0" d="M260.5,249.1c0-4.7-3.8-8.5-8.5-8.5c-26.5,0-51.6,8-72.6,23.2c-3.8,2.8-4.7,8.1-1.9,11.9
		c1.7,2.3,4.3,3.5,6.9,3.5c1.7,0,3.5-0.5,5-1.6c18.1-13.1,39.7-20,62.6-20C256.7,257.6,260.5,253.8,260.5,249.1z"/>
	<path class="st0" d="M260.5,281.1c0-4.7-3.8-8.5-8.5-8.5c-19,0-37,5.8-52.1,16.8c-3.8,2.8-4.6,8.1-1.9,11.9
		c1.7,2.3,4.3,3.5,6.9,3.5c1.7,0,3.5-0.5,5-1.6c12.1-8.8,26.6-13.5,42-13.5C256.7,289.6,260.5,285.8,260.5,281.1z"/>
	<path class="st0" d="M336.1,389.3c-24.1,17.4-52.9,26.6-83.4,26.6c-4.7,0-8.5,3.8-8.5,8.5s3.8,8.5,8.5,8.5
		c34.1,0,66.4-10.3,93.4-29.9c3.8-2.8,4.7-8.1,1.9-11.9C345.3,387.4,339.9,386.6,336.1,389.3z"/>
	<path class="st0" d="M244.2,392.5c0,4.7,3.8,8.5,8.5,8.5c26.5,0,51.6-8,72.6-23.2c3.8-2.8,4.7-8.1,1.9-11.9
		c-2.8-3.8-8.1-4.7-11.9-1.9c-18.1,13.1-39.7,20-62.6,20C248,383.9,244.2,387.8,244.2,392.5z"/>
	<path class="st0" d="M244.2,360.5c0,4.7,3.8,8.5,8.5,8.5c19,0,37-5.8,52.1-16.8c3.8-2.8,4.6-8.1,1.9-11.9
		c-2.8-3.8-8.1-4.6-11.9-1.9c-12.1,8.8-26.6,13.5-42,13.5C248,351.9,244.2,355.8,244.2,360.5z"/>
	<ellipse class="st0" cx="255.3" cy="319.8" rx="19.9" ry="14.4"/>
</g>
</svg>
