<?xml version="1.0" encoding="utf-8"?>
<!-- Generator: Adobe Illustrator 19.2.1, SVG Export Plug-In . SVG Version: 6.00 Build 0)  -->
<svg version="1.1" id="Capa_1" xmlns="http://www.w3.org/2000/svg" xmlns:xlink="http://www.w3.org/1999/xlink" x="0px" y="0px"
	 viewBox="0 0 58 58" style="enable-background:new 0 0 58 58;" xml:space="preserve">
<style type="text/css">
	.st0{fill:#F0C419;}
	.st1{fill:#65DDB9;}
	.st2{fill:#FB7B76;}
	.st3{fill:#2FA8CC;}
	.st4{fill:#556080;}
	.st5{fill:#8697CB;}
</style>
<path class="st0" d="M51.5,57.5H6.5c-0.3,0-0.6-0.2-0.6-0.5L0,15.6c0-0.1,0-0.1,0.1-0.1h57.8c0.1,0,0.1,0,0.1,0.1L52.1,57
	C52,57.3,51.8,57.5,51.5,57.5z"/>
<path class="st1" d="M55.4,15.5l0.5-4.4c0-0.3-0.2-0.6-0.5-0.6H2.5C2.2,10.5,2,10.7,2,11l0.5,4.4C2.6,15.5,55.4,15.5,55.4,15.5z"/>
<g>
	<path class="st2" d="M52,10.5V6c0-0.3-0.2-0.5-0.5-0.5h-45C6.2,5.5,6,5.7,6,6v4.5H52z"/>
</g>
<g>
	<path class="st3" d="M48,5.5V1c0-0.3-0.2-0.5-0.5-0.5h-37C10.2,0.5,10,0.7,10,1v4.5H48z"/>
</g>
<ellipse class="st4" cx="28.5" cy="36.5" rx="19.5" ry="16"/>
<path class="st5" d="M18.1,28.7c-0.3,0-0.6-0.1-0.8-0.4c-0.3-0.4-0.2-1.1,0.2-1.4c3.2-2.3,7-3.5,10.9-3.5c0.6,0,1,0.4,1,1
	s-0.4,1-1,1c-3.6,0-7,1.1-9.8,3.1C18.5,28.7,18.3,28.7,18.1,28.7z"/>
<path class="st5" d="M20.6,31.7c-0.3,0-0.6-0.1-0.8-0.4c-0.3-0.4-0.2-1.1,0.2-1.4c2.5-1.8,5.4-2.7,8.5-2.7c0.6,0,1,0.4,1,1
	s-0.4,1-1,1c-2.7,0-5.2,0.8-7.3,2.3C21,31.6,20.8,31.7,20.6,31.7z"/>
<path class="st5" d="M23,34.7c-0.3,0-0.6-0.1-0.8-0.4c-0.3-0.4-0.2-1.1,0.2-1.4c1.8-1.3,3.9-2,6.1-2c0.6,0,1,0.4,1,1
	c0,0.6-0.4,1-1,1c-1.8,0-3.5,0.5-4.9,1.6C23.4,34.6,23.2,34.7,23,34.7z"/>
<path class="st5" d="M28.6,49.7c-0.6,0-1-0.4-1-1s0.4-1,1-1c3.6,0,6.9-1.1,9.8-3.1c0.4-0.3,1.1-0.2,1.4,0.2c0.3,0.4,0.2,1.1-0.2,1.4
	C36.4,48.5,32.6,49.7,28.6,49.7z"/>
<path class="st5" d="M28.6,46c-0.6,0-1-0.4-1-1s0.4-1,1-1c2.7,0,5.2-0.8,7.3-2.3c0.4-0.3,1.1-0.2,1.4,0.2c0.3,0.4,0.2,1.1-0.2,1.4
	C34.6,45,31.7,46,28.6,46z"/>
<path class="st5" d="M28.6,42.2c-0.6,0-1-0.4-1-1s0.4-1,1-1c1.8,0,3.5-0.5,4.9-1.6c0.4-0.3,1.1-0.2,1.4,0.2c0.3,0.4,0.2,1.1-0.2,1.4
	C32.9,41.6,30.8,42.2,28.6,42.2z"/>
<ellipse class="st5" cx="28.9" cy="36.5" rx="2.3" ry="1.7"/>
</svg>
