<?xml version="1.0" encoding="utf-8"?>
<!-- Generator: Adobe Illustrator 19.2.1, SVG Export Plug-In . SVG Version: 6.00 Build 0)  -->
<svg version="1.1" id="Capa_1" xmlns="http://www.w3.org/2000/svg" xmlns:xlink="http://www.w3.org/1999/xlink" x="0px" y="0px"
	 viewBox="0 0 512 512" style="enable-background:new 0 0 512 512;" xml:space="preserve">

<g>
	<path class="st0" d="M231,231c-6.7,6.7-10.3,15.5-10.3,25s3.7,18.3,10.3,25c6.7,6.7,15.5,10.3,25,10.3c9.4,0,18.3-3.7,25-10.3
		c6.7-6.7,10.3-15.5,10.3-25s-3.7-18.3-10.3-25C267.6,217.7,244.4,217.7,231,231z"/>
	<path class="st0" d="M437,75C388.7,26.6,324.4,0,256,0S123.3,26.6,75,75c-99.8,99.8-99.8,262.2,0,362c48.4,48.3,112.6,75,181,75
		s132.7-26.6,181-75C536.8,337.2,536.8,174.8,437,75z M430.8,430.8c-17.1,17.1-36.1,31.1-56.2,42.1L306.8,349
		c-15.4,8.4-32.8,13-50.8,13c-28.3,0-54.9-11-74.9-31c-34-34-39.9-85.5-18-125.7l-124-67.8c11-20.2,25-39.1,42.1-56.2
		s36.1-31.1,56.2-42.1l67.7,123.9c15.4-8.5,32.8-13,50.8-13c28.3,0,54.9,11,74.9,31c34,34,39.9,85.5,18,125.7l124,67.8
		C461.8,394.7,447.8,413.7,430.8,430.8z"/>
</g>
</svg>
