<?xml version="1.0" encoding="utf-8"?>
<!-- Generator: Adobe Illustrator 19.2.1, SVG Export Plug-In . SVG Version: 6.00 Build 0)  -->
<svg version="1.1" id="Слой_1" xmlns="http://www.w3.org/2000/svg" xmlns:xlink="http://www.w3.org/1999/xlink" x="0px" y="0px"
	 viewBox="0 0 255.1 360.1" style="enable-background:new 0 0 255.1 360.1;" xml:space="preserve">
<style type="text/css">
	.st0{fill:#264DE4;}
	.st1{fill:#2965F1;}
	.st2{fill:#EBEBEB;}
	.st3{fill:#FFFFFF;}
</style>
<title>css3</title>
<path class="st0" d="M127.4,360.1L23.2,331.2L0,70.8h255.1l-23.2,260.4L127.4,360.1L127.4,360.1L127.4,360.1z"/>
<path class="st1" d="M212,314.5l19.9-222.5H127.6V338L212,314.5L212,314.5L212,314.5z"/>
<path class="st2" d="M53.2,188.6l2.9,31.9h71.5v-31.9H53.2z"/>
<path class="st2" d="M47.5,124l2.9,31.9h77.2V124H47.5z"/>
<path class="st2" d="M127.6,271.6h-0.1L91.8,262l-2.3-25.5h-32l4.5,50.2l65.4,18.2h0.1L127.6,271.6L127.6,271.6L127.6,271.6z"/>
<path class="st3" d="M60,0h38.7v16.2H76.2v16.2h22.5v16.2H60V0L60,0z"/>
<path class="st3" d="M106.4,0h38.7v14.1h-22.5v2.8h22.5v32.3h-38.7V34.5H129v-2.8h-22.5V0L106.4,0z"/>
<path class="st3" d="M152.9,0h38.7v14.1H169v2.8h22.5v32.3h-38.7V34.5h22.5v-2.8h-22.5V0L152.9,0z"/>
<path class="st3" d="M201.7,188.6l5.8-64.6h-80v31.9h45l-2.9,32.7h-42.1v31.9h39.3l-3.7,41.4l-35.6,9.6v33.2l65.5-18.1l0.5-5.4
	l7.5-84.1L201.7,188.6L201.7,188.6L201.7,188.6z"/>
</svg>
