<svg xmlns="http://www.w3.org/2000/svg" viewBox="0 0 447.1 512"><title>hexagon1</title>

<path class="a" d="M475.8,124.8L252.3,0,32.4,131.2l3.7,256L259.7,512,479.5,380.8ZM257.7,494L52.6,379.6l35.9-22.3L93,393.2l156.8,61.6,7.4-3.4ZM174.9,166.9L251.2,56l1.6,2.3,0.8,69.8-38.2-5.2-9.3,13.6,47.7,6.6L255,249.9l-1.1.6-70.4-36.9ZM255,256.3l1.4,128.3-53.5-64.2-5.6-30.5L253,255.3Zm3.7,2,103.6,57-88.5,90.1L260.2,389Zm0-4.2v-2.2l72.8-41.6,32.8,101.9Zm-0.1-6.4-1.2-104.2,42.6,5.9-2-6.1-6.7-9.9-34.1-4.7-0.7-64.8,52.7,77.5,21.1,65.4Zm-8.4,5-53.6,33.2-12.4-67.7Zm-67,41.5-81.5,50.5L80.6,175l13.1-4.2,74.1,38.7ZM88,353.3L50.7,376.4,47.3,146.5l28,14.7-10.9,3.5Zm161.4,85.5L106.5,382.7l-4.2-33.9L184,298.2l5.2,28.7,67.5,81,0.3,27.5Zm11-26.5,12.4,14.9L375.6,322.6l7.4,4.1-2.5,2.5L380,378.7l-87.8,40.4L271,440.7l-7.2-8.6-3.2,1.5Zm117.9-92.4,2.9-3L344.5,202.7,382,181.2,381,281l11.5,35.8-6.9,7Zm18.5-147L461.3,136l3.4,231.4-69.4-38.2Zm64.5-37.3-1.6-2.8-62.8,35.9,0.2-20.8-61.6-8.5,5,15.5,41.8,5.7-0.2,16.5-38.7,22.1L323,135.7,256.3,37.2,256,18.9,461.2,133.4ZM252.3,17.1l0.2,14.7L251.3,30,159.4,163.6,167,205,98.7,169.3l51.7-16.6L164,132.9,80.4,159.7,47.6,142.5l-0.2.4v-3.3Zm9,476.8-0.5-44.2,133.9-61.6,0.5-54.7,68.6,37.7,0.9-1.6v2.9Z" transform="translate(-32.4 0)"/>
</svg>