<svg xmlns="http://www.w3.org/2000/svg" viewBox="0 0 491.32 511.9"><title>home3d</title><path class="a" d="M283.8,365.1l-40.3,6.4a2.66,2.66,0,0,0-2.2,2.5v57a2.46,2.46,0,0,0,1,2,3,3,0,0,0,1.6.5,2,2,0,0,0,.7-0.1l40.3-10.6a2.58,2.58,0,0,0,1.9-2.5V367.4a2.52,2.52,0,0,0-.9-2A4.66,4.66,0,0,0,283.8,365.1Z" transform="translate(-10.19 -0.1)"/><path class="a" d="M334.3,357l-32.5,5.2a2.66,2.66,0,0,0-2.2,2.5v51a2.46,2.46,0,0,0,1,2,3,3,0,0,0,1.6.5,2,2,0,0,0,.7-0.1l32.5-8.5a2.58,2.58,0,0,0,1.9-2.5V359.5a2.52,2.52,0,0,0-.9-2A3,3,0,0,0,334.3,357Z" transform="translate(-10.19 -0.1)"/><path class="a" d="M347.9,405.4a3,3,0,0,0,1.6.5,2,2,0,0,0,.7-0.1l26.8-7a2.58,2.58,0,0,0,1.9-2.5V353a2.52,2.52,0,0,0-.9-2,2.63,2.63,0,0,0-2.1-.6l-26.8,4.3a2.56,2.56,0,0,0-2.2,2.5v46.2A2.22,2.22,0,0,0,347.9,405.4Z" transform="translate(-10.19 -0.1)"/><path class="a" d="M284.2,285.8L244,286a2.65,2.65,0,0,0-2.6,2.6v57a2.46,2.46,0,0,0,.9,1.9,2.84,2.84,0,0,0,1.7.7h0.3l40.3-4.3a2.53,2.53,0,0,0,2.3-2.6V288.4a2.5,2.5,0,0,0-.8-1.8A2.36,2.36,0,0,0,284.2,285.8Z" transform="translate(-10.19 -0.1)"/><path class="a" d="M334.7,285.5l-32.5.2a2.65,2.65,0,0,0-2.6,2.6v51a2.73,2.73,0,0,0,.8,1.9,2.84,2.84,0,0,0,1.7.7h0.3l32.5-3.5a2.53,2.53,0,0,0,2.3-2.6V288.1a2.5,2.5,0,0,0-.8-1.8A2,2,0,0,0,334.7,285.5Z" transform="translate(-10.19 -0.1)"/><path class="a" d="M349.4,336.7h0.3l26.8-2.9a2.53,2.53,0,0,0,2.3-2.6V287.8a2.5,2.5,0,0,0-.8-1.8,3.26,3.26,0,0,0-1.8-.8l-26.8.1a2.65,2.65,0,0,0-2.6,2.6v46.2a2.46,2.46,0,0,0,.9,1.9A2.34,2.34,0,0,0,349.4,336.7Z" transform="translate(-10.19 -0.1)"/><path class="a" d="M284.6,206.5l-40.3-6a2.74,2.74,0,0,0-2.1.6,2.52,2.52,0,0,0-.9,2v57a2.63,2.63,0,0,0,2.5,2.6l40.3,1.9h0.1a2.87,2.87,0,0,0,1.8-.7,2.73,2.73,0,0,0,.8-1.9V209A2.49,2.49,0,0,0,284.6,206.5Z" transform="translate(-10.19 -0.1)"/><path class="a" d="M299.7,211.7v51a2.63,2.63,0,0,0,2.5,2.6l32.5,1.5h0.1a2.87,2.87,0,0,0,1.8-.7,2.73,2.73,0,0,0,.8-1.9V216.5a2.42,2.42,0,0,0-2.2-2.5l-32.5-4.8a2.74,2.74,0,0,0-2.1.6A2.46,2.46,0,0,0,299.7,211.7Z" transform="translate(-10.19 -0.1)"/><path class="a" d="M349.3,267.5l26.8,1.2h0.1a2.87,2.87,0,0,0,1.8-.7,2.73,2.73,0,0,0,.8-1.9V222.7a2.42,2.42,0,0,0-2.2-2.5l-26.8-4a2.74,2.74,0,0,0-2.1.6,2.52,2.52,0,0,0-.9,2V265A2.69,2.69,0,0,0,349.3,267.5Z" transform="translate(-10.19 -0.1)"/><path class="a" d="M495.9,201.6l-90.8-22.9L309.1,4a0.22,0.22,0,0,0-.2-0.2c-0.1-.1-0.1-0.2-0.2-0.3s-0.3-.5-0.5-0.7c0-.1-0.1-0.1-0.1-0.2L308,2.5a6,6,0,0,0-.8-0.8c-0.1,0-.1-0.1-0.2-0.1a2.18,2.18,0,0,0-.8-0.5C306.1,1,306,1,305.9.9s-0.5-.2-0.7-0.3S305,0.5,304.9.5c-0.3-.1-0.7-0.2-1-0.3h-0.1a3.4,3.4,0,0,0-1-.1h-0.4a2.77,2.77,0,0,0-.9.1h-0.3c-0.3.1-.6,0.1-0.9,0.2a0.2,0.2,0,0,0-.2.1A3.7,3.7,0,0,0,299,1h0L85.3,112.2a7.4,7.4,0,0,0-2.7,2.3L11.7,211.2a7.66,7.66,0,0,0-.1,9,7.83,7.83,0,0,0,6.3,3.3,7.61,7.61,0,0,0,2.1-.3l10-2.8V422.8a7.7,7.7,0,0,0,4.2,6.9l159.2,81.4h0.1a0.35,0.35,0,0,1,.2.1c0.3,0.1.5,0.2,0.8,0.3,0.1,0,.2.1,0.3,0.1a6.37,6.37,0,0,1,.7.2,0.37,0.37,0,0,1,.3.1c0.3,0,.7.1,1.1,0.1h0a2.77,2.77,0,0,0,.9-0.1H198a2.92,2.92,0,0,0,.9-0.2H199a1.06,1.06,0,0,0,.5-0.2l202.8-73.8,94.1-34.2a7.67,7.67,0,0,0,5.1-7.3V209.1A7.41,7.41,0,0,0,495.9,201.6ZM50.4,226.4a2.58,2.58,0,0,1,2-2.5l16.9-3.5a2.27,2.27,0,0,1,2.1.5,2.52,2.52,0,0,1,.9,2v43.3a2.62,2.62,0,0,1-2.4,2.6L53,269.9H52.8a2.87,2.87,0,0,1-1.8-.7,2.73,2.73,0,0,1-.8-1.9l0.2-40.9h0Zm22,169.7a2.61,2.61,0,0,1-1.1,2.1,2.69,2.69,0,0,1-1.5.5,2.92,2.92,0,0,1-.9-0.2L52,392.3a2.59,2.59,0,0,1-1.7-2.4V349a2.61,2.61,0,0,1,1-2,2.47,2.47,0,0,1,2.2-.5l16.9,3.8a2.56,2.56,0,0,1,2,2.5v43.3h0Zm0.1-64.9a2.52,2.52,0,0,1-.9,2,2.72,2.72,0,0,1-1.7.6H69.5l-17-2.6a2.56,2.56,0,0,1-2.2-2.5V287.6a2.5,2.5,0,0,1,.8-1.8,2.69,2.69,0,0,1,1.8-.8l17,0.1a2.65,2.65,0,0,1,2.6,2.6v43.5h0Zm40.5,129a2.75,2.75,0,0,1-1.2,2.2,2.2,2.2,0,0,1-1.3.4,2.66,2.66,0,0,1-1.2-.3L87.9,451.6a2.44,2.44,0,0,1-1.4-2.3V357.1a2.61,2.61,0,0,1,1-2,2.47,2.47,0,0,1,2.2-.5l21.4,4.8a2.56,2.56,0,0,1,2,2.5L113,460.2h0Zm0-122.9a2.52,2.52,0,0,1-.9,2,2.72,2.72,0,0,1-1.7.6H110l-21.6-3.3a2.56,2.56,0,0,1-2.2-2.5V287.8A2.5,2.5,0,0,1,87,286a2.09,2.09,0,0,1,1.8-.7l21.6,0.1A2.65,2.65,0,0,1,113,288v49.3h0Zm0-73.7a2.62,2.62,0,0,1-2.4,2.6L89,267.5H88.8a2.87,2.87,0,0,1-1.8-.7,2.73,2.73,0,0,1-.8-1.9v-46a2.48,2.48,0,0,1,2-2.5l21.6-4.5a2.27,2.27,0,0,1,2.1.5,2.52,2.52,0,0,1,.9,2l0.2,49.2h0Zm53.3,167a2.61,2.61,0,0,1-1.1,2.1,2.46,2.46,0,0,1-1.5.5,2.92,2.92,0,0,1-.9-0.2l-28.6-10.5a2.59,2.59,0,0,1-1.7-2.4V367.6a2.33,2.33,0,0,1,1-2,2.47,2.47,0,0,1,2.2-.5l28.6,6.4a2.56,2.56,0,0,1,2,2.5v56.6h0Zm0-85.2a2.2,2.2,0,0,1-.9,1.9,2.72,2.72,0,0,1-1.7.6h-0.4l-28.6-4.3a2.56,2.56,0,0,1-2.2-2.5V288.4a2.74,2.74,0,0,1,2.6-2.6l28.6,0.2a2.65,2.65,0,0,1,2.6,2.6v56.8h0Zm0-85.3a2.62,2.62,0,0,1-2.4,2.6l-28.6,1.9h-0.2a2.87,2.87,0,0,1-1.8-.7,2.73,2.73,0,0,1-.8-1.9V209.3a2.48,2.48,0,0,1,2-2.5l28.6-6a2.27,2.27,0,0,1,2.1.5,2.52,2.52,0,0,1,.9,2l0.2,56.8h0ZM392.2,425L204.8,493.2V167.8L301.7,22.6l90.5,164.8V425Zm59.4-47.8a2.58,2.58,0,0,1-1.9,2.5L421.8,387a1.48,1.48,0,0,1-.7.1,3,3,0,0,1-1.6-.5,2.61,2.61,0,0,1-1-2V326.4a2.68,2.68,0,0,1,2.3-2.6l27.9-3a3,3,0,0,1,2,.6,2.84,2.84,0,0,1,.9,1.9v53.9h0Zm0-89.7a2.58,2.58,0,0,1-2.6,2.6l-27.9.1h0a2.74,2.74,0,0,1-2.6-2.6V229.4a2.66,2.66,0,0,1,.9-2,2.63,2.63,0,0,1,2.1-.6l27.9,4.2a2.56,2.56,0,0,1,2.2,2.5v54h0Zm38.3,79.7a2.58,2.58,0,0,1-1.9,2.5l-21.9,5.8a1.48,1.48,0,0,1-.7.1,3,3,0,0,1-1.6-.5,2.61,2.61,0,0,1-1-2V322.2a2.68,2.68,0,0,1,2.3-2.6l21.9-2.4a3,3,0,0,1,2,.6,2.84,2.84,0,0,1,.9,1.9v47.5h0Zm0-79.9a2.58,2.58,0,0,1-2.6,2.6l-21.9.1h0a2.74,2.74,0,0,1-2.6-2.6V236.1a2.52,2.52,0,0,1,.9-2,2.63,2.63,0,0,1,2.1-.6l21.9,3.3a2.56,2.56,0,0,1,2.2,2.5v48h0Z" transform="translate(-10.19 -0.1)"/></svg>