<svg xmlns="http://www.w3.org/2000/svg" viewBox="0 0 149.31 138.21"><defs><style>.a{fill:#0868ac;}.b{fill:#fff;}</style></defs><title>jquery</title><path d="M42.66,111.24h0l-1.19,4.46,1.19-4.45h0Z" transform="translate(0.01 0)"/><path d="M48.79,120.91h0Z" transform="translate(0.01 0)"/><path d="M48.45,127.57h0Z" transform="translate(0.01 0)"/><path d="M50.11,120.92h0Z" transform="translate(0.01 0)"/><path d="M49.14,127l1.37-5.52L49.14,127h0Z" transform="translate(0.01 0)"/><path d="M78.14,101.6l-2.56,12.67Z" transform="translate(0.01 0)"/><path d="M71.57,101.6l-1.94,9.46,1.94-9.46h0Z" transform="translate(0.01 0)"/><path class="b" 	d="M77.71,101H72.24a0.73,0.73,0,0,0-.67.57L69.63,111l-1.92,9.5a0.73,0.73,0,0,1-.67.57H63.15c-3.83,0-3.38-2.79-2.6-6.61v-0.12l0.09-.48V113.8l0.17-1L61,111.75c0.06-.32.14-0.78,0.2-1.07l0.88-4.54L63,101.6a0.45,0.45,0,0,0-.31-0.55l-0.13,0H57a0.72,0.72,0,0,0-.67.57l-1.21,6-1.21,6h0l-0.11.56c-1.39,6.69-1,13.06,6.53,13.26H72.36a0.72,0.72,0,0,0,.67-0.57l2.56-12.66,2.56-12.67a0.45,0.45,0,0,0-.37-0.51H77.71Z" transform="translate(0.01 0)"/><path d="M99.5,121.16a0.45,0.45,0,0,1,.44.57l-0.53,2.73" transform="translate(0.01 0)"/><path d="M98.88,127.2l0.53-2.74-0.53,2.74h0Z" transform="translate(0.01 0)"/><path d="M98.22,127.78h0c-1.61,0-6.44.05-10.07,0.05,4.42,0,10.07-.05,10.07-0.05h0Z" transform="translate(0.01 0)"/><path d="M84.89,117.64a0.9,0.9,0,0,1,.62-0.82H84.83c-0.31,3.26.06,0.83,0.06,0.83h0Z" transform="translate(0.01 0)"/><path d="M88.64,127.83h0Z" transform="translate(0.01 0)"/><path d="M99.5,121.16a0.45,0.45,0,0,1,.44.57l-0.53,2.73-0.09.45" transform="translate(0.01 0)"/><path d="M91.23,127.82h0Z" transform="translate(0.01 0)"/><path d="M89.89,127.82h0Z" transform="translate(0.01 0)"/><path d="M89.48,127.82h0Z" transform="translate(0.01 0)"/><path d="M89.06,127.83h0Z" transform="translate(0.01 0)"/><path d="M89.81,127.82h0Z" transform="translate(0.01 0)"/><path d="M91.21,127.82h0Z" transform="translate(0.01 0)"/><path d="M98.22,127.77h0Z" transform="translate(0.01 0)"/><path class="b" d="M98.88,127.2l0.44-2.29-0.44,2.29h0Z" transform="translate(0.01 0)"/><path d="M89.35,127.83h0Z" transform="translate(0.01 0)"/><path d="M88.54,127.83h0Z" transform="translate(0.01 0)"/><path d="M88.95,127.83h0Z" transform="translate(0.01 0)"/><path d="M9,117.71l0.85-4-1,4.53-0.93,4.62,0.82-4c0.06-.31.17-0.83,0.24-1.14H9Z" transform="translate(0.01 0)"/><path class="b"  d="M19.17,101h-6a0.74,0.74,0,0,0-.67.57l-0.57,2.65-0.57,2.65a0.44,0.44,0,0,0,.29.55l0.14,0h6a0.73,0.73,0,0,0,.67-0.57L19,104.22l0.55-2.65h0a0.44,0.44,0,0,0-.29-0.55l-0.14,0h0Z" transform="translate(0.01 0)"/><path d="M17.87,109.77h0l-1.76,8.58Z" transform="translate(0.01 0)"/><path  d="M104,116.09s8.5,0.11,13.9.11c-4.11,0-10.89-.08-13.91-0.11h0Z" transform="translate(0.01 0)"/><path d="M10.71,109.77l-0.85,4Z" transform="translate(0.01 0)"/><path class="b" d="M17.43,109.21h-6a0.73,0.73,0,0,0-.67.57l-0.85,4-0.85,4c-0.07.31-.17,0.82-0.24,1.14l-0.82,4-0.82,4A10.83,10.83,0,0,1,6.89,128s-1.13,3.54-3,3.5H2a0.73,0.73,0,0,0-.68.56l-0.63,2.78L0,137.64a0.44,0.44,0,0,0,.29.55l0.13,0h5c4.74,0,7.25-2.77,8.85-10.75l1.88-9.15,1.76-8.58a0.44,0.44,0,0,0-.29-0.55l-0.15,0h0Z" transform="translate(0.01 0)"/><path d="M103.35,127.5a0.45,0.45,0,0,1-.44-0.57l4.55-22.47" transform="translate(0.01 0)"/><path d="M109.71,126.93l1.84-9.59Z" transform="translate(0.01 0)"/><path d="M103,127.22a2.61,2.61,0,0,1,0-.85l2.16-10.66-2.27,11.23a0.45,0.45,0,0,0,.31.55l0.13,0h0.55a1.37,1.37,0,0,1-.92-0.28h0Z" transform="translate(0.01 0)"/><path d="M109.32,127.37a2.73,2.73,0,0,1-.85.13H109a0.72,0.72,0,0,0,.66-0.57l0.11-.57a2.11,2.11,0,0,1-.47,1h0Z" transform="translate(0.01 0)"/><path d="M110.6,122.14l0.81-4.23h0l-0.81,4.22h0Z" transform="translate(0.01 0)"/><path d="M128.55,106l0.25,1.09a0.44,0.44,0,0,1-.29.55l-0.14,0" transform="translate(0.01 0)"/><path d="M109.79,126.36l0.81-4.23Z" transform="translate(0.01 0)"/><path d="M128.3,104.85l0.25,1.12Z" transform="translate(0.01 0)"/><path d="M111.41,117.9l0.22-1.13,0.87-4.28-1,4.85-0.11.56h0Z" transform="translate(0.01 0)"/><path class="b" d="M128.8,107.06L128.55,106l-0.25-1.12-0.13-.57c-0.49-2-1.93-3.17-5.06-3.17h-14.4a0.72,0.72,0,0,0-.67.57h0l-0.22,1.11-0.26,1.31-0.07.37-2.27,11.23-2.16,10.66a2.61,2.61,0,0,0,0,.85,1.37,1.37,0,0,0,.92.28h4.56a2.73,2.73,0,0,0,.85-0.13,2.11,2.11,0,0,0,.47-1l0.81-4.23,0.81-4.22h0l0.11-.56,1-4.85,0.87-4.29a0.73,0.73,0,0,1,.67-0.57h14.34a0.44,0.44,0,0,0,.43-0.57h0Z" transform="translate(0.01 0)"/><path class="b" d="M107.54,104.1l-0.19.94-2.16,10.67,2.27-11.23,0.07-.37h0Z" transform="translate(0.01 0)"/><path class="b" d="M147.26,97.19h-5.69a1.16,1.16,0,0,0-.86.48l-10.15,15.68c-0.17.26-.37,0.23-0.43-0.09l-0.75-3.45a0.74,0.74,0,0,0-.67-0.57h-6.53a0.41,0.41,0,0,0-.4.56l2.93,10.8a2.68,2.68,0,0,1,0,1.12l-1.27,5.23a0.43,0.43,0,0,0,.28.54l0.13,0h6.45a0.76,0.76,0,0,0,.69-0.56l1.27-5.23a3.56,3.56,0,0,1,.47-1l16.48-23.08c0.18-.26.08-0.46-0.22-0.46h-1.73Z" transform="translate(0.01 0)"/><path class="b" d="M95.42,110.71h0a0.68,0.68,0,0,1-.65.6H86.5a0.37,0.37,0,0,1-.39-0.46h0V110.7a5.19,5.19,0,0,1,5.47-3.7c3.41,0,4.07,1.75,3.84,3.73h0v0ZM93,100.64c-10.62,0-13.14,6.8-14.55,13.65s-1.29,13.53,9.7,13.53H98.22a0.73,0.73,0,0,0,.66-0.57L99.32,125l0.09-.45,0.53-2.73a0.45,0.45,0,0,0-.31-0.55l-0.13,0H89.62c-3.93,0-5.1-1.1-4.67-4.34h15.76a0.65,0.65,0,0,0,.58-0.43,0.64,0.64,0,0,0,0-.15h0c2.34-9.32,1.67-15.6-8.37-15.6h0Z" transform="translate(0.01 0)"/><path class="b" d="M42.81,110.68l-0.15.56h0l-1.19,4.45-1.19,4.45a0.78,0.78,0,0,1-.7.56H33.26c-4.79,0-6-3.95-4.79-9.77s3.45-9.66,8.16-10c6.44-.51,7.73,4.26,6.17,9.77h0v0Zm4.33,9.69s3-7.62,3.65-12c0.92-5.91-1.88-14.45-12.68-14.45s-15.41,8.15-17.19,17,0.55,16.76,11.23,16.7H48.46a0.77,0.77,0,0,0,.69-0.57l1.37-5.52a0.43,0.43,0,0,0-.27-0.55l-0.14,0H47.48a0.35,0.35,0,0,1-.37-0.41,0.56,0.56,0,0,1,0-.13h0Z" transform="translate(0.01 0)"/><path class="b" d="M100.31,115.27a0.36,0.36,0,1,1-.36-0.38,0.37,0.37,0,0,1,.36.38h0Z" transform="translate(0.01 0)"/><path class="a" d="M36.71,21.3c-8.34,12-7.3,27.57-.93,40.3,0.15,0.31.31,0.61,0.47,0.91s0.19,0.39.3,0.57l0.16,0.32L37,64l0.61,1L38,65.57c0.23,0.37.47,0.74,0.71,1.1L39,67.13c0.33,0.5.67,1,1,1.47h0l0.17,0.23c0.3,0.42.62,0.83,0.93,1.24l0.35,0.45,0.86,1.06,0.39,0.48c0.39,0.46.79,0.92,1.2,1.37h0v0.05c0.4,0.43.81,0.86,1.22,1.28l0.39,0.39,1,1,0.4,0.38q0.66,0.62,1.33,1.21h0l0.23,0.2L49.71,79l0.5,0.4,1,0.79,0.54,0.41,1.13,0.81,0.41,0.29,0.11,0.08c0.36,0.25.73,0.49,1.1,0.73L55,82.83c0.57,0.36,1.14.71,1.72,1.05l0.48,0.27,1.29,0.73,0.72,0.37,0.93,0.48,0.21,0.1L60.71,86l1.47,0.68,0.31,0.14q0.85,0.37,1.71.71l0.42,0.16c0.53,0.21,1.07.41,1.61,0.6l0.2,0.07c0.59,0.21,1.2.4,1.8,0.59l0.48,0.11a17.5,17.5,0,0,0,1.86.52c40.31,7.35,52-24.22,52-24.22-9.86,12.81-27.28,16.19-43.86,12.43-0.63-.14-1.23-0.34-1.85-0.52l-0.46-.14q-0.9-.27-1.78-0.58l-0.24-.09-1.57-.58-0.44-.17L70.71,75l-0.34-.15-1.43-.66L68.55,74l-1.1-.56L66.71,73c-0.45-.24-0.89-0.49-1.32-0.74L64.94,72c-0.58-.34-1.15-0.7-1.72-1.06l-0.51-.26-1.23-.82-0.4-.28-1.16-.84-0.51-.39-1-.82-0.47-.37c-0.44-.36-0.87-0.73-1.3-1.1L56.5,66l-1.37-1.25-0.42-.4c-0.33-.32-0.66-0.64-1-1L53.37,63q-0.62-.63-1.21-1.28l-0.06-.06c-0.42-.46-0.83-0.92-1.22-1.39l-0.32-.38c-0.3-.36-0.59-0.72-0.88-1.09l-0.32-.4c-0.35-.45-0.69-0.9-1-1.36-9.18-12.53-12.48-29.8-5.14-44" transform="translate(0.01 0)"/><path class="a" d="M62.56,11.21c-6,8.67-5.7,20.29-1,29.46a38.38,38.38,0,0,0,2.67,4.45A21.17,21.17,0,0,0,67.33,49c0.43,0.48.89,0.94,1.35,1.4L69,50.75c0.45,0.44.91,0.87,1.38,1.28h0.06c0.52,0.46,1.06.9,1.61,1.34l0.37,0.29c0.55,0.42,1.11.84,1.69,1.23h0l0.77,0.51,0.37,0.24q0.62,0.4,1.25.77l0.18,0.1,1.11,0.62,0.39,0.21L79,57.74l0.12,0c0.53,0.26,1.07.51,1.61,0.75l0.36,0.15,1.32,0.54L83,59.44l1.21,0.42L84.73,60a13.26,13.26,0,0,0,1.76.51c31.12,5.16,38.31-18.81,38.31-18.81-6.48,9.33-19,13.78-32.4,10.31a8.23,8.23,0,0,1-1.69-.43l-0.53-.17L88.92,51l-0.56-.21L87,50.26l-0.32-.13q-0.82-.36-1.62-0.75L84.24,49l-0.47-.24-1-.58L82.5,48l-1.25-.76L80.87,47l-0.81-.53q-0.85-.6-1.68-1.23L78,44.94A37.53,37.53,0,0,1,65.29,26.81C63,19.37,63.48,11,67.49,4.25" transform="translate(0.01 0)"/><path class="a" d="M84.32,3.67a18.14,18.14,0,0,0-1.44,17.5A24.64,24.64,0,0,0,97,34.39l0.77,0.27,0.34,0.11a9.73,9.73,0,0,0,1.11.32c17.18,3.32,21.85-8.82,23.09-10.6-4.08,5.88-10.94,7.29-19.36,5.25a16.71,16.71,0,0,1-2-.63,24.27,24.27,0,0,1-6.66-3.59C86.71,19.79,82.07,8.88,87,0" transform="translate(0.01 0)"/></svg>