<svg xmlns="http://www.w3.org/2000/svg" viewBox="0 0 512 512"><title>infoman</title><path class="a" d="M205.8,296.1s-7.2,18.4-7.1,18.5l11.4,16.2h25.1l11.4-16.2c-0.1-.3-7.1-18.5-7.1-18.5C238.6,296.3,206.6,296.3,205.8,296.1ZM141,188.7c14.7,42.9,42.3,75.5,81.6,75.5,37.8,0,65.9-32.1,81-74.9,30.6-30.8,23.4-53.9,16.3-64.9C336.5,44.8,285.8,0,219.7,0,101.3,0,122,129.7,122,129.7h0.4C116.9,142,115.4,162.5,141,188.7Zm49.5-96.3-8.7,32.2c42.2-12.9,47.9-20,54.6-24.8a156.61,156.61,0,0,0,17.5-14.7A52.59,52.59,0,0,0,262,95.9c3.1,3.3,7.7-29.8,7.7-29.8S281.4,86.2,283,92.7c1.2,4.6,8.5,23.3,12.5,25-1.5,61.5-29.1,125.9-73,125.9-40.9,0-67.6-55.8-72.3-113.2C161.5,129.5,190.5,92.4,190.5,92.4ZM428,235.9c7.9,0,12.7-5.3,12.7-11.8-0.2-6.7-4.8-11.8-12.4-11.8s-12.6,5.1-12.6,11.8C415.7,230.6,420.5,235.9,428,235.9Zm0.2,135A105.33,105.33,0,0,1,323,265.7c0-2,.5-3.8.6-5.8L293.9,249,286,268.2l16.6,6.1L242,474.3,234.4,340H210.8l-7.6,131.8L143.3,274l15.9-5.8-8-19.2L92.4,270.7l-0.7.3c-0.7.4-56.8,27-81.4,91.6A175.31,175.31,0,0,0,0,407,287.71,287.71,0,0,0,222.4,512h0.4c4.8,0,9.6-.1,14.4-0.4h0.3A287.56,287.56,0,0,0,445.1,406.9,175.34,175.34,0,0,0,437,370,79.32,79.32,0,0,1,428.2,370.9Zm-71.8,59.2c-24.6,9.9-49.9,11.6-64.5,11.6-4.9,0-8.6-.2-10.6-0.4V429c0.7,0,42.5,4.9,75.1-11.8v12.9ZM428.2,182A83.8,83.8,0,1,0,512,265.8,83.78,83.78,0,0,0,428.2,182Zm0,149.1a65.3,65.3,0,1,1,65.3-65.3A65.25,65.25,0,0,1,428.2,331.1Zm11.7-85.9H407.6v13.7h8.7v48.9H407v13.1h9.3V321h23.6v-0.1h7.7V307.8h-7.7V245.2Z" transform="translate(0 0)"/></svg>