<svg xmlns="http://www.w3.org/2000/svg" viewBox="0 0 37.82 30.89"><title>logo</title><path class="a" d="M37.22,20.23l-2.38-2-7.57-6L23.43,14a0.58,0.58,0,0,0-.06,1l3,2.25h0l3.21,2.63a0.58,0.58,0,0,1-.16,1L19.23,25.43l2.58,3,12.3-4.77,2.82-1.28a1.2,1.2,0,0,0,.29-2.2" transform="translate(0 -0.01)"/><path class="b" d="M23.76,2.48L10.2,28.41" transform="translate(0 -0.01)"/><path class="a" d="M21.58,1.23L8.06,27.17c-1.48,2.77,2.8,5.32,4.27,2.49L25.89,3.73C27.37,1,23.1-1.6,21.58,1.23h0Z" transform="translate(0 -0.01)"/><path class="a" d="M0.47,8.64l1.94,1.87,6.17,5.74,3.26-1.69A0.61,0.61,0,0,0,12,13.71h0l-0.07-.08L9.47,11.49h0L6.87,9A0.61,0.61,0,0,1,7,8l8.63-4.5L13.58,0.58,3.17,5.27,0.77,6.53a1.24,1.24,0,0,0-.3,2.12" transform="translate(0 -0.01)"/></svg>