<svg xmlns="http://www.w3.org/2000/svg" viewBox="0 0 511.98 251.23"><title>social</title><path class="a" d="M470.54,298.67a41.36,41.36,0,0,0-34.85,19.06l-90.12-43.22A25,25,0,1,0,299,279.44l-20.19,17.72-48-30.67a25.08,25.08,0,0,0-.57-17.81L271,220.36a21.56,21.56,0,0,0,35.72-23.23l20.85-13.3a17.25,17.25,0,0,0,26.56-5.1l48.66,10.78,2.31-10.45-49.1-10.87a19.14,19.14,0,0,0-.45-2.21l14.09-9a15.4,15.4,0,1,0-4.82-11.16c0,0.5.1,1,.14,1.45L349.71,157a17.35,17.35,0,0,0-28.32,13.54,18,18,0,0,0,.55,4.18l-21.91,14a21.33,21.33,0,0,0-28.91,2.63l-29.55-6.66c0-.14,0-0.27,0-0.41a18.14,18.14,0,0,0-.23-2.29l26.54-13.21a16.53,16.53,0,1,0-4.19-10.92c0,0.34.09,0.66,0.11,1l-27,13.46a17.35,17.35,0,0,0-27.3,2.56l-11.75-4.7c0-.15.05-0.29,0.05-0.45a16.56,16.56,0,0,0-28.91-11.07l-7.28-2.91A14.47,14.47,0,1,0,158.4,166l6.3,2.52c0,0.41-.12.81-0.12,1.23A16.55,16.55,0,0,0,194,180.2l12.84,5.13c0,0.61.08,1.23,0.18,1.83l-43.37,21.6a20.87,20.87,0,0,0-37.3,13,20.59,20.59,0,0,0,.75,5.25L54.75,263A30,30,0,1,0,60,279.91a29.67,29.67,0,0,0-.89-7.11l73.22-36.46a20.74,20.74,0,0,0,35.63-17.76l44-21.9A17.35,17.35,0,0,0,238,194.85l28,6.32a22.31,22.31,0,0,0-.55,4.73,21.78,21.78,0,0,0,.61,4.92l-41.71,28.94a26.37,26.37,0,1,0,1.22,36.07l44.91,28.69-10.71,9.4a35.72,35.72,0,1,0,6.72,8.35l39.23-34.44a24.58,24.58,0,0,0,35.07-3.73l90.3,43.31A41.46,41.46,0,1,0,470.54,298.67Z" transform="translate(0 -130.39)"/></svg>