<?xml version="1.0" encoding="utf-8"?><!DOCTYPE svg PUBLIC "-//W3C//DTD SVG 1.1//EN" "http://www.w3.org/Graphics/SVG/1.1/DTD/svg11.dtd"><svg xmlns="http://www.w3.org/2000/svg" xmlns:xlink="http://www.w3.org/1999/xlink"><symbol id="HTML5" viewBox="0 0 512 512"><style>.ast0{fill:#e44d26}.ast1{fill:#f16529}.ast2{fill:#ebebeb}.ast3{fill:#fff}</style><title>HTML5 Logo</title><path class="ast0" d="M107.6 470.9l-33-370.3h362.8l-33.1 370.2L255.8 512z"/><path class="ast1" d="M256 480.5l120-33.3 28.3-316.3H256z"/><path class="ast2" d="M256 268.2h-60.1l-4.1-46.5H256v-45.4H142.1l1.1 12.2 11.2 125.1H256zM256 386.2h-.2l-50.6-13.7-3.2-36.2h-45.6l6.4 71.3 93 25.9.2-.1z"/><path class="ast3" d="M108.4 0h23.1v22.8h21.1V0h23.1v69h-23.1V45.9h-21.1V69h-23.1V0zM206 22.9h-20.3V0h63.7v22.9h-20.3V69H206V22.9zM259.5 0h24.1l14.8 24.3L313.2 0h24.1v69h-23V34.8l-15.9 24.5h-.4l-15.9-24.5V69h-22.6V0zM348.7 0h23.1v46.2h32.5V69h-55.5V0zM255.8 268.2v45.4h56l-5.3 58.9-50.7 13.7v47.2l93.1-25.8.7-7.6 10.7-119.6 1.1-12.2h-12.2zM255.8 176.3v45.4H365.5l.9-10.2 2.1-23 1.1-12.2z"/></symbol><symbol viewBox="0 0 511.99 270.49" id="arrow"><title>down</title><path class="ba" d="M266.21 266.25L507.77 24.76a14.51 14.51 0 1 0-20.53-20.51L256 235.49 24.77 4.25a14.54 14.54 0 0 0-20.56.06A14.54 14.54 0 0 0-.02 14.48a14.13 14.13 0 0 0 4.29 10.19l241.5 241.58a14.41 14.41 0 0 0 20.38.07z"/></symbol><symbol id="css3" viewBox="0 0 255.1 360.1"><style>.cst0{fill:#264de4}.cst1{fill:#2965f1}.cst2{fill:#ebebeb}.cst3{fill:#fff}</style><title>css3</title><path class="cst0" d="M127.4 360.1L23.2 331.2 0 70.8h255.1l-23.2 260.4-104.5 28.9z"/><path class="cst1" d="M212 314.5L231.9 92H127.6v246l84.4-23.5z"/><path class="cst2" d="M53.2 188.6l2.9 31.9h71.5v-31.9H53.2zM47.5 124l2.9 31.9h77.2V124H47.5zM127.6 271.6h-.1L91.8 262l-2.3-25.5h-32l4.5 50.2 65.4 18.2h.1l.1-33.3z"/><path class="cst3" d="M60 0h38.7v16.2H76.2v16.2h22.5v16.2H60V0zM106.4 0h38.7v14.1h-22.5v2.8h22.5v32.3h-38.7V34.5H129v-2.8h-22.5V0h-.1zM152.9 0h38.7v14.1H169v2.8h22.5v32.3h-38.7V34.5h22.5v-2.8h-22.5V0h.1zM201.7 188.6l5.8-64.6h-80v31.9h45l-2.9 32.7h-42.1v31.9h39.3l-3.7 41.4-35.6 9.6v33.2l65.5-18.1.5-5.4 7.5-84.1.7-8.5z"/></symbol><symbol viewBox="0 0 90 90" id="fb"><path d="M90 15.001C90 7.119 82.884 0 75 0H15C7.116 0 0 7.119 0 15.001v59.998C0 82.881 7.116 90 15.001 90H45V56H34V41h11v-5.844C45 25.077 52.568 16 61.875 16H74v15H61.875C60.548 31 59 32.611 59 35.024V41h15v15H59v34h16c7.884 0 15-7.119 15-15.001V15.001z" fill="#FFF"/></symbol><symbol viewBox="0 0 438.536 438.536" id="github"><g fill="#FFF"><path d="M158.173 352.599c-3.049.568-4.381 1.999-3.999 4.281.38 2.283 2.093 3.046 5.138 2.283 3.049-.76 4.38-2.095 3.997-3.997-.378-2.092-2.091-2.95-5.136-2.567zM141.898 354.885c-3.046 0-4.568 1.041-4.568 3.139 0 2.474 1.619 3.518 4.853 3.138 3.046 0 4.57-1.047 4.57-3.138 0-2.471-1.619-3.522-4.855-3.139zM119.629 354.022c-.76 2.095.478 3.519 3.711 4.284 2.855 1.137 4.664.568 5.424-1.714.572-2.091-.666-3.61-3.711-4.568-2.856-.759-4.663-.102-5.424 1.998z"/><path d="M414.41 24.123C398.326 8.042 378.964 0 356.309 0H82.225C59.577 0 40.208 8.042 24.123 24.123 8.042 40.207 0 59.576 0 82.225v274.088c0 22.65 8.042 42.017 24.123 58.098 16.084 16.084 35.454 24.126 58.102 24.126h63.953c4.184 0 7.327-.144 9.42-.424 2.092-.288 4.184-1.526 6.279-3.717 2.096-2.187 3.14-5.376 3.14-9.562 0-.568-.05-7.046-.144-19.417-.097-12.375-.144-22.176-.144-29.41l-6.567 1.143c-4.187.76-9.469 1.095-15.846.999-6.374-.096-12.99-.76-19.841-1.998-6.855-1.239-13.229-4.093-19.13-8.562-5.898-4.477-10.085-10.328-12.56-17.559l-2.856-6.571c-1.903-4.373-4.899-9.229-8.992-14.554-4.093-5.332-8.232-8.949-12.419-10.852l-1.999-1.428c-1.331-.951-2.568-2.098-3.711-3.429-1.141-1.335-1.997-2.669-2.568-3.997-.571-1.335-.097-2.43 1.427-3.289 1.524-.855 4.281-1.279 8.28-1.279l5.708.855c3.808.76 8.516 3.042 14.134 6.851 5.614 3.806 10.229 8.754 13.846 14.843 4.38 7.806 9.657 13.75 15.846 17.843 6.184 4.097 12.419 6.143 18.699 6.143s11.704-.476 16.274-1.424c4.565-.954 8.848-2.385 12.847-4.288 1.713-12.751 6.377-22.559 13.988-29.41-10.848-1.143-20.602-2.854-29.265-5.14-8.658-2.286-17.605-5.995-26.835-11.136-9.234-5.14-16.894-11.512-22.985-19.13-6.09-7.618-11.088-17.61-14.987-29.978-3.901-12.375-5.852-26.652-5.852-42.829 0-23.029 7.521-42.637 22.557-58.814-7.044-17.32-6.379-36.732 1.997-58.242 5.52-1.714 13.706-.428 24.554 3.855 10.85 4.286 18.794 7.951 23.84 10.992 5.046 3.042 9.089 5.614 12.135 7.71 17.705-4.949 35.976-7.423 54.818-7.423 18.841 0 37.115 2.474 54.821 7.423l10.849-6.852c7.426-4.57 16.18-8.757 26.269-12.562 10.088-3.806 17.795-4.854 23.127-3.14 8.562 21.51 9.328 40.922 2.279 58.241 15.036 16.179 22.559 35.786 22.559 58.815 0 16.18-1.951 30.505-5.852 42.969-3.898 12.467-8.939 22.463-15.13 29.981-6.184 7.519-13.894 13.843-23.124 18.986-9.232 5.137-18.178 8.853-26.84 11.132-8.661 2.286-18.414 4.004-29.263 5.147 9.891 8.562 14.839 22.072 14.839 40.538v68.238c0 3.237.472 5.852 1.424 7.851.958 1.998 2.478 3.374 4.571 4.141 2.102.76 3.949 1.235 5.571 1.424 1.622.191 3.949.287 6.995.287h63.953c22.648 0 42.018-8.042 58.095-24.126 16.084-16.084 24.126-35.454 24.126-58.102V82.225c-.002-22.649-8.044-42.021-24.125-58.102z"/><path d="M86.793 319.195c-1.331.948-1.141 2.471.572 4.565 1.906 1.902 3.427 2.189 4.57.855 1.331-.948 1.141-2.471-.575-4.569-1.902-1.71-3.424-1.997-4.567-.851zM77.374 312.057c-.57 1.335.096 2.478 1.999 3.426 1.521.955 2.762.767 3.711-.568.57-1.335-.096-2.478-1.999-3.433-1.903-.572-3.14-.38-3.711.575zM95.646 330.331c-1.715.948-1.715 2.666 0 5.137 1.713 2.478 3.328 3.142 4.853 1.998 1.714-1.334 1.714-3.142 0-5.427-1.521-2.468-3.14-3.046-4.853-1.708zM105.641 343.174c-1.714 1.526-1.336 3.327 1.142 5.428 2.281 2.279 4.185 2.566 5.708.849 1.524-1.519 1.143-3.326-1.142-5.42-2.281-2.28-4.185-2.568-5.708-.857z"/></g></symbol><symbol viewBox="0 0 510 510" id="gmail"><path d="M459 51H51C22.95 51 0 73.95 0 102v306c0 28.05 22.95 51 51 51h408c28.05 0 51-22.95 51-51V102c0-28.05-22.95-51-51-51zm0 357h-51V183.6l-153 96.9-153-96.9V408H51V102h30.6L255 209.1 428.4 102H459v306z" fill="#FFF"/></symbol><symbol viewBox="0 0 256 344" preserveAspectRatio="xMidYMid" id="grunt"><path d="M17.297 83.373s5.875 22.658 6.713 30.212c.84 7.552-15.105 24.336-15.105 32.728 0 8.393 3.352 23.498 21.817 31.052 18.465 7.553 20.98 26.853 20.98 38.605 0 11.748-6.713 34.404-6.713 34.404S40.795 306.6 63.451 316.67c22.656 10.069 17.623 10.069 22.656 10.069 5.034 0 41.96 15.11 63.778 9.234 21.82-5.874 27.69-12.587 27.69-12.587s21.821 1.677 28.534-17.627c6.716-19.3 10.91-59.58 8.391-78.043-2.518-18.465-5.873-42.797 9.23-51.19 15.11-8.393 31.052-18.46 28.534-26.854-2.518-8.393-15.941-20.142-15.941-20.142s-3.358-20.978-.842-26.014c2.516-5.035 17.623-17.626 9.23-26.855-8.387-9.23-23.497-9.23-23.497-9.23l-19.3 1.676s-32.728-29.37-75.527-27.692C83.59 43.093 56.734 69.107 56.734 69.107s-14.265-5.035-26.854 0c-12.589 5.037-15.099-.001-12.583 14.266z" fill="#FBA919"/><path d="M93.978 208.32s-16.619 25.41-28.809 43.443c-1.886 2.79 12.19 2.983 12.19 2.983l16.619-46.427zM101.89 155.637s-5.01 12.498-7.754 19.123c-2.978 7.203-14.336 10.786-14.336 10.786s5.887-6.175 5.887-21.818c0-6.562 8.473-9.172 8.473-9.172l7.73 1.08z" fill="#E78724"/><path d="M96.83 162.703s-10.264 12.218-29.32 5.375c-19.061-6.84-21.015-31.278-21.015-38.12 0-6.842 36.164 6.842 41.053 9.775 4.888 2.933 14.168 14.66 9.281 22.97zM24.843 32.153s17.593-3.424 29.32 5.863c11.733 9.285 15.15 16.617 15.15 16.617l-19.769 15.67s-9.552-4.428-12.484-17.136c-2.932-12.707-.977-18.57-12.217-21.014z" fill="#E78724"/><path d="M91.698 127.413c-7.574-10.752-20.057-15.442-30.024-16.219-16.994-1.329-25.062 4.679-25.062 4.679s27.832 1.178 35.854 11.714c14.934 19.61 36.721 21.203 40.205 16.896-4.029.201-8.46-1.795-13.204-6.28-2.963-2.806-5.365-7.377-7.769-10.79zM44.714 165.431s-30.88-10.616-25.011-21.365c5.863-10.753 1.196-16.612 1.196-16.612S3.656 140.326 8.049 154.01c2.701 8.398 7.231 14.479 32.107 26.137 11.932 22.163 2.464 62.055 3.031 62.242.945.314 16.753-7.813 15.674-45.135-.33-11.46-1.246-27.106-14.147-31.822zM85.18 51.276c-12.948 6.578-30.687 15.739-30.687 15.739l6.982 3.493c-.667 1.079-.988 1.723-.988 1.723l7.166 3.258s17.493 12.672 28.21 20.82C92.29 85.303 81.8 68.016 81.8 68.016s-2.972-7.943 3.38-16.741zM128.196 319.42c-39.8 0-53.28-20.204-53.28-20.204l6.22 15.146c2.35 6.552 27.43 26.942 47 26.942" fill="#E78724"/><path d="M79.277 285.564s3.662 22.378 18.324 22.378c12.459 0 16.13-18.903 16.13-22.81l-34.454.432zM54.878 251.814c1.303-3.586 5.864-18.084 7.329-31.278 1.756-15.803 1.116-38.915 1.116-38.915s-3.912 15.15-7.333 17.598c-3.419 2.442-9.774 19.057-9.774 19.057s-3.404 24.736-5.024 33.05c4.484.897 8.258-1.744 13.686.488zM19.472 153.766s8.306-2.935 10.752-21.015c2.443-18.083-2.934-33.722-2.934-33.722s.488 24.924-2.443 29.813c-2.934 4.885-5.375 6.352-8.798 12.707-3.423 6.356 1.465 10.261 3.423 12.217z" fill="#E78724"/><path d="M29.39 36.43l-1.696-1.074c-5 .169 1.696 1.074 1.696 1.074z" fill="#FDC168"/><path d="M91.94 45.922s-7.816-1.302-11.728-7.166C76.3 32.891 65.225 21.16 47.568 21.03c-17.656-.132-35.124 4.693-35.124 4.693l15.248 9.635c1.613-.053 4.433-.031 9.096.125 19.137.636 22.083 19.564 22.083 19.564l67.442-9.287" fill="#FBA919"/><path d="M98.459 150.469s-9.124 9.123-23.136 6.189c-14.011-2.931-22.484-9.122-23.135-19.875-.651-10.752 2.935-14.987 2.935-14.987s15.637 4.89 23.135 11.407c7.494 6.515 13.032 16.941 20.2 17.266z" fill="#FFF"/><path d="M87.417 147.21s-7.913 3.614-16.757.67c-11.577-3.862-12.348-15.902-12.348-15.902s-7.103 20.843 12.81 24.855c15.971 3.217 25.417-6.038 25.417-6.038l-9.122-3.586z" fill="#C9C9C9"/><path d="M93.04 41.5c-.851-17.874 13.802-32.11 18.88-32.717.28 3.029-.284 14.844 4.792 18.477C118.19 17.61 123.187 6.97 142.92 0c-4.226 11.209-.565 20.598 1.18 24.95 13.474-12.23 22.553-10.21 22.553-10.21s-9.363 16.156-5.7 26.757c-27.05-2.121-67.781 2.874-67.913.004zM35.694 68.728c-6.455-5.355-1.644-10.324-2.154-16.408-.277-3.237-.533-6.291-1.6-7.976C26 34.966 11.989 32.12 11.849 32.09l-6.576-1.288 4.353-5.092c.564-.66 18.44-17.717 46.105-8.785 19.352 6.241 33.678 27.405 34.211 28.26l-9.703 4.563c-.114-.18-11.44-20.074-28.042-25.427-13.42-4.33-25.79-.21-31.087 2.49 5.632 2.248 12.995 6.343 17.432 13.348 2.093 3.309 2.447 7.474 2.788 11.508.45 5.34.87 10.381 4.8 13.646l-10.436 3.415zM18.456 146.893s8.131-10.084 10.54-29.704c.946-7.729-.735-22.972-3.424-28.836.489 14.417-3.176 28.836-3.176 28.836s-2.471 26.771-3.94 29.704z" fill="#463014"/><path d="M61.334 58.544c-.005-.021-2.61-11.405-9.832-17.152-10.188-8.104-22.627-3.793-22.747-3.755l-1.806-5.58c.602-.195 14.82-4.675 27.923 4.536 13.182 9.263 14.764 17.66 14.901 18.587l-8.44 3.364zM43.995 139.661s-4.266-6.107-3.499-12.823c.382-3.317 1.92-6.722 4.663-7.93 5.1-2.24 7.36 3.54 7.36 3.54s-7.177 1.771-8.524 17.213z" fill="#463014"/><path d="M90.836 148.97c.178.332.27.519.27.519s-13.307 9.986-26.943-.148c-7.3-5.43-6.61-18.859-4.374-24.554 5.816 1.318 10.748 3.693 14.87 6.467-5.21-4.65-9.77-8.073-9.758-8.152l-5.922-1.676-11.51-3.947c-.147.878-4.345 20.556 7.773 33.964 5.37 5.946 30.55 19.26 42.506-3.506l-6.912 1.032z" fill="#463014"/><path d="M89.59 150.433c7.491 11.402 26.393 4.886 26.068-7.168 0 0-12.63 6.97-23.789-5.864-6.515-7.492-27.39-28.151-55.7-21.286 19.55 4.3 45.433 22.16 53.42 34.318z" fill="#463014"/><path d="M33.525 182.613c1.802 1.041 8.158 7.624 8.162 17.468 0 4.937-.491 29.737-2.935 44.888 3.675 2.388 6.235 2.896 9.895 5.33 1.832-17.547 3.146-42.979 2.534-53.246-.7-11.703-6.967-19.557-12.778-22.906-1.82-1.047-3.721-2.076-5.636-3.111-9.953-5.378-20.246-10.942-20.246-20.441 0-7.432 2.89-9.756 5.948-12.22l.33-.267c2.03-1.64 4.326-3.5 5.687-6.553 3.713-8.348 4.32-29.615 0-35.013-2.154-2.69-7.924-11.736-6.265-17.815.632-2.32 2.093-4.04 4.472-5.258 2.517-1.29 5.918-1.943 10.104-1.943 8.222 0 17.342 2.503 22.047 3.993 16.813 5.329 37.101 20.693 42.916 25.275.167.128.265.203.283.215l3.721 2.588-2.327-3.894c-.144-.243-14.883-24.479-41.238-33.365-5.127-1.729-15.2-4.63-25.1-4.63-5.893 0-10.895 1.03-14.854 3.057-4.827 2.469-8.095 6.408-9.453 11.388-3.328 12.207 7.511 25.798 7.88 26.233 1.264 2.256 1.8 18.643-1.12 25.201-.4.906-1.502 1.795-2.895 2.92-.437.353-.925.72-1.442 1.112C7.096 134.728.868 139.425.868 150.252c0 14.814 15.014 22.846 27.08 29.304 1.98 1.065 3.869 2.073 5.577 3.057z" fill="#463014"/><path d="M35.694 68.728c-6.455-5.355-1.644-10.324-2.154-16.408-.277-3.237-.533-6.291-1.6-7.976C26 34.966 11.989 32.12 11.849 32.09l-6.576-1.288 4.353-5.092c.564-.66 18.44-17.717 46.105-8.785 19.352 6.241 33.678 27.405 34.211 28.26l-9.703 4.563c-.114-.18-11.44-20.074-28.042-25.427-13.42-4.33-25.79-.21-31.087 2.49 5.632 2.248 12.995 6.343 17.432 13.348 2.093 3.309 2.447 7.474 2.788 11.508.45 5.34.87 10.381 4.8 13.646l-10.436 3.415z" fill="#463014"/><path d="M35.484 69.825l-.417-.346c-4.786-3.972-3.937-7.884-3.115-11.67.374-1.747.768-3.553.608-5.406-.261-3.115-.512-6.054-1.45-7.537-5.655-8.93-19.323-11.79-19.458-11.818L3.44 31.437l5.444-6.365c.1-.12 11.578-11.706 31.017-11.706 5.3 0 10.729.882 16.13 2.627 20.198 6.512 34.606 28.456 34.742 28.673l.583.932-11.478 5.398-.46-.73c-1.236-2.106-12.119-20.054-27.515-25.02-3.781-1.22-7.765-1.837-11.837-1.837-7.376 0-13.357 2.01-16.54 3.36 5.319 2.395 11.77 6.426 15.85 12.863 2.22 3.506 2.58 7.791 2.932 11.932.432 5.148.84 9.99 4.452 12.988l1.363 1.13-12.638 4.143z" fill="#463014"/><path d="M61.334 58.544c-.005-.021-2.61-11.405-9.832-17.152-10.188-8.104-22.627-3.793-22.747-3.755l-1.806-5.58c.602-.195 14.82-4.675 27.923 4.536 13.182 9.263 14.764 17.66 14.901 18.587l-8.44 3.364z" fill="#463014"/><path d="M60.633 59.875l-.254-1.12c-.026-.11-2.581-11.104-9.488-16.596-3.937-3.134-8.684-4.726-14.102-4.726-4.229 0-7.372 1.01-7.715 1.129l-.933.31-2.423-7.443.929-.3c.416-.133 4.19-1.31 9.528-1.31 7.042 0 13.7 2.067 19.262 5.973C68.95 45.287 70.6 54.068 70.74 55.037l.119.766-10.226 4.072zM36.79 35.482c5.788 0 11.09 1.78 15.32 5.144 6.133 4.885 9.018 13.508 9.89 16.6l6.648-2.65c-.602-2.347-3.252-9.391-14.336-17.183-5.303-3.727-11.403-5.615-18.136-5.615-3.695 0-6.565.588-7.983.946l1.199 3.706c1.39-.374 4.066-.948 7.398-.948zM96.988 302.574c-2.888 0-5.835-1.048-7.877-2.816-1.564-1.348-6.852-6.205-9.184-12.155-.87-2.225-.675-4.005.588-5.286.87-.878 2.677-1.927 6.344-1.927l2.609-.004c3.109-.004 8.343-.004 12.817-.004h4.29c2.79 0 4.79.604 5.939 1.78 1.477 1.517 1.004 3.447.59 4.463-.718 1.78-3.693 7.571-8.729 12.955-1.803 1.93-4.427 2.994-7.387 2.994zM100.015 151.103l-10.426-.67s2.665 4.698 4.392 10.774c1.95 6.873-1.783 16.918-1.783 16.918s13.902-15.74 7.817-27.022zM87 330.104c-37.109-2.852-50.165-37.917-50.165-45.22l9.691.004-4.845-.004h4.845c.049 3.157 9.91 33.152 41.216 35.56l-.742 9.66z" fill="#463014"/><path d="M76.572 267.28c-.58-3.351-.64-6.53.067-9.653-2.82-2.12-7.88-2.907-11.677-4.138-3.105-1.965-18.994 2.014-30.52-11.936-14.443-17.468-11.404-27.897-11.404-27.897-3.703 4.114-7.292 2.546-12.936 21.73-5.653 19.188 2.653 32.564 18.133 45.993 7.313 6.343 17.651 8.957 26.544 9.957-2.979-2.99 5.088-3.29 10.648-5.37-.443-4.49.3-8.848 3.647-12.357 2.018-2.116 4.615-3.38 7.31-4.388.15-.348.277-.67.42-1.004a8.578 8.578 0 0 1-.232-.937z" fill="#FFF"/><path d="M65.353 285.849c-.322-.943-.565-1.903-.803-2.87-.257-1.055-1.537-4.047.04-.631-.405-.875-.67-1.776-.865-2.684-25.07-.032-46.88-17.245-42.666-53.432-3.282-4.357-7.878 8.786-7.878 8.786S.63 271.46 33.044 285.584c10.8 4.71 20.345 8.087 22.597 6.724 4.691.953 8.925-2.317 10.513-4.468-.297-.66-.569-1.322-.801-1.991z" fill="#C9C9C9"/><path d="M76.12 262.033c.039-3.054.663-6.013 2.14-8.96.103-.203.222-.398.333-.596-9.647-.083-20.757-1.006-30.218-4.793-10.399-4.16-23.407-18.39-25.642-35.11 0 0-19.584 15.112-13.83 47.459 5.402 30.373 30.819 40.275 59.806 41.95.016-.196-3.26-6.962-2.225-11.105-16.46 1.196-34.866-5.163-43.751-19.783-8.135-13.382-5.853-36.228-2.51-39.576 8.155 25.732 37.499 30.963 55.897 30.514z" fill="#463014"/><path d="M79.157 243.612c-5.216 15.307-15.87 27.696-15.87 27.696s14.656-.667 15.465-3.26c.599-1.912 13.234-31.49 18.084-66.14-4.562 7.495-17.232 40.393-17.679 41.704z" fill="#463014"/><path d="M162.194 208.32s16.615 25.41 28.809 43.443c1.886 2.79-12.194 2.983-12.194 2.983l-16.615-46.427zM154.28 155.637s5.01 12.498 7.75 19.123c2.98 7.203 14.336 10.786 14.336 10.786s-5.886-6.175-5.886-21.818c0-6.562-8.472-9.172-8.472-9.172l-7.728 1.08z" fill="#E78724"/><path d="M159.34 162.703s10.263 12.218 29.325 5.375c19.062-6.842 21.014-31.278 21.014-38.12 0-6.842-36.164 6.842-41.053 9.775-4.888 2.933-14.172 14.66-9.286 22.97zM231.328 32.153s-17.593-3.424-29.325 5.863c-11.727 9.285-15.15 16.617-15.15 16.617l19.77 15.67s9.556-4.43 12.488-17.137c2.931-12.706.977-18.57 12.217-21.013z" fill="#E78724"/><path d="M164.473 127.413c7.574-10.752 20.053-15.442 30.024-16.219 16.995-1.329 25.059 4.679 25.059 4.679s-27.832 1.178-35.856 11.714c-14.935 19.61-36.714 21.203-40.198 16.896 4.028.201 8.462-1.795 13.202-6.28 2.962-2.806 5.366-7.377 7.769-10.79zM211.457 165.431s30.877-10.616 25.012-21.365c-5.863-10.753-1.2-16.612-1.2-16.612s17.247 12.872 12.85 26.555c-2.701 8.398-7.231 14.479-32.107 26.137-11.932 22.163-2.464 62.055-3.028 62.242-.946.314-16.752-7.813-15.673-45.135.328-11.46 1.245-27.106 14.146-31.822zM170.992 51.276c12.944 6.578 30.686 15.739 30.686 15.739l-6.98 3.493c.666 1.079.988 1.723.988 1.723l-7.166 3.258s-17.494 12.672-28.212 20.82c3.57-11.005 14.06-28.292 14.06-28.292s2.978-7.943-3.376-16.741zM127.977 319.42c39.793 0 53.274-20.204 53.274-20.204l-6.216 15.146c-2.35 6.552-27.433 26.942-46.997 26.942" fill="#E78724"/><path d="M176.894 285.564s-3.666 22.378-18.324 22.378c-12.456 0-16.129-18.903-16.129-22.81l34.453.432zM201.293 251.814c-1.303-3.586-5.864-18.084-7.333-31.278-1.756-15.803-1.112-38.915-1.112-38.915s3.91 15.15 7.328 17.598c3.424 2.442 9.775 19.057 9.775 19.057s3.403 24.736 5.023 33.05c-4.482.897-8.252-1.744-13.681.488zM236.702 153.766s-8.31-2.935-10.752-21.015c-2.443-18.083 2.933-33.722 2.933-33.722s-.491 24.924 2.443 29.813c2.934 4.887 5.376 6.352 8.798 12.707 3.418 6.354-1.469 10.261-3.422 12.217z" fill="#E78724"/><path d="M226.78 36.43l1.699-1.074c5.001.169-1.699 1.074-1.699 1.074z" fill="#FDC168"/><path d="M164.227 45.922s7.821-1.302 11.729-7.166c3.91-5.865 14.99-17.596 32.648-17.727 17.656-.132 35.124 4.693 35.124 4.693l-15.249 9.635c-1.613-.053-4.433-.031-9.1.125-19.134.636-22.08 19.564-22.08 19.564l-67.44-9.287" fill="#FBA919"/><path d="M157.712 150.469s9.124 9.123 23.133 6.189c14.012-2.931 22.484-9.122 23.136-19.875.65-10.752-2.932-14.987-2.932-14.987s-15.642 4.89-23.135 11.407c-7.494 6.517-13.032 16.941-20.202 17.266z" fill="#FFF"/><path d="M168.751 147.21s7.916 3.614 16.757.67c11.58-3.862 12.351-15.902 12.351-15.902s7.099 20.843-12.814 24.855c-15.968 3.217-25.416-6.038-25.416-6.038l9.122-3.586z" fill="#C9C9C9"/><path d="M220.476 68.728c6.455-5.355 1.648-10.324 2.158-16.408.272-3.237.528-6.291 1.596-7.976 5.94-9.378 19.951-12.224 20.095-12.254l6.578-1.288-4.355-5.092c-.564-.66-18.44-17.717-46.11-8.785-19.348 6.241-33.673 27.405-34.206 28.26l9.7 4.563c.117-.18 11.444-20.074 28.046-25.427 13.42-4.33 25.788-.21 31.083 2.49-5.629 2.248-12.995 6.343-17.432 13.348-2.093 3.309-2.444 7.474-2.784 11.508-.45 5.34-.874 10.381-4.805 13.646l10.436 3.415zM237.711 146.893s-8.127-10.084-10.536-29.704c-.946-7.729.732-22.972 3.42-28.836-.489 14.417 3.18 28.836 3.18 28.836s2.471 26.771 3.936 29.704z" fill="#463014"/><path d="M194.838 58.544c.004-.021 2.609-11.405 9.832-17.152 10.187-8.104 22.627-3.793 22.743-3.755l1.811-5.58c-.604-.195-14.82-4.675-27.927 4.536-13.182 9.263-14.76 17.66-14.901 18.587l8.442 3.364zM212.176 139.661s4.266-6.107 3.495-12.823c-.378-3.317-1.915-6.722-4.66-7.93-5.099-2.24-7.36 3.54-7.36 3.54s7.178 1.771 8.525 17.213z" fill="#463014"/><path d="M165.336 148.97c-.178.332-.27.519-.27.519s13.301 9.986 26.938-.148c7.304-5.43 6.614-18.859 4.374-24.554-5.813 1.318-10.744 3.693-14.869 6.467 5.211-4.65 9.772-8.073 9.756-8.152l5.926-1.676 11.508-3.945c.148.878 4.345 20.556-7.777 33.965-5.37 5.945-30.55 19.259-42.502-3.507l6.916 1.03z" fill="#463014"/><path d="M166.578 150.433c-7.491 11.402-26.388 4.886-26.062-7.168 0 0 12.626 6.97 23.785-5.864 6.514-7.492 27.394-28.151 55.702-21.286-19.549 4.3-45.433 22.16-53.425 34.318z" fill="#463014"/><path d="M222.65 182.613c-1.804 1.041-8.163 7.624-8.163 17.468-.004 4.937.488 29.737 2.935 44.888-3.676 2.388-6.236 2.896-9.896 5.33-1.832-17.547-3.15-42.979-2.533-53.246.699-11.703 6.963-19.557 12.773-22.906 1.82-1.047 3.722-2.076 5.641-3.111 9.953-5.378 20.246-10.942 20.246-20.441 0-7.432-2.892-9.756-5.95-12.22l-.326-.267c-2.03-1.64-4.331-3.5-5.688-6.553-3.714-8.348-4.323-29.615-.004-35.013 2.154-2.69 7.928-11.736 6.269-17.815-.636-2.32-2.098-4.04-4.476-5.258-2.518-1.29-5.913-1.943-10.104-1.943-8.217 0-17.342 2.503-22.043 3.993-16.813 5.329-37.1 20.693-42.92 25.275-.166.128-.262.203-.28.215l-3.724 2.588 2.327-3.894c.148-.243 14.884-24.479 41.238-33.365 5.128-1.729 15.2-4.63 25.1-4.63 5.894 0 10.89 1.03 14.854 3.057 4.828 2.469 8.094 6.408 9.454 11.388 3.328 12.207-7.512 25.798-7.882 26.233-1.263 2.256-1.798 18.643 1.117 25.201.402.906 1.503 1.795 2.9 2.92.436.353.92.72 1.441 1.112 4.12 3.109 10.345 7.806 10.345 18.633 0 14.814-15.014 22.846-27.076 29.304-1.981 1.065-3.873 2.073-5.576 3.057z" fill="#463014"/><path d="M204.739 66.985c-2.388-4.045-8.496-11.855-22.571-18.718-15.709-7.656-33.889-11.542-54.044-11.551v-.005h-.078v.002c-20.158.01-38.342 3.897-54.046 11.552-14.076 6.864-20.18 14.673-22.57 18.718l-1.026 1.357 12.054 2.683.382-.483.202-.442c.186-.797 1.802-5.098 15.24-11.651 14.367-7.007 31.124-10.56 49.8-10.566 18.68.006 35.43 3.559 49.795 10.566 13.44 6.553 15.061 10.854 15.245 11.65l.201.443.378.483 12.057-2.683-1.02-1.355z" fill="#463014"/><path d="M220.476 68.728c6.455-5.355 1.648-10.324 2.158-16.408.272-3.237.528-6.291 1.596-7.976 5.94-9.378 19.951-12.224 20.095-12.254l6.578-1.288-4.355-5.092c-.564-.66-18.44-17.717-46.11-8.785-19.348 6.241-33.673 27.405-34.206 28.26l9.7 4.563c.117-.18 11.444-20.074 28.046-25.427 13.42-4.33 25.788-.21 31.083 2.49-5.629 2.248-12.995 6.343-17.432 13.348-2.093 3.309-2.444 7.474-2.784 11.508-.45 5.34-.874 10.381-4.805 13.646l10.436 3.415z" fill="#463014"/><path d="M208.054 65.687l1.358-1.131c3.615-2.998 4.02-7.84 4.457-12.988.35-4.142.711-8.428 2.93-11.932 4.078-6.435 10.533-10.467 15.85-12.865-3.183-1.348-9.165-3.358-16.542-3.358-4.074 0-8.05.616-11.833 1.837-15.4 4.966-26.282 22.914-27.514 25.02l-.462.73-11.478-5.398.584-.932c.135-.217 14.54-22.16 34.738-28.673 5.401-1.745 10.83-2.626 16.134-2.626 19.439 0 30.918 11.589 31.016 11.706l5.445 6.365-8.215 1.61c-.136.028-13.803 2.887-19.462 11.819-.938 1.484-1.184 4.42-1.45 7.537-.155 1.854.234 3.66.613 5.406.821 3.786 1.67 7.702-3.119 11.67l-.416.346-12.634-4.143z" fill="#463014"/><path d="M194.838 58.544c.004-.021 2.609-11.405 9.832-17.152 10.187-8.104 22.627-3.793 22.743-3.755l1.811-5.58c-.604-.195-14.82-4.675-27.927 4.536-13.182 9.263-14.76 17.66-14.901 18.587l8.442 3.364z" fill="#463014"/><path d="M185.318 55.803l.114-.766c.143-.969 1.794-9.748 15.304-19.245 5.558-3.906 12.218-5.972 19.26-5.972 5.341 0 9.115 1.174 9.533 1.309l.927.3-2.421 7.443-.935-.31c-.35-.118-3.491-1.129-7.718-1.129-5.417 0-10.161 1.59-14.098 4.726-6.908 5.494-9.464 16.488-9.488 16.596l-.254 1.118-10.224-4.07zM226.78 36.43l1.203-3.706c-1.419-.36-4.292-.946-7.987-.946-6.732 0-12.834 1.89-18.134 5.615-11.088 7.794-13.738 14.836-14.339 17.183l6.653 2.65c.87-3.094 3.752-11.717 9.888-16.6 4.234-3.365 9.53-5.144 15.317-5.144 3.328 0 6.009.574 7.4.948zM151.8 299.58c-5.035-5.383-8.014-11.176-8.734-12.955-.412-1.014-.88-2.946.596-4.464 1.151-1.175 3.146-1.779 5.935-1.779h4.293c4.474 0 9.705 0 12.816.004l2.61.004c3.664 0 5.47 1.048 6.339 1.927 1.264 1.279 1.461 3.058.59 5.286-2.33 5.951-7.62 10.808-9.183 12.155-2.048 1.768-4.988 2.816-7.876 2.816-2.96 0-5.583-1.064-7.386-2.994zM156.158 151.103l10.42-.67s-2.661 4.698-4.388 10.774c-1.95 6.873 1.783 16.918 1.783 16.918s-13.903-15.74-7.815-27.022z" fill="#463014"/><path d="M128.087 113.88c-6.645 0-15.309-.182-21.81-4.854 0 0 8.512 14.921 21.799 14.921l.011-1.888.011 1.888c13.288 0 21.798-14.92 21.798-14.92-6.5 4.67-15.17 4.853-21.809 4.853z" fill="#E78724"/><path d="M146.383 113.808c-6.665 4.034-12.618 5.432-18.296 5.556-5.68-.124-11.63-1.522-18.296-5.556 0 0 9.707 11.845 18.247 11.936v.007c.015 0 .03-.004.048-.004.015 0 .03.004.048.004v-.007c8.538-.091 18.249-11.936 18.249-11.936zM169.172 330.104l-.743-9.662c31.298-2.407 41.16-32.402 41.211-35.56h9.692c.004 7.303-13.056 42.37-50.16 45.222z" fill="#463014"/><path d="M179.598 267.28c.583-3.351.64-6.53-.067-9.653 2.824-2.12 7.88-2.907 11.677-4.138 3.105-1.965 18.998 2.014 30.525-11.936 14.442-17.468 11.399-27.897 11.399-27.897 3.706 4.114 7.292 2.546 12.94 21.73 5.653 19.188-2.657 32.564-18.137 45.993-7.312 6.343-17.651 8.957-26.544 9.957 2.979-2.99-5.088-3.29-10.645-5.37.444-4.49-.302-8.848-3.649-12.357-2.014-2.116-4.615-3.38-7.307-4.388-.152-.348-.282-.67-.421-1.004.089-.305.173-.613.23-.937z" fill="#FFF"/><path d="M190.814 285.849c.326-.943.564-1.903.803-2.87.261-1.055 1.541-4.047-.039-.631.406-.875.67-1.776.866-2.684 25.07-.032 46.88-17.245 42.662-53.432 3.282-4.357 7.881 8.786 7.881 8.786s12.551 36.442-19.863 50.566c-10.8 4.71-20.343 8.087-22.596 6.724-4.695.953-8.93-2.317-10.514-4.468.296-.66.574-1.322.8-1.991z" fill="#C9C9C9"/><path d="M180.047 262.033c-.035-3.054-.663-6.013-2.135-8.96-.105-.203-.224-.398-.334-.596 9.646-.083 20.757-1.006 30.218-4.793 10.398-4.16 23.406-18.39 25.642-35.11 0 0 19.584 15.112 13.83 47.459-5.406 30.373-30.82 40.275-59.806 41.95-.016-.196 3.261-6.962 2.225-11.105 16.455 1.196 34.862-5.163 43.752-19.783 8.13-13.382 5.85-36.228 2.506-39.576-8.152 25.732-37.499 30.963-55.898 30.514z" fill="#463014"/><path d="M191.752 269.652c-3.463-3.744-9.83-8.206-24.511-8.206l-39.105-.024h-.096c-11.27.008-39.11.024-39.11.024-14.678 0-21.045 4.463-24.51 8.206-5.047 5.449-5.839 13.028-2.347 22.502 9.278 25.217 22.317 50.837 65.965 50.873v.004c.016 0 .03-.004.048-.004.015 0 .03.004.048.004v-.004c43.644-.038 56.683-25.656 65.964-50.873 3.492-9.474 2.698-17.053-2.346-22.502zm-6.795 20.734c-4.42 12.663-16.301 43.313-56.872 43.366-40.576-.053-52.452-30.702-56.873-43.366-2.446-7.026-2.26-12.225.572-15.454 1.935-2.208 6.379-4.843 16.507-4.843l10.581-.004c7.806-.007 17.607-.015 29.214-.02 11.603.005 21.409.013 29.213.02l10.577.004c10.131 0 14.574 2.634 16.51 4.843 2.829 3.232 3.017 8.428.57 15.454z" fill="#463014"/><path d="M177.012 243.612c5.216 15.307 15.87 27.696 15.87 27.696s-14.656-.667-15.466-3.26c-.595-1.912-13.23-31.49-18.08-66.14 4.558 7.495 17.228 40.393 17.676 41.704z" fill="#463014"/></symbol><symbol viewBox="0 0 175 387" id="gulp"><title>gulp</title><g transform="translate(0 1)" fill="#DA4648" fill-rule="evenodd"><path d="M86.72 303.739c-22.574 0-40.017-3.391-48.405-5.412-5.736-1.382-10.342-2.812-13.841-4.281l11.187 19.113 4.376 59.719c0 6.695 21.268 12.122 47.503 12.122s47.503-5.427 47.503-12.122l3.465-60.369 10.585-18.519c-3.514 1.489-8.161 2.938-13.969 4.337-8.388 2.021-25.831 5.412-48.404 5.412zm62.736-194.328C132.888 111.725 110.899 113 87.54 113c-23.359 0-45.348-1.275-61.916-3.589-8.207-1.146-14.7-2.498-19.299-4.016-1.097-.363-2.956-.982-4.745-1.968L11.845 197.9a80.437 80.437 0 0 1 1.597-4.871 92.354 92.354 0 0 1 4.181-9.731 86.201 86.201 0 0 1 5.169-8.984 69.482 69.482 0 0 1 5.946-7.79c2.102-2.372 4.258-4.412 6.472-6.122 2.213-1.708 4.447-3.044 6.702-4.006 2.256-.962 4.49-1.444 6.703-1.444 2.549 0 5.015.697 7.397 2.091 2.381 1.393 4.607 3.65 6.681 6.769.476.697.778 1.402.903 2.115.127.714.189 1.386.189 2.016 0 1.493-.357 2.672-1.071 3.534-.714.863-1.562 1.294-2.542 1.294-.898 0-1.731-.473-2.501-1.418-.771-.946-1.632-2.298-2.585-4.057-.897-1.593-1.884-2.745-2.962-3.459-1.079-.713-2.248-1.07-3.509-1.07-1.961 0-4.055.813-6.282 2.439-2.228 1.625-4.434 3.774-6.618 6.445-2.186 2.672-4.28 5.724-6.283 9.159a95.582 95.582 0 0 0-5.317 10.551c-1.541 3.602-2.765 7.153-3.676 10.653-.911 3.5-1.366 6.644-1.366 9.431 0 .93.064 1.885.189 2.862.127.98.364 1.867.715 2.664.349.797.826 1.451 1.428 1.964.603.516 1.366.772 2.29.772 1.037 0 2.213-.348 3.531-1.045 1.316-.695 2.682-1.609 4.096-2.736a51.479 51.479 0 0 0 4.266-3.834 68.31 68.31 0 0 0 3.992-4.33 63.288 63.288 0 0 0 3.277-4.205c.953-1.344 1.667-2.514 2.144-3.51l3.908-11.697c.476-1.26 1.099-2.156 1.87-2.687.77-.531 1.562-.797 2.375-.797.391 0 .783.067 1.176.199.393.133.742.341 1.051.622.308.283.553.647.735 1.096.182.447.273.97.273 1.567 0 1.593-.14 3.085-.42 4.48a35.597 35.597 0 0 1-1.072 4.082 70.343 70.343 0 0 1-1.45 4.006 98.955 98.955 0 0 0-1.554 4.207c-.112.166-.315.687-.61 1.566-.294.881-.65 1.985-1.071 3.311-.42 1.328-.876 2.812-1.366 4.455-.491 1.643-.994 3.318-1.512 5.027a408.413 408.413 0 0 0-1.492 5.028 1259.144 1259.144 0 0 0-2.228 7.789 56.33 56.33 0 0 1-.462 1.594c-.14.529-.365 1.119-.672 1.765a11.665 11.665 0 0 1-1.093 1.842A6.712 6.712 0 0 1 40 238.945c-.504.381-1.022.573-1.555.573-.896 0-1.548-.299-1.953-.895-.407-.598-.609-1.693-.609-3.285v-.697c0-.233.013-.483.041-.746.027-.532.238-1.528.631-2.989.392-1.459.861-3.109 1.408-4.951.546-1.842 1.135-3.75 1.765-5.725.629-1.974 1.197-3.74 1.702-5.3a83.674 83.674 0 0 1-4.833 4.953 52.125 52.125 0 0 1-5.337 4.429c-1.822 1.311-3.657 2.381-5.505 3.211-1.849.829-3.628 1.245-5.337 1.245-1.961 0-3.649-.432-5.065-1.295-.255-.157-.496-.332-.736-.506l5.712 59.888c1.487 3.727 29.481 12.884 66.391 12.884 36.927 0 64.932-9.166 66.393-12.89l8.205-71.202c-.679.623-1.34 1.232-1.972 1.822-2.354 2.189-4.575 4.072-6.662 5.648-2.086 1.576-4.125 2.797-6.114 3.658-1.99.864-4.119 1.295-6.388 1.295-2.129 0-3.776-.465-4.938-1.394-1.162-.928-1.744-2.205-1.744-3.832v-.373c0-.116.014-.258.043-.424.111-.994.547-2.141 1.303-3.434a39.467 39.467 0 0 1 2.73-4.031 111.206 111.206 0 0 1 3.404-4.232 195.7 195.7 0 0 0 3.342-4.057c1.022-1.275 1.869-2.445 2.541-3.508.674-1.062 1.01-1.924 1.01-2.588 0-.398-.141-.713-.42-.947-.281-.23-.744-.348-1.387-.348-1.121 0-2.277.291-3.466.871-1.192.58-2.37 1.362-3.532 2.34a31.982 31.982 0 0 0-3.404 3.36 49.566 49.566 0 0 0-3.109 3.931 53.324 53.324 0 0 0-2.647 4.108 57.767 57.767 0 0 0-2.039 3.806c-.168.366-.406.881-.715 1.543-.308.664-.644 1.412-1.008 2.241-.365.83-.75 1.685-1.156 2.562a111.16 111.16 0 0 0-1.113 2.49l-.902 2.09a47.207 47.207 0 0 1-.569 1.27c-.14.298-.371.861-.693 1.691-.322.83-.694 1.801-1.113 2.912l-1.325 3.51a1626.309 1626.309 0 0 0-2.373 6.371c-.308.828-.506 1.393-.59 1.692a18.168 18.168 0 0 1-.986 2.44 10.044 10.044 0 0 1-1.303 2.016 5.96 5.96 0 0 1-1.681 1.392c-.631.35-1.338.523-2.121.523-1.01 0-1.842-.242-2.502-.722-.657-.481-.987-1.403-.987-2.762 0-.664.084-1.344.252-2.04.168-.697.379-1.387.631-2.066.252-.682.512-1.344.778-1.991.265-.648.511-1.269.734-1.867a973.25 973.25 0 0 1 4.623-9.98 460.161 460.161 0 0 0 4.518-9.904c.3-.682.576-1.35.869-2.028-.088.086-.174.176-.26.26-1.822 1.76-3.635 3.31-5.442 4.654-1.808 1.344-3.601 2.414-5.378 3.211-1.78.795-3.51 1.194-5.192 1.194-1.148 0-2.107-.182-2.877-.547-.771-.366-1.386-.864-1.849-1.493-.463-.63-.793-1.377-.989-2.24-.066-.295-.107-.603-.15-.91a40.99 40.99 0 0 1-1.488 1.11c-1.737 1.226-3.446 2.214-5.127 2.96-1.68.747-3.194 1.12-4.537 1.12-1.346 0-2.438-.448-3.28-1.344-.84-.895-1.259-2.422-1.259-4.578 0-1.528.224-3.303.671-5.326-.728 1.294-1.638 2.605-2.73 3.931a23.953 23.953 0 0 1-3.74 3.635A18.687 18.687 0 0 1 70.803 227c-1.738.68-3.629 1.02-5.673 1.02-.925 0-1.814-.116-2.669-.348a5.594 5.594 0 0 1-2.248-1.195c-.645-.563-1.162-1.319-1.555-2.264-.392-.945-.588-2.133-.588-3.559 0-.033.056-.539.168-1.519.112-.979.469-2.522 1.072-4.629.602-2.106 1.534-4.836 2.793-8.188 1.262-3.351 3.041-7.416 5.338-12.193.588-1.262 1.268-2.166 2.037-2.713.772-.548 1.604-.822 2.5-.822.393 0 .799.059 1.219.174.422.117.813.299 1.178.548.363.249.658.565.883.946.222.381.336.82.336 1.318 0 .332-.043.649-.127.945-.141.567-.442 1.303-.902 2.215-.463.914-1.003 1.959-1.62 3.137a293.69 293.69 0 0 0-1.953 3.809 54.344 54.344 0 0 0-1.912 4.23 42.237 42.237 0 0 0-1.513 4.455c-.42 1.51-.659 2.979-.714 4.405 0 .597.139 1.144.42 1.642.28.498.743.746 1.387.746 1.82 0 3.557-.598 5.211-1.791 1.652-1.195 3.178-2.68 4.58-4.455a42.767 42.767 0 0 0 3.803-5.725c1.135-2.041 2.08-3.906 2.836-5.599a28.386 28.386 0 0 0 1.408-3.633 36.134 36.134 0 0 1 1.324-3.584c.477-1.096 1.022-2.008 1.639-2.738.615-.729 1.387-1.095 2.31-1.095 1.01 0 1.807.382 2.397 1.145.588.764.881 1.676.881 2.737 0 .597-.188 1.42-.567 2.465a70.18 70.18 0 0 1-1.429 3.584 459.325 459.325 0 0 1-1.869 4.304 75.544 75.544 0 0 0-1.869 4.655 46.122 46.122 0 0 0-1.43 4.629c-.379 1.509-.567 2.912-.567 4.205 0 1.195.616 1.793 1.848 1.793.869 0 1.947-.299 3.236-.897 1.289-.598 2.641-1.435 4.055-2.514.353-.269.709-.55 1.062-.845.395-1.629.858-3.135 1.397-4.504.98-2.59 1.975-5.16 2.984-7.715a4697.75 4697.75 0 0 1 2.774-7.019l12.732-32.104c.504-1.294 1.184-2.207 2.037-2.738.856-.53 1.717-.796 2.586-.796.867 0 1.658.282 2.373.846.715.565 1.073 1.477 1.073 2.738 0 .597-.12 1.228-.358 1.891a22.894 22.894 0 0 1-.904 2.14 396.042 396.042 0 0 0-2.5 5.724 867.899 867.899 0 0 0-6.514 15.654 5011.643 5011.643 0 0 1-3.404 8.387c-1.105 2.722-2.143 5.3-3.11 7.74-.966 2.439-1.798 4.555-2.5 6.346a27.944 27.944 0 0 0-.902 2.664c-.295 1.011-.441 1.916-.441 2.713 0 .496.084.894.252 1.193.168.299.49.449.966.449.588 0 1.323-.207 2.206-.623.882-.414 1.834-.963 2.857-1.643a45.66 45.66 0 0 0 3.193-2.339 99.148 99.148 0 0 0 3.299-2.737 89.618 89.618 0 0 0 3.131-2.838c.994-.945 1.885-1.816 2.67-2.613.184-.191.404-.326.646-.427a89.386 89.386 0 0 0 1.286-4.151c.224-.598.533-1.443.925-2.539.391-1.096.84-2.174 1.344-3.236.504-1.061 1.073-1.983 1.701-2.762.631-.779 1.311-1.17 2.039-1.17 1.121 0 1.934.258 2.438.771.504.516.756 1.27.756 2.266 0 .199-.028.514-.084.945-.057.432-.125.889-.209 1.37-.084.48-.176.937-.274 1.369-.099.431-.189.746-.273.945a56.639 56.639 0 0 1 3.361-3.359 34.588 34.588 0 0 1 3.74-3.012 21.613 21.613 0 0 1 3.952-2.192c1.343-.562 2.689-.845 4.033-.845.924 0 1.842.133 2.752.399.91.265 1.724.655 2.437 1.169a6.113 6.113 0 0 1 1.744 1.942c.448.779.672 1.683.672 2.712 0 1.362-.342 2.813-1.029 4.356a31.546 31.546 0 0 1-2.584 4.652 58.26 58.26 0 0 1-3.361 4.555 173.74 173.74 0 0 1-3.383 4.031 343.597 343.597 0 0 0-2.649 3.086c-.712.848-1.086 1.42-1.113 1.719 0 .398.127.721.379.971.252.248.672.373 1.26.373.476 0 1.178-.266 2.101-.797.924-.531 2.221-1.451 3.887-2.762s3.783-3.07 6.346-5.277a605.745 605.745 0 0 0 6.135-5.366l11.114-102.929c-1.79.988-3.652 1.608-4.75 1.971-4.598 1.518-11.091 2.87-19.299 4.016zM87.474 84.99c-48.049 0-87 5.372-87 12s38.951 12 87 12 87-5.372 87-12-38.951-12-87-12zm34.738 15.507c0 1.555-4.629 2.816-10.34 2.816-5.71 0-10.339-1.261-10.339-2.816 0-1.556 4.629-2.817 10.339-2.817 5.711 0 10.34 1.261 10.34 2.817z"/><path d="M103.627 99.252a.467.467 0 0 0-.078.25c0 1.007 3.727 1.822 8.323 1.822 4.597 0 8.323-.815 8.323-1.822l10.871-44.078 43.233-45.645a.878.878 0 0 0 .041-.043c.915-1.035-.942-4.238-4.023-6.985-3.081-2.747-6.408-3.677-7.442-2.631a.843.843 0 0 0-.023.024l-46.127 48.538-13.098 50.57z"/></g></symbol><symbol viewBox="0 0 447.1 512" id="hexagon1"><title>hexagon1</title><path class="ia" d="M443.4 124.8L219.9 0 0 131.2l3.7 256L227.3 512l219.8-131.2zM225.3 494L20.2 379.6l35.9-22.3 4.5 35.9 156.8 61.6 7.4-3.4zm-82.8-327.1L218.8 56l1.6 2.3.8 69.8-38.2-5.2-9.3 13.6 47.7 6.6 1.2 106.8-1.1.6-70.4-36.9zm80.1 89.4l1.4 128.3-53.5-64.2-5.6-30.5 55.7-34.6zm3.7 2l103.6 57-88.5 90.1-13.6-16.4zm0-4.2v-2.2l72.8-41.6 32.8 101.9zm-.1-6.4L225 143.5l42.6 5.9-2-6.1-6.7-9.9-34.1-4.7-.7-64.8 52.7 77.5 21.1 65.4zm-8.4 5l-53.6 33.2-12.4-67.7zm-67 41.5l-81.5 50.5L48.2 175l13.1-4.2 74.1 38.7zm-95.2 59.1l-37.3 23.1-3.4-229.9 28 14.7-10.9 3.5zM217 438.8L74.1 382.7l-4.2-33.9 81.7-50.6 5.2 28.7 67.5 81 .3 27.5zm11-26.5l12.4 14.9 102.8-104.6 7.4 4.1-2.5 2.5-.5 49.5-87.8 40.4-21.2 21.6-7.2-8.6-3.2 1.5zm117.9-92.4l2.9-3-36.7-114.2 37.5-21.5-1 99.8 11.5 35.8-6.9 7zm18.5-147l64.5-36.9 3.4 231.4-69.4-38.2zm64.5-37.3l-1.6-2.8-62.8 35.9.2-20.8-61.6-8.5 5 15.5 41.8 5.7-.2 16.5-38.7 22.1-20.4-63.5-66.7-98.5-.3-18.3 205.2 114.5zm-209-118.5l.2 14.7-1.2-1.8L127 163.6l7.6 41.4-68.3-35.7 51.7-16.6 13.6-19.8L48 159.7l-32.8-17.2-.2.4v-3.3zm9 476.8l-.5-44.2 133.9-61.6.5-54.7 68.6 37.7.9-1.6v2.9z"/></symbol><symbol viewBox="0 0 491.32 511.9" id="home3d"><title>home3d</title><path class="ja" d="M273.61 365l-40.3 6.4a2.66 2.66 0 0 0-2.2 2.5v57a2.46 2.46 0 0 0 1 2 3 3 0 0 0 1.6.5 2 2 0 0 0 .7-.1l40.3-10.6a2.58 2.58 0 0 0 1.9-2.5v-52.9a2.52 2.52 0 0 0-.9-2 4.66 4.66 0 0 0-2.1-.3zM324.11 356.9l-32.5 5.2a2.66 2.66 0 0 0-2.2 2.5v51a2.46 2.46 0 0 0 1 2 3 3 0 0 0 1.6.5 2 2 0 0 0 .7-.1l32.5-8.5a2.58 2.58 0 0 0 1.9-2.5v-47.6a2.52 2.52 0 0 0-.9-2 3 3 0 0 0-2.1-.5zM337.71 405.3a3 3 0 0 0 1.6.5 2 2 0 0 0 .7-.1l26.8-7a2.58 2.58 0 0 0 1.9-2.5v-43.3a2.52 2.52 0 0 0-.9-2 2.63 2.63 0 0 0-2.1-.6l-26.8 4.3a2.56 2.56 0 0 0-2.2 2.5v46.2a2.22 2.22 0 0 0 1 2zM274.01 285.7l-40.2.2a2.65 2.65 0 0 0-2.6 2.6v57a2.46 2.46 0 0 0 .9 1.9 2.84 2.84 0 0 0 1.7.7h.3l40.3-4.3a2.53 2.53 0 0 0 2.3-2.6v-52.9a2.5 2.5 0 0 0-.8-1.8 2.36 2.36 0 0 0-1.9-.8zM324.51 285.4l-32.5.2a2.65 2.65 0 0 0-2.6 2.6v51a2.73 2.73 0 0 0 .8 1.9 2.84 2.84 0 0 0 1.7.7h.3l32.5-3.5a2.53 2.53 0 0 0 2.3-2.6V288a2.5 2.5 0 0 0-.8-1.8 2 2 0 0 0-1.7-.8zM339.21 336.6h.3l26.8-2.9a2.53 2.53 0 0 0 2.3-2.6v-43.4a2.5 2.5 0 0 0-.8-1.8 3.26 3.26 0 0 0-1.8-.8l-26.8.1a2.65 2.65 0 0 0-2.6 2.6V334a2.46 2.46 0 0 0 .9 1.9 2.34 2.34 0 0 0 1.7.7zM274.41 206.4l-40.3-6a2.74 2.74 0 0 0-2.1.6 2.52 2.52 0 0 0-.9 2v57a2.63 2.63 0 0 0 2.5 2.6l40.3 1.9h.1a2.87 2.87 0 0 0 1.8-.7 2.73 2.73 0 0 0 .8-1.9v-53a2.49 2.49 0 0 0-2.2-2.5zM289.51 211.6v51a2.63 2.63 0 0 0 2.5 2.6l32.5 1.5h.1a2.87 2.87 0 0 0 1.8-.7 2.73 2.73 0 0 0 .8-1.9v-47.7a2.42 2.42 0 0 0-2.2-2.5l-32.5-4.8a2.74 2.74 0 0 0-2.1.6 2.46 2.46 0 0 0-.9 1.9zM339.11 267.4l26.8 1.2h.1a2.87 2.87 0 0 0 1.8-.7 2.73 2.73 0 0 0 .8-1.9v-43.4a2.42 2.42 0 0 0-2.2-2.5l-26.8-4a2.74 2.74 0 0 0-2.1.6 2.52 2.52 0 0 0-.9 2v46.2a2.69 2.69 0 0 0 2.5 2.5z"/><path class="ja" d="M485.71 201.5l-90.8-22.9-96-174.7a.22.22 0 0 0-.2-.2c-.1-.1-.1-.2-.2-.3s-.3-.5-.5-.7c0-.1-.1-.1-.1-.2l-.1-.1a6 6 0 0 0-.8-.8c-.1 0-.1-.1-.2-.1a2.18 2.18 0 0 0-.8-.5c-.1-.1-.2-.1-.3-.2s-.5-.2-.7-.3-.2-.1-.3-.1c-.3-.1-.7-.2-1-.3h-.1a3.4 3.4 0 0 0-1-.1h-.4a2.77 2.77 0 0 0-.9.1h-.3c-.3.1-.6.1-.9.2a.2.2 0 0 0-.2.1 3.7 3.7 0 0 0-1.1.5L75.11 112.1a7.4 7.4 0 0 0-2.7 2.3l-70.9 96.7a7.66 7.66 0 0 0-.1 9 7.83 7.83 0 0 0 6.3 3.3 7.61 7.61 0 0 0 2.1-.3l10-2.8v202.4a7.7 7.7 0 0 0 4.2 6.9l159.2 81.4h.1a.35.35 0 0 1 .2.1c.3.1.5.2.8.3.1 0 .2.1.3.1a6.37 6.37 0 0 1 .7.2.37.37 0 0 1 .3.1c.3 0 .7.1 1.1.1a2.77 2.77 0 0 0 .9-.1h.2a2.92 2.92 0 0 0 .9-.2h.1a1.06 1.06 0 0 0 .5-.2l202.8-73.8 94.1-34.2a7.67 7.67 0 0 0 5.1-7.3V209a7.41 7.41 0 0 0-5.6-7.5zm-445.5 24.8a2.58 2.58 0 0 1 2-2.5l16.9-3.5a2.27 2.27 0 0 1 2.1.5 2.52 2.52 0 0 1 .9 2v43.3a2.62 2.62 0 0 1-2.4 2.6l-16.9 1.1h-.2a2.87 2.87 0 0 1-1.8-.7 2.73 2.73 0 0 1-.8-1.9l.2-40.9zm22 169.7a2.61 2.61 0 0 1-1.1 2.1 2.69 2.69 0 0 1-1.5.5 2.92 2.92 0 0 1-.9-.2l-16.9-6.2a2.59 2.59 0 0 1-1.7-2.4v-40.9a2.61 2.61 0 0 1 1-2 2.47 2.47 0 0 1 2.2-.5l16.9 3.8a2.56 2.56 0 0 1 2 2.5V396zm.1-64.9a2.52 2.52 0 0 1-.9 2 2.72 2.72 0 0 1-1.7.6h-.4l-17-2.6a2.56 2.56 0 0 1-2.2-2.5v-41.1a2.5 2.5 0 0 1 .8-1.8 2.69 2.69 0 0 1 1.8-.8l17 .1a2.65 2.65 0 0 1 2.6 2.6v43.5zm40.5 129a2.75 2.75 0 0 1-1.2 2.2 2.2 2.2 0 0 1-1.3.4 2.66 2.66 0 0 1-1.2-.3l-21.4-10.9a2.44 2.44 0 0 1-1.4-2.3V357a2.61 2.61 0 0 1 1-2 2.47 2.47 0 0 1 2.2-.5l21.4 4.8a2.56 2.56 0 0 1 2 2.5l-.1 98.3zm0-122.9a2.52 2.52 0 0 1-.9 2 2.72 2.72 0 0 1-1.7.6h-.4l-21.6-3.3a2.56 2.56 0 0 1-2.2-2.5v-46.3a2.5 2.5 0 0 1 .8-1.8 2.09 2.09 0 0 1 1.8-.7l21.6.1a2.65 2.65 0 0 1 2.6 2.6v49.3zm0-73.7a2.62 2.62 0 0 1-2.4 2.6l-21.6 1.3h-.2a2.87 2.87 0 0 1-1.8-.7 2.73 2.73 0 0 1-.8-1.9v-46a2.48 2.48 0 0 1 2-2.5l21.6-4.5a2.27 2.27 0 0 1 2.1.5 2.52 2.52 0 0 1 .9 2l.2 49.2zm53.3 167a2.61 2.61 0 0 1-1.1 2.1 2.46 2.46 0 0 1-1.5.5 2.92 2.92 0 0 1-.9-.2l-28.6-10.5a2.59 2.59 0 0 1-1.7-2.4v-52.5a2.33 2.33 0 0 1 1-2 2.47 2.47 0 0 1 2.2-.5l28.6 6.4a2.56 2.56 0 0 1 2 2.5v56.6zm0-85.2a2.2 2.2 0 0 1-.9 1.9 2.72 2.72 0 0 1-1.7.6h-.4l-28.6-4.3a2.56 2.56 0 0 1-2.2-2.5v-52.7a2.74 2.74 0 0 1 2.6-2.6l28.6.2a2.65 2.65 0 0 1 2.6 2.6v56.8zm0-85.3a2.62 2.62 0 0 1-2.4 2.6l-28.6 1.9h-.2a2.87 2.87 0 0 1-1.8-.7 2.73 2.73 0 0 1-.8-1.9v-52.7a2.48 2.48 0 0 1 2-2.5l28.6-6a2.27 2.27 0 0 1 2.1.5 2.52 2.52 0 0 1 .9 2l.2 56.8zm225.9 164.9l-187.4 68.2V167.7l96.9-145.2 90.5 164.8v237.6zm59.4-47.8a2.58 2.58 0 0 1-1.9 2.5l-27.9 7.3a1.48 1.48 0 0 1-.7.1 3 3 0 0 1-1.6-.5 2.61 2.61 0 0 1-1-2v-58.2a2.68 2.68 0 0 1 2.3-2.6l27.9-3a3 3 0 0 1 2 .6 2.84 2.84 0 0 1 .9 1.9v53.9zm0-89.7a2.58 2.58 0 0 1-2.6 2.6l-27.9.1a2.74 2.74 0 0 1-2.6-2.6v-58.2a2.66 2.66 0 0 1 .9-2 2.63 2.63 0 0 1 2.1-.6l27.9 4.2a2.56 2.56 0 0 1 2.2 2.5v54zm38.3 79.7a2.58 2.58 0 0 1-1.9 2.5l-21.9 5.8a1.48 1.48 0 0 1-.7.1 3 3 0 0 1-1.6-.5 2.61 2.61 0 0 1-1-2v-50.9a2.68 2.68 0 0 1 2.3-2.6l21.9-2.4a3 3 0 0 1 2 .6 2.84 2.84 0 0 1 .9 1.9v47.5zm0-79.9a2.58 2.58 0 0 1-2.6 2.6l-21.9.1a2.74 2.74 0 0 1-2.6-2.6V236a2.52 2.52 0 0 1 .9-2 2.63 2.63 0 0 1 2.1-.6l21.9 3.3a2.56 2.56 0 0 1 2.2 2.5v48z"/></symbol><symbol viewBox="0 0 512 512" id="infoman"><title>infoman</title><path class="ka" d="M205.8 296.1s-7.2 18.4-7.1 18.5l11.4 16.2h25.1l11.4-16.2c-.1-.3-7.1-18.5-7.1-18.5-.9.2-32.9.2-33.7 0zM141 188.7c14.7 42.9 42.3 75.5 81.6 75.5 37.8 0 65.9-32.1 81-74.9 30.6-30.8 23.4-53.9 16.3-64.9C336.5 44.8 285.8 0 219.7 0 101.3 0 122 129.7 122 129.7h.4c-5.5 12.3-7 32.8 18.6 59zm49.5-96.3l-8.7 32.2c42.2-12.9 47.9-20 54.6-24.8a156.61 156.61 0 0 0 17.5-14.7 52.59 52.59 0 0 0 8.1 10.8c3.1 3.3 7.7-29.8 7.7-29.8s11.7 20.1 13.3 26.6c1.2 4.6 8.5 23.3 12.5 25-1.5 61.5-29.1 125.9-73 125.9-40.9 0-67.6-55.8-72.3-113.2 11.3-.9 40.3-38 40.3-38zM428 235.9c7.9 0 12.7-5.3 12.7-11.8-.2-6.7-4.8-11.8-12.4-11.8s-12.6 5.1-12.6 11.8c0 6.5 4.8 11.8 12.3 11.8zm.2 135A105.33 105.33 0 0 1 323 265.7c0-2 .5-3.8.6-5.8L293.9 249l-7.9 19.2 16.6 6.1-60.6 200-7.6-134.3h-23.6l-7.6 131.8L143.3 274l15.9-5.8-8-19.2-58.8 21.7-.7.3c-.7.4-56.8 27-81.4 91.6A175.31 175.31 0 0 0 0 407a287.71 287.71 0 0 0 222.4 105h.4c4.8 0 9.6-.1 14.4-.4h.3a287.56 287.56 0 0 0 207.6-104.7A175.34 175.34 0 0 0 437 370a79.32 79.32 0 0 1-8.8.9zm-71.8 59.2c-24.6 9.9-49.9 11.6-64.5 11.6-4.9 0-8.6-.2-10.6-.4V429c.7 0 42.5 4.9 75.1-11.8v12.9zM428.2 182a83.8 83.8 0 1 0 83.8 83.8 83.78 83.78 0 0 0-83.8-83.8zm0 149.1a65.3 65.3 0 1 1 65.3-65.3 65.25 65.25 0 0 1-65.3 65.3zm11.7-85.9h-32.3v13.7h8.7v48.9H407v13.1h9.3v.1h23.6v-.1h7.7v-13.1h-7.7v-62.6z"/></symbol><symbol viewBox="0 0 149.31 138.21" id="jquery"><defs><style>.la{fill:#0868ac}.lb{fill:#fff}</style></defs><title>jquery</title><path d="M42.67 111.24l-1.19 4.46 1.19-4.45zM48.8 120.91zM48.46 127.57zM50.12 120.92zM49.15 127l1.37-5.52-1.37 5.52zM78.15 101.6l-2.56 12.67zM71.58 101.6l-1.94 9.46 1.94-9.46z"/><path class="lb" d="M77.72 101h-5.47a.73.73 0 0 0-.67.57L69.64 111l-1.92 9.5a.73.73 0 0 1-.67.57h-3.89c-3.83 0-3.38-2.79-2.6-6.61v-.12l.09-.48v-.06l.17-1 .19-1.05c.06-.32.14-.78.2-1.07l.88-4.54.92-4.54a.45.45 0 0 0-.31-.55H57.01a.72.72 0 0 0-.67.57l-1.21 6-1.21 6-.11.56c-1.39 6.69-1 13.06 6.53 13.26h12.03a.72.72 0 0 0 .67-.57l2.56-12.66 2.56-12.67a.45.45 0 0 0-.37-.51h-.07z"/><path d="M99.51 121.16a.45.45 0 0 1 .44.57l-.53 2.73M98.89 127.2l.53-2.74-.53 2.74zM98.23 127.78c-1.61 0-6.44.05-10.07.05 4.42 0 10.07-.05 10.07-.05zM84.9 117.64a.9.9 0 0 1 .62-.82h-.68c-.31 3.26.06.83.06.83zM88.65 127.83z"/><path d="M99.51 121.16a.45.45 0 0 1 .44.57l-.53 2.73-.09.45M91.24 127.82zM89.9 127.82zM89.49 127.82zM89.07 127.83zM89.82 127.82zM91.22 127.82zM98.23 127.77z"/><path class="lb" d="M98.89 127.2l.44-2.29-.44 2.29z"/><path d="M89.36 127.83zM88.55 127.83zM88.96 127.83zM9.01 117.71l.85-4-1 4.53-.93 4.62.82-4c.06-.31.17-.83.24-1.14h.02z"/><path class="lb" d="M19.18 101h-6a.74.74 0 0 0-.67.57l-.57 2.65-.57 2.65a.44.44 0 0 0 .29.55h6.14a.73.73 0 0 0 .67-.57l.54-2.63.55-2.65a.44.44 0 0 0-.29-.55h-.14z"/><path d="M17.88 109.77l-1.76 8.58zM104.01 116.09s8.5.11 13.9.11c-4.11 0-10.89-.08-13.91-.11zM10.72 109.77l-.85 4z"/><path class="lb" d="M17.44 109.21h-6a.73.73 0 0 0-.67.57l-.85 4-.85 4c-.07.31-.17.82-.24 1.14l-.82 4-.82 4A10.83 10.83 0 0 1 6.9 128s-1.13 3.54-3 3.5H2.01a.73.73 0 0 0-.68.56l-.63 2.78-.69 2.8a.44.44 0 0 0 .29.55h5.13c4.74 0 7.25-2.77 8.85-10.75l1.88-9.15 1.76-8.58a.44.44 0 0 0-.29-.55h-.15z"/><path d="M103.36 127.5a.45.45 0 0 1-.44-.57l4.55-22.47M109.72 126.93l1.84-9.59z"/><path d="M103.01 127.22a2.61 2.61 0 0 1 0-.85l2.16-10.66-2.27 11.23a.45.45 0 0 0 .31.55h.68a1.37 1.37 0 0 1-.92-.28zM109.33 127.37a2.73 2.73 0 0 1-.85.13h.53a.72.72 0 0 0 .66-.57l.11-.57a2.11 2.11 0 0 1-.47 1zM110.61 122.14l.81-4.23-.81 4.22zM128.56 106l.25 1.09a.44.44 0 0 1-.29.55h-.14M109.8 126.36l.81-4.23zM128.31 104.85l.25 1.12zM111.42 117.9l.22-1.13.87-4.28-1 4.85-.11.56z"/><path class="lb" d="M128.81 107.06l-.25-1.06-.25-1.12-.13-.57c-.49-2-1.93-3.17-5.06-3.17h-14.4a.72.72 0 0 0-.67.57l-.22 1.11-.26 1.31-.07.37-2.27 11.23-2.16 10.66a2.61 2.61 0 0 0 0 .85 1.37 1.37 0 0 0 .92.28h4.56a2.73 2.73 0 0 0 .85-.13 2.11 2.11 0 0 0 .47-1l.81-4.23.81-4.22.11-.56 1-4.85.87-4.29a.73.73 0 0 1 .67-.57h14.34a.44.44 0 0 0 .43-.57zM107.55 104.1l-.19.94-2.16 10.67 2.27-11.23.07-.37z"/><path class="lb" d="M147.27 97.19h-5.69a1.16 1.16 0 0 0-.86.48l-10.15 15.68c-.17.26-.37.23-.43-.09l-.75-3.45a.74.74 0 0 0-.67-.57h-6.53a.41.41 0 0 0-.4.56l2.93 10.8a2.68 2.68 0 0 1 0 1.12l-1.27 5.23a.43.43 0 0 0 .28.54h6.58a.76.76 0 0 0 .69-.56l1.27-5.23a3.56 3.56 0 0 1 .47-1l16.48-23.08c.18-.26.08-.46-.22-.46h-1.73zM95.43 110.71a.68.68 0 0 1-.65.6h-8.27a.37.37 0 0 1-.39-.46v-.15a5.19 5.19 0 0 1 5.47-3.7c3.41 0 4.07 1.75 3.84 3.73zm-2.42-10.07c-10.62 0-13.14 6.8-14.55 13.65s-1.29 13.53 9.7 13.53h10.07a.73.73 0 0 0 .66-.57l.44-2.25.09-.45.53-2.73a.45.45 0 0 0-.31-.55H89.63c-3.93 0-5.1-1.1-4.67-4.34h15.76a.65.65 0 0 0 .58-.43.64.64 0 0 0 0-.15c2.34-9.32 1.67-15.6-8.37-15.6zM42.82 110.68l-.15.56-1.19 4.45-1.19 4.45a.78.78 0 0 1-.7.56h-6.32c-4.79 0-6-3.95-4.79-9.77s3.45-9.66 8.16-10c6.44-.51 7.73 4.26 6.17 9.77zm4.33 9.69s3-7.62 3.65-12c.92-5.91-1.88-14.45-12.68-14.45s-15.41 8.15-17.19 17 .55 16.76 11.23 16.7h16.31a.77.77 0 0 0 .69-.57l1.37-5.52a.43.43 0 0 0-.27-.55h-2.77a.35.35 0 0 1-.37-.41.56.56 0 0 1 0-.13z"/><path class="lb" d="M100.32 115.27a.36.36 0 1 1-.36-.38.37.37 0 0 1 .36.38z"/><path class="la" d="M36.72 21.3c-8.34 12-7.3 27.57-.93 40.3.15.31.31.61.47.91s.19.39.3.57l.16.32.29.6.61 1 .39.57c.23.37.47.74.71 1.1l.29.46c.33.5.67 1 1 1.47l.17.23c.3.42.62.83.93 1.24l.35.45.86 1.06.39.48c.39.46.79.92 1.2 1.37v.05c.4.43.81.86 1.22 1.28l.39.39 1 1 .4.38q.66.62 1.33 1.21l.23.2L49.72 79l.5.4 1 .79.54.41 1.13.81.41.29.11.08c.36.25.73.49 1.1.73l.5.32c.57.36 1.14.71 1.72 1.05l.48.27 1.29.73.72.37.93.48.21.1.36.17 1.47.68.31.14q.85.37 1.71.71l.42.16c.53.21 1.07.41 1.61.6l.2.07c.59.21 1.2.4 1.8.59l.48.11a17.5 17.5 0 0 0 1.86.52c40.31 7.35 52-24.22 52-24.22-9.86 12.81-27.28 16.19-43.86 12.43-.63-.14-1.23-.34-1.85-.52l-.46-.14q-.9-.27-1.78-.58l-.24-.09-1.57-.58-.44-.17-1.66-.71-.34-.15-1.43-.66-.39-.19-1.1-.56-.74-.44c-.45-.24-.89-.49-1.32-.74l-.45-.26c-.58-.34-1.15-.7-1.72-1.06l-.51-.26-1.23-.82-.4-.28-1.16-.84-.51-.39-1-.82-.47-.37c-.44-.36-.87-.73-1.3-1.1l-.14-.06-1.37-1.25-.42-.4c-.33-.32-.66-.64-1-1l-.34-.35q-.62-.63-1.21-1.28l-.06-.06c-.42-.46-.83-.92-1.22-1.39l-.32-.38c-.3-.36-.59-.72-.88-1.09l-.32-.4c-.35-.45-.69-.9-1-1.36-9.18-12.53-12.48-29.8-5.14-44"/><path class="la" d="M62.57 11.21c-6 8.67-5.7 20.29-1 29.46a38.38 38.38 0 0 0 2.67 4.45 21.17 21.17 0 0 0 3.1 3.88c.43.48.89.94 1.35 1.4l.32.35c.45.44.91.87 1.38 1.28h.06c.52.46 1.06.9 1.61 1.34l.37.29c.55.42 1.11.84 1.69 1.23l.77.51.37.24q.62.4 1.25.77l.18.1 1.11.62.39.21.82.4h.12c.53.26 1.07.51 1.61.75l.36.15 1.32.54.59.26 1.21.42.52.14a13.26 13.26 0 0 0 1.76.51c31.12 5.16 38.31-18.81 38.31-18.81-6.48 9.33-19 13.78-32.4 10.31a8.23 8.23 0 0 1-1.69-.43l-.53-.17-1.26-.41-.56-.21-1.36-.53-.32-.13q-.82-.36-1.62-.75l-.82-.38-.47-.24-1-.58-.27-.18-1.25-.76-.38-.24-.81-.53q-.85-.6-1.68-1.23l-.38-.3A37.53 37.53 0 0 1 65.3 26.81C63.01 19.37 63.49 11 67.5 4.25"/><path class="la" d="M84.33 3.67a18.14 18.14 0 0 0-1.44 17.5 24.64 24.64 0 0 0 14.12 13.22l.77.27.34.11a9.73 9.73 0 0 0 1.11.32c17.18 3.32 21.85-8.82 23.09-10.6-4.08 5.88-10.94 7.29-19.36 5.25a16.71 16.71 0 0 1-2-.63 24.27 24.27 0 0 1-6.66-3.59C86.72 19.79 82.08 8.88 87.01 0"/></symbol><symbol viewBox="0 0 508.52 508.52" id="linkedin"><path d="M413.172 0H95.347C42.684 0 0 42.684 0 95.347v317.825c0 52.664 42.684 95.347 95.347 95.347h317.825c52.664 0 95.347-42.684 95.347-95.347V95.347C508.52 42.684 465.836 0 413.172 0zM190.695 377.417H127.13V154.94h63.565v222.477zm-29.812-236.112c-16.463 0-29.78-13.349-29.78-29.812s13.349-29.812 29.78-29.812c16.463.032 29.812 13.38 29.812 29.812 0 16.463-13.349 29.812-29.812 29.812zm252.289 236.112h-63.565V239.862c0-16.114-4.608-27.396-24.409-27.396-32.831 0-39.156 27.396-39.156 27.396v137.555h-63.565V154.94h63.565v21.262c9.09-6.96 31.782-21.231 63.565-21.231 20.595 0 63.565 12.332 63.565 86.83v135.616z" fill="#FFF"/></symbol><symbol viewBox="0 0 37.82 30.89" id="logo"><title>logo</title><path class="na" d="M37.22 20.22l-2.38-2-7.57-6-3.84 1.77a.58.58 0 0 0-.06 1l3 2.25 3.21 2.63a.58.58 0 0 1-.16 1l-10.19 4.55 2.58 3 12.3-4.77 2.82-1.28a1.2 1.2 0 0 0 .29-2.2"/><path class="nb" d="M23.76 2.47L10.2 28.4"/><path class="na" d="M21.58 1.22L8.06 27.16c-1.48 2.77 2.8 5.32 4.27 2.49L25.89 3.72c1.48-2.73-2.79-5.33-4.31-2.5zM.47 8.63l1.94 1.87 6.17 5.74 3.26-1.69a.61.61 0 0 0 .16-.85l-.07-.08-2.46-2.14-2.6-2.49a.61.61 0 0 1 .13-1l8.63-4.5L13.58.57 3.17 5.26.77 6.52a1.24 1.24 0 0 0-.3 2.12"/></symbol><symbol id="responsive" viewBox="0 0 512 512"><style>.ost0{fill:#fff}</style><path class="ost0" d="M393.1 427.3h-55.8c-2 0-3.7-1.6-3.7-3.7V410c0-2-1.6-3.7-3.7-3.7h-78.1c-2 0-3.7 1.6-3.7 3.7v13.6c0 2-1.6 3.7-3.7 3.7h-42c-2 0-3.7 1.6-3.7 3.7v15.7c0 2 1.6 3.7 3.7 3.7h190.5c2 0 3.7-1.6 3.7-3.7V431c.2-2.1-1.5-3.7-3.5-3.7zM486.9 59.9H88.6c-13.9 0-25.1 11.3-25.1 25.1v65.5c0 8.7-.6 9.9 5.2 9.9h10c4.9 0 3.9-1.2 3.9-10.1V84.9c0-3.3 2.8-6.1 6.1-6.1h398.2c3.3 0 6.1 2.8 6.1 6.1v245.3H209.1s-10 0-10 12.9v30.7c0 12.9 10.3 12.9 10.3 12.9h277.5c13.9 0 25.1-11.3 25.1-25.1V85c0-13.8-11.3-25.1-25.1-25.1zM287.7 365.2c-6.3 0-11.3-5.1-11.3-11.3 0-6.3 5.1-11.3 11.3-11.3 6.2 0 11.3 5.1 11.3 11.3.1 6.2-5 11.3-11.3 11.3z"/><path class="ost0" d="M160.3 182.9H16.2c-8.9 0-16.2 7.3-16.2 16.2v236.8c0 8.9 7.3 16.2 16.2 16.2h144.1c8.9 0 16.2-7.3 16.2-16.2V199.1c0-8.9-7.3-16.2-16.2-16.2zm-89.8 16.5H106c1.7 0 3.1 1.4 3.1 3.1 0 1.7-1.4 3.1-3.1 3.1H70.5c-1.7 0-3.1-1.4-3.1-3.1 0-1.7 1.4-3.1 3.1-3.1zM88 440.7c-4.6 0-8.4-3.8-8.4-8.4s3.8-8.4 8.4-8.4 8.4 3.8 8.4 8.4-3.7 8.4-8.4 8.4zm74.6-24.6c0 2.2-1.7 3.9-3.8 3.9h-141c-2.1 0-3.8-1.8-3.8-3.9V219.3c0-2.2 1.7-3.9 3.8-3.9h140.9c2.1 0 3.8 1.8 3.8 3.9.1 0 .1 196.8.1 196.8z"/></symbol><symbol viewBox="0 0 547.8 410.6" id="sass"><path fill="#CD6799" d="M471.4 236c-19.1.1-35.7 4.7-49.6 11.5-5.1-10.1-10.2-19.1-11.1-25.7-1-7.7-2.2-12.4-1-21.6 1.2-9.2 6.6-22.3 6.5-23.3s-1.2-5.7-12.2-5.8c-11-.1-20.5 2.1-21.6 5-1.1 2.9-3.2 9.5-4.6 16.3-1.9 10-22 45.7-33.5 64.4-3.7-7.3-6.9-13.7-7.6-18.8-1-7.7-2.2-12.4-1-21.6 1.2-9.2 6.6-22.3 6.5-23.3-.1-1-1.2-5.7-12.2-5.8-11-.1-20.5 2.1-21.6 5-1.1 2.9-2.3 9.7-4.6 16.3-2.3 6.6-29 66.2-36 81.6-3.6 7.9-6.7 14.2-8.9 18.5s-.1.3-.4.8c-1.9 3.7-3 5.7-3 5.7v.1c-1.5 2.7-3.1 5.2-3.9 5.2-.6 0-1.7-7.2.2-17 4-20.7 13.5-52.9 13.4-54 0-.6 1.8-6.2-6.2-9.1-7.8-2.9-10.6 1.9-11.3 1.9-.7 0-1.2 1.7-1.2 1.7s8.7-36.2-16.6-36.2c-15.8 0-37.6 17.3-48.4 32.9-6.8 3.7-21.3 11.6-36.8 20.1-5.9 3.3-12 6.6-17.7 9.7-.4-.4-.8-.9-1.2-1.3-30.6-32.7-87.2-55.8-84.8-99.7.9-16 6.4-58 108.7-109 84.2-41.5 151.2-30 162.8-4.5 16.6 36.4-35.9 104-122.9 113.8-33.2 3.7-50.6-9.1-55-13.9-4.6-5-5.3-5.3-7-4.3-2.8 1.5-1 6 0 8.6 2.6 6.8 13.3 18.8 31.4 24.7 16 5.2 54.9 8.1 102-10.1 52.7-20.4 93.9-77.1 81.8-124.6C330.7 2 250.7-13.9 175 13 130 29 81.2 54.2 46.1 87 4.4 126-2.2 159.9.5 174.1c9.7 50.4 79.2 83.2 107 107.5-1.4.8-2.7 1.5-3.8 2.1-13.9 6.9-66.9 34.6-80.1 63.9-15 33.2 2.4 57 13.9 60.2 35.7 9.9 72.4-7.9 92.1-37.3 19.7-29.4 17.3-67.6 8.2-85.1-.1-.2-.2-.4-.4-.6 3.6-2.1 7.3-4.3 10.9-6.4 7.1-4.2 14.1-8.1 20.1-11.3-3.4 9.3-5.9 20.4-7.1 36.4-1.5 18.8 6.2 43.2 16.3 52.8 4.5 4.2 9.8 4.3 13.2 4.3 11.8 0 17.1-9.8 23-21.4 7.2-14.2 13.7-30.7 13.7-30.7s-8.1 44.6 13.9 44.6c8 0 16.1-10.4 19.7-15.7v.1s.2-.3.6-1c.8-1.3 1.3-2.1 1.3-2.1v-.2c3.2-5.6 10.4-18.3 21.1-39.4 13.8-27.2 27.1-61.2 27.1-61.2s1.2 8.3 5.3 22.1c2.4 8.1 7.4 17 11.4 25.6-3.2 4.5-5.2 7-5.2 7l.1.1c-2.6 3.4-5.4 7.1-8.5 10.7-10.9 13-23.9 27.9-25.7 32.2-2.1 5.1-1.6 8.8 2.4 11.8 2.9 2.2 8.1 2.5 13.4 2.2 9.8-.7 16.7-3.1 20.1-4.6 5.3-1.9 11.5-4.8 17.3-9.1 10.7-7.9 17.2-19.2 16.6-34.1-.3-8.2-3-16.4-6.3-24.1 1-1.4 1.9-2.8 2.9-4.2 16.9-24.7 30-51.8 30-51.8s1.2 8.3 5.3 22.1c2 7 6.1 14.6 9.7 22-15.9 12.9-25.7 27.9-29.2 37.7-6.3 18.2-1.4 26.4 7.9 28.3 4.2.9 10.2-1.1 14.6-3 5.6-1.8 12.2-4.9 18.5-9.5 10.7-7.9 21-18.9 20.4-33.8-.3-6.8-2.1-13.5-4.6-20 13.5-5.6 30.9-8.7 53.1-6.1 47.6 5.6 57 35.3 55.2 47.8-1.8 12.5-11.8 19.3-15.1 21.4-3.3 2.1-4.4 2.8-4.1 4.3.4 2.2 2 2.1 4.8 1.7 3.9-.7 25-10.1 25.9-33.1 1.5-29.4-26.5-61.5-76-61.2zM104.2 359.8C88.4 377 66.4 383.5 56.9 378c-10.2-5.9-6.2-31.3 13.2-49.5 11.8-11.1 27-21.4 37.1-27.7 2.3-1.4 5.7-3.4 9.8-5.9.7-.4 1.1-.6 1.1-.6l2.4-1.5c7.1 26 .3 48.9-16.3 67zm115-78.2c-5.5 13.4-17 47.7-24 45.8-6-1.6-9.7-27.6-1.2-53.3 4.3-12.9 13.4-28.3 18.7-34.3 8.6-9.6 18.1-12.8 20.4-8.9 2.9 5.1-10.5 42.3-13.9 50.7zm94.9 45.4c-2.3 1.2-4.5 2-5.5 1.4-.7-.4 1-2 1-2s11.9-12.8 16.6-18.6c2.7-3.4 5.9-7.4 9.3-11.9v1.3c0 15.3-14.8 25.6-21.4 29.8zm73.2-16.7c-1.7-1.2-1.4-5.2 4.3-17.7 2.2-4.9 7.4-13.1 16.3-21 1 3.2 1.7 6.3 1.6 9.2-.1 19.3-13.9 26.5-22.2 29.5z"/></symbol><symbol viewBox="0 0 19.036 19.036" id="skype"><path d="M15.238.003C11.509.001 7.776.003 4.045.001a4.8 4.8 0 0 0-1.047.104C1.228.494.048 1.999.024 3.775-.021 7.452.011 11.126.012 14.801c0 .416.017.822.115 1.237.407 1.729 1.836 2.939 3.678 2.979 1.902.037 3.808.008 5.711.008 1.837 0 3.675-.002 5.511.002.354.002.697-.028 1.046-.108 1.759-.406 2.961-1.896 2.962-3.706.001-3.809.002-7.616 0-11.424A3.77 3.77 0 0 0 15.238.003zM15.2 15.252c-1.104 1.101-2.827 1.381-4.249.674-.208-.104-.393-.05-.578-.022-3.359.471-6.579-1.87-7.17-5.217-.069-.395-.121-.79-.103-1.19a4.244 4.244 0 0 1 .087-1.048.482.482 0 0 0-.055-.327c-1.011-2.128.018-4.534 2.255-5.253.916-.295 1.82-.218 2.69.191a.753.753 0 0 0 .438.08c2.074-.283 3.909.232 5.445 1.674 1.199 1.125 1.867 2.52 2.006 4.166a6.6 6.6 0 0 1-.067 1.589c-.02.127.01.236.068.354.719 1.464.417 3.148-.767 4.329zm-3.421-6.031c-.502-.25-1.041-.353-1.576-.479-.591-.138-1.198-.215-1.765-.447-.256-.106-.469-.266-.489-.574-.019-.338.134-.59.423-.754.115-.063.241-.127.369-.146.84-.145 1.614-.053 2.208.65.115.139.24.271.4.36.317.179.762.123 1.039-.131.221-.205.272-.565.127-.899a1.405 1.405 0 0 0-.498-.615c-1.467-1.004-3.034-1.108-4.63-.396-1.025.458-1.464 1.506-1.205 2.565.178.739.691 1.16 1.365 1.417.542.211 1.116.309 1.678.453.423.107.856.188 1.263.34.625.229.726.867.269 1.352-.516.545-2.198.607-2.837-.275a5.137 5.137 0 0 0-.36-.442c-.279-.31-.773-.392-1.093-.189-.336.211-.446.612-.295 1.034.148.414.435.714.786.954.779.534 1.665.662 2.58.668.901-.004 1.762-.142 2.519-.685 1.191-.86 1.238-3.013-.278-3.761z" fill="#FFF"/></symbol><symbol viewBox="0 0 511.98 251.23" id="social"><title>social</title><path class="ra" d="M470.54 168.28a41.36 41.36 0 0 0-34.85 19.06l-90.12-43.22a25 25 0 1 0-46.57 4.93l-20.19 17.72-48-30.67a25.08 25.08 0 0 0-.57-17.81L271 89.97a21.56 21.56 0 0 0 35.72-23.23l20.85-13.3a17.25 17.25 0 0 0 26.56-5.1l48.66 10.78 2.31-10.45L356 37.8a19.14 19.14 0 0 0-.45-2.21l14.09-9a15.4 15.4 0 1 0-4.82-11.16c0 .5.1 1 .14 1.45l-15.25 9.73a17.35 17.35 0 0 0-28.32 13.54 18 18 0 0 0 .55 4.18l-21.91 14a21.33 21.33 0 0 0-28.91 2.63l-29.55-6.66v-.41a18.14 18.14 0 0 0-.23-2.29l26.54-13.21a16.53 16.53 0 1 0-4.19-10.92c0 .34.09.66.11 1l-27 13.46a17.35 17.35 0 0 0-27.3 2.56l-11.75-4.7c0-.15.05-.29.05-.45a16.56 16.56 0 0 0-28.91-11.07l-7.28-2.91a14.47 14.47 0 1 0-3.21 10.25l6.3 2.52c0 .41-.12.81-.12 1.23A16.55 16.55 0 0 0 194 49.81l12.84 5.13c0 .61.08 1.23.18 1.83l-43.37 21.6a20.87 20.87 0 0 0-37.3 13 20.59 20.59 0 0 0 .75 5.25l-72.35 35.99A30 30 0 1 0 60 149.52a29.67 29.67 0 0 0-.89-7.11l73.22-36.46a20.74 20.74 0 0 0 35.63-17.76l44-21.9A17.35 17.35 0 0 0 238 64.46l28 6.32a22.31 22.31 0 0 0-.55 4.73 21.78 21.78 0 0 0 .61 4.92l-41.71 28.94a26.37 26.37 0 1 0 1.22 36.07l44.91 28.69-10.71 9.4a35.72 35.72 0 1 0 6.72 8.35l39.23-34.44a24.58 24.58 0 0 0 35.07-3.73l90.3 43.31a41.46 41.46 0 1 0 39.45-28.74z"/></symbol></svg>