<?xml version="1.0" encoding="iso-8859-1"?><!DOCTYPE svg PUBLIC "-//W3C//DTD SVG 1.1//EN" "http://www.w3.org/Graphics/SVG/1.1/DTD/svg11.dtd"><svg width="105" height="70" viewBox="0 0 105 70" xmlns="http://www.w3.org/2000/svg" xmlns:xlink="http://www.w3.org/1999/xlink"><view id="github" viewBox="0 0 35 35"/><svg width="35" height="35" viewBox="0 0 35.318 35.318"><path d="M23.71 34.689c-.172.062-.345.137-.522.168-.678.121-1.112-.229-1.116-.922-.009-1.287-.009-2.572.012-3.859.022-1.48-.012-2.941-1.139-4.162.67-.12 1.266-.204 1.849-.338 3.862-.887 5.868-3.323 6.124-7.366.131-2.058-.236-3.946-1.604-5.567-.099-.114-.104-.373-.057-.539.364-1.34.258-2.649-.166-3.959-.105-.327-.279-.428-.602-.407-1.134.063-2.173.461-3.089 1.073-.883.593-1.705.722-2.754.482-2.31-.521-4.635-.369-6.94.165-.261.062-.612-.021-.851-.161-1.082-.634-2.164-1.25-3.412-1.496-.965-.188-1.049-.14-1.305.793-.322 1.176-.354 2.353-.025 3.536.047.172-.002.448-.117.575-2.557 2.853-1.631 8.244.092 10.309 1.34 1.604 3.12 2.326 5.096 2.701.345.064.688.113 1.033.173-.296.77-.562 1.497-.863 2.212-.059.138-.246.254-.399.312-1.938.752-3.604.199-4.713-1.56-.593-.938-1.354-1.639-2.488-1.842-.036-.007-.073-.026-.106-.021-.305.08-.607.164-.911.246.171.238.292.558.521.701.961.608 1.586 1.475 1.999 2.498.649 1.604 1.909 2.319 3.546 2.459.799.065 1.606.01 2.481.01 0 .996.036 2.133-.015 3.265-.026.61-.639.854-1.373.604-1.947-.666-3.752-1.621-5.311-2.963C.956 26.96-1.214 20.83.657 13.655 2.522 6.503 7.383 2.116 14.651.739 24.708-1.163 34.235 6.161 35.233 16.37c.788 8.048-3.949 15.579-11.523 18.319zm-9.481-8.839l-.016.038.055.009c.014.001.026.026-.039-.047zm-4.55 3.181c.157.097.307.22.477.273.062.02.177-.121.38-.271-.282-.107-.448-.201-.623-.225-.068-.008-.156.145-.234.223zm1.433.246c.023.105.232.236.355.234.119-.002.235-.16.354-.25-.108-.099-.216-.195-.548-.494-.072.208-.191.376-.161.51zm1.758-.423c-.148.035-.273.172-.408.266.079.1.158.193.285.35.175-.16.294-.271.414-.379-.1-.087-.217-.255-.291-.237zm-4.358-.593c.082.155.209.289.381.508.115-.188.24-.332.218-.361a1.931 1.931 0 0 0-.403-.367c-.01-.008-.213.186-.196.22z"/></svg><view id="linkedin" viewBox="35 0 35 35"/><svg width="35" height="35" viewBox="0 0 512 512" x="35"><path d="M256 0C114.609 0 0 114.609 0 256c0 141.391 114.609 256 256 256 141.391 0 256-114.609 256-256C512 114.609 397.391 0 256 0zm0 472c-119.297 0-216-96.703-216-216S136.703 40 256 40s216 96.703 216 216-96.703 216-216 216z"/><path d="M128.094 383.891h48v-192h-48v192zm192-192c-41.094.688-61.312 30.641-64 32v-32h-48v192h48v-112c0-4.108 10.125-37 48-32 20.344 1.328 31.312 28.234 32 32v112l47.812.219V251.188c-1.687-19.188-11.281-58.61-63.812-59.297zm-168-64c-13.25 0-24 10.734-24 24s10.75 24 24 24 24-10.734 24-24-10.75-24-24-24z"/></svg><view id="mail" viewBox="0 35 35 35"/><svg width="35" height="35" viewBox="0 0 512 512" y="35"><path d="M256 0C114.609 0 0 114.609 0 256c0 141.391 114.609 256 256 256 141.391 0 256-114.609 256-256C512 114.609 397.391 0 256 0zm0 472c-119.297 0-216-96.703-216-216S136.703 40 256 40s216 96.703 216 216-96.703 216-216 216z"/><path d="M256 176H128v160h256V176H256zm0 16h89.719L256 255.75 166.281 192H256zm-112 4.531l54.5 36.859-54.5 59.422v-96.281zM256 320h-92.406l45.562-79.422L256 272.25l46.844-31.672L348.406 320H256zm112-27.188l-54.5-59.422 54.5-36.859v96.281z"/></svg><view id="phone" viewBox="35 35 35 35"/><svg width="35" height="35" viewBox="0 0 512 512" x="35" y="35"><path d="M256 0C114.609 0 0 114.609 0 256c0 141.391 114.609 256 256 256 141.391 0 256-114.609 256-256C512 114.609 397.391 0 256 0zm0 472c-119.297 0-216-96.703-216-216S136.703 40 256 40s216 96.703 216 216-96.703 216-216 216z"/><path d="M327.125 383.969c5.703.016 56.875-37.828 56.875-42.656s-57.266-40.905-62.219-40.905-21.578 19.938-26.062 22.155c-4.5 2.22-32.5 1.422-63.703-29.78-31.219-31.188-41.875-67.109-41.875-72.75 0-5.641 26.031-23.062 26.75-27.156.719-4.094-34.313-64.876-40-64.876S128 180.5 128 184.875s3.953 60.656 75.219 131.906 118.203 67.157 123.906 67.188z"/></svg><view id="skype" viewBox="70 0 35 35"/><svg width="35" height="35" viewBox="0 0 512 512" x="70"><path d="M256 0C114.609 0 0 114.609 0 256c0 141.391 114.609 256 256 256 141.391 0 256-114.609 256-256C512 114.609 397.391 0 256 0zm0 472c-119.297 0-216-96.703-216-216S136.703 40 256 40s216 96.703 216 216-96.703 216-216 216z"/><path d="M366.734 256.297c0-63.016-51.095-114.109-114.125-114.109-5.891 0-11.641.578-17.281 1.438-11.39-9.72-26.125-15.626-42.25-15.626C157.156 128 128 157.141 128 193.078c0 14.672 4.906 28.172 13.109 39.047-1.672 7.797-2.609 15.875-2.609 24.172 0 63.047 51.078 114.141 114.109 114.141 8.094 0 16-.875 23.609-2.483C287.656 377.922 302.562 384 318.922 384 354.859 384 384 354.859 384 318.922c0-17.766-7.125-33.844-18.688-45.578.844-5.594 1.422-11.25 1.422-17.047zM305.859 306c-4.484 6.391-11.078 11.391-19.734 15-8.656 3.641-18.922 5.438-30.781 5.438-14.25 0-26-2.469-35.25-7.422-6.547-3.547-11.875-8.297-15.984-14.25-4.094-5.922-6.156-11.703-6.156-17.312 0-3.267 1.234-6.047 3.688-8.359 2.469-2.327 5.609-3.483 9.406-3.483 3.078 0 5.703.891 7.828 2.719 2.125 1.797 3.953 4.484 5.453 8.031 1.844 4.233 3.828 7.75 5.953 10.578 2.125 2.844 5.141 5.188 9 7.016 3.875 1.844 8.969 2.766 15.25 2.766 8.672 0 15.702-1.844 21.108-5.562 5.406-3.703 8.125-8.328 8.125-13.892 0-4.391-1.453-7.969-4.375-10.703-2.922-2.75-6.688-4.844-11.328-6.297-4.625-1.438-10.78-2.983-18.546-4.608-10.359-2.234-19.031-4.845-26.016-7.812-6.984-3-12.547-7.062-16.625-12.219-4.109-5.172-6.156-11.578-6.156-19.219 0-7.312 2.156-13.781 6.5-19.453 4.312-5.656 10.578-10.031 18.797-13.062 8.203-3.047 17.828-4.562 28.922-4.562 8.844 0 16.516 1 22.969 3.016 6.469 2.016 11.827 4.703 16.094 8.047 4.25 3.359 7.375 6.875 9.345 10.547 1.969 3.672 2.952 7.266 2.952 10.75 0 3.203-1.233 6.094-3.672 8.656-2.469 2.547-5.547 3.844-9.219 3.844-3.345 0-5.892-.781-7.625-2.312-1.734-1.531-3.625-4.047-5.656-7.547-2.625-5-5.767-8.922-9.453-11.719-3.672-2.797-9.577-4.203-17.719-4.203-7.531 0-13.609 1.516-18.234 4.562-4.641 3.031-6.938 6.703-6.938 10.984 0 2.656.781 4.953 2.359 6.875 1.562 1.938 3.734 3.578 6.5 4.969a46.987 46.987 0 0 0 8.359 3.281c2.812.766 7.469 1.922 13.969 3.422 8.125 1.75 15.484 3.688 22.078 5.797 6.594 2.109 12.203 4.672 16.828 7.672 4.641 3.031 8.25 6.844 10.828 11.453 2.594 4.609 3.891 10.266 3.891 16.969 0 7.995-2.25 15.213-6.735 21.604z"/></svg></svg>