<?xml version="1.0" encoding="utf-8"?>
<!-- Generator: Adobe Illustrator 19.2.1, SVG Export Plug-In . SVG Version: 6.00 Build 0)  -->
<svg version="1.1" id="fCapa_1" xmlns="http://www.w3.org/2000/svg" xmlns:xlink="http://www.w3.org/1999/xlink" x="0px" y="0px"
	 viewBox="0 0 237 132" style="enable-background:new 0 0 237 132;" xml:space="preserve">
<style type="text/css">
	.st0{fill:#E44D26;}
	.st1{fill:#F16529;}
	.st2{fill:#EBEBEB;}
	.st3{fill:#FFFFFF;}
	.st4{fill:#264DE4;}
	.st5{fill:#2965F1;}
	.st6{fill:#FBA919;}
	.st7{fill:#E78724;}
	.st8{fill:#FDC168;}
	.st9{fill:#C9C9C9;}
	.st10{fill:#463014;}
	.st11{fill:#DA4648;}
	.st12{fill:#0868AC;}
	.st13{fill:#CD6799;}
</style>
<view  id="HTML5" preserveAspectRatio="xMidYMid meet" viewBox="0 0 66 66" zoomAndPan="magnify"></view>
<title>HTML5 Logo</title>
<path class="st0" d="M18.5,54l-3.2-36.2h35.4L47.5,54L33,58L18.5,54z"/>
<path class="st1" d="M33,54.9l11.7-3.2l2.8-30.9H33V54.9z"/>
<path class="st2" d="M33,34.2h-5.9l-0.4-4.5H33v-4.4H21.9l0.1,1.2l1.1,12.2H33V34.2z M33,45.7L33,45.7l-5-1.3l-0.3-3.5h-4.5l0.6,7
	l9.1,2.5l0,0L33,45.7L33,45.7z"/>
<path class="st3" d="M18.6,8h2.3v2.2H23V8h2.3v6.7H23v-2.3h-2.1v2.3h-2.3V8L18.6,8z M28.1,10.2h-2V8h6.2v2.2h-2v4.5H28L28.1,10.2
	L28.1,10.2z M33.3,8h2.3l1.4,2.4L38.6,8H41v6.7h-2.2v-3.3l-1.6,2.4l0,0l-1.6-2.4v3.3h-2.2V8H33.3z M42.1,8h2.3v4.5h3.2v2.2h-5.4
	L42.1,8L42.1,8z"/>
<path class="st3" d="M33,34.2v4.4h5.5L38,44.4l-5,1.3v4.6l9.1-2.5l0.1-0.7l1-11.7l0.1-1.2h-1.2C42.1,34.2,33,34.2,33,34.2z M33,25.2
	v4.4h10.7l0.1-1l0.2-2.2l0.1-1.2L33,25.2z"/>
<view  id="css3" preserveAspectRatio="xMidYMid meet" viewBox="66 0 51.42 66" zoomAndPan="magnify"></view>
<title>css3</title>
<path class="st4" d="M91.7,58l-14.5-4L74,17.8h35.4L106.2,54L91.7,58L91.7,58z"/>
<path class="st5" d="M103.4,51.7l2.8-30.9H91.7v34.1L103.4,51.7L103.4,51.7z"/>
<path class="st2" d="M81.4,34.2l0.4,4.4h9.9v-4.4H81.4z M80.6,25.2l0.4,4.4h10.7v-4.4H80.6z M91.7,45.7L91.7,45.7l-5-1.3l-0.3-3.5
	H82l0.6,7l9.1,2.5l0,0V45.7L91.7,45.7z"/>
<path class="st3" d="M82.3,8h5.4v2.2h-3.1v2.2h3.1v2.2h-5.4V8z M88.8,8h5.4v2H91v0.4h3.1v4.5h-5.4v-2.1h3.1v-0.4h-3.1
	C88.8,12.4,88.8,8,88.8,8z M95.2,8h5.4v2h-3.1v0.4h3.1v4.5h-5.4v-2.1h3.1v-0.4h-3.1V8z"/>
<path class="st3" d="M102,34.2l0.8-9H91.7v4.4h6.2l-0.4,4.5h-5.8v4.4h5.5l-0.5,5.8l-4.9,1.3v4.6l9.1-2.5L101,47l1-11.7L102,34.2
	L102,34.2z"/>
<view  id="grunt" preserveAspectRatio="xMidYMid meet" viewBox="117.42 0 53.21 66" zoomAndPan="magnify"></view>
<path class="st6" d="M127.9,20.1c0,0,0.9,3.3,1,4.4c0.1,1.1-2.2,3.5-2.2,4.8c0,1.2,0.5,3.4,3.2,4.5s3,3.9,3,5.6c0,1.7-1,5-1,5
	s-0.6,8.2,2.7,9.6c3.3,1.5,2.6,1.5,3.3,1.5s6.1,2.2,9.3,1.3s4-1.8,4-1.8s3.2,0.2,4.1-2.6c1-2.8,1.6-8.7,1.2-11.3
	c-0.4-2.7-0.9-6.2,1.3-7.4s4.5-2.7,4.1-3.9c-0.4-1.2-2.3-2.9-2.3-2.9s-0.5-3-0.1-3.8c0.4-0.7,2.6-2.6,1.3-3.9
	c-1.2-1.3-3.4-1.3-3.4-1.3l-2.8,0.2c0,0-4.8-4.3-11-4c-6.2,0.2-10.1,4-10.1,4s-2.1-0.7-3.9,0C127.9,18.8,127.6,18,127.9,20.1z"/>
<path class="st7" d="M139.1,38.3c0,0-2.4,3.7-4.2,6.3c-0.3,0.4,1.8,0.4,1.8,0.4L139.1,38.3L139.1,38.3z M140.2,30.6
	c0,0-0.7,1.8-1.1,2.8c-0.4,1-2.1,1.6-2.1,1.6s0.9-0.9,0.9-3.2c0-1,1.2-1.3,1.2-1.3L140.2,30.6L140.2,30.6z"/>
<path class="st7" d="M139.5,31.6c0,0-1.5,1.8-4.3,0.8s-3.1-4.5-3.1-5.5s5.3,1,6,1.4C138.9,28.7,140.2,30.4,139.5,31.6L139.5,31.6z
	 M129,12.7c0,0,2.6-0.5,4.3,0.9c1.7,1.3,2.2,2.4,2.2,2.4l-2.9,2.3c0,0-1.4-0.6-1.8-2.5S130.7,13,129,12.7z"/>
<path class="st7" d="M138.7,26.5c-1.1-1.6-2.9-2.2-4.4-2.4c-2.5-0.2-3.6,0.7-3.6,0.7s4,0.2,5.2,1.7c2.2,2.9,5.3,3.1,5.8,2.5
	c-0.6,0-1.2-0.3-1.9-0.9C139.4,27.7,139.1,27,138.7,26.5z M131.9,32c0,0-4.5-1.5-3.6-3.1s0.2-2.4,0.2-2.4s-2.5,1.9-1.9,3.9
	c0.4,1.2,1.1,2.1,4.7,3.8c1.7,3.2,0.4,9,0.4,9c0.1,0,2.4-1.1,2.3-6.6C133.9,35,133.8,32.7,131.9,32L131.9,32z M137.8,15.5
	c-1.9,1-4.5,2.3-4.5,2.3l1,0.5c-0.1,0.2-0.1,0.3-0.1,0.3l1,0.5c0,0,2.5,1.8,4.1,3c-0.5-1.6-2-4.1-2-4.1S136.9,16.7,137.8,15.5
	L137.8,15.5z M144.1,54.4c-5.8,0-7.7-2.9-7.7-2.9l0.9,2.2c0.3,1,4,3.9,6.8,3.9"/>
<path class="st7" d="M136.9,49.5c0,0,0.5,3.3,2.7,3.3c1.8,0,2.3-2.7,2.3-3.3C142,49.4,136.9,49.5,136.9,49.5z M133.4,44.6
	c0.2-0.5,0.9-2.6,1.1-4.5c0.3-2.3,0.2-5.7,0.2-5.7s-0.6,2.2-1.1,2.6c-0.5,0.4-1.4,2.8-1.4,2.8s-0.5,3.6-0.7,4.8
	C132.1,44.7,132.6,44.3,133.4,44.6z M128.3,30.3c0,0,1.2-0.4,1.6-3.1c0.4-2.6-0.4-4.9-0.4-4.9s0.1,3.6-0.4,4.3
	c-0.4,0.7-0.8,0.9-1.3,1.8C127.3,29.5,128,30.1,128.3,30.3z"/>
<path class="st8" d="M129.7,13.3l-0.2-0.2C128.7,13.2,129.7,13.3,129.7,13.3z"/>
<path class="st6" d="M138.8,14.7c0,0-1.1-0.2-1.7-1c-0.6-0.9-2.2-2.6-4.7-2.6c-2.6,0-5.1,0.7-5.1,0.7l2.2,1.4c0.2,0,0.6,0,1.3,0
	c2.8,0.1,3.2,2.8,3.2,2.8l9.8-1.3"/>
<path class="st3" d="M139.7,29.9c0,0-1.3,1.3-3.4,0.9c-2-0.4-3.3-1.3-3.4-2.9c-0.1-1.6,0.4-2.2,0.4-2.2s2.3,0.7,3.4,1.7
	C137.9,28.3,138.7,29.8,139.7,29.9L139.7,29.9z"/>
<path class="st9" d="M138.1,29.4c0,0-1.2,0.5-2.4,0.1c-1.7-0.6-1.8-2.3-1.8-2.3s-1,3,1.9,3.6c2.3,0.5,3.7-0.9,3.7-0.9L138.1,29.4
	L138.1,29.4z"/>
<path class="st10" d="M138.9,14c-0.1-2.6,2-4.7,2.7-4.8c0,0.4,0,2.2,0.7,2.7c0.2-1.4,0.9-2.9,3.8-4c-0.6,1.6-0.1,3,0.2,3.6
	c2-1.8,3.3-1.5,3.3-1.5s-1.4,2.3-0.8,3.9C144.9,13.7,139,14.4,138.9,14L138.9,14z M130.6,18c-0.9-0.8-0.2-1.5-0.3-2.4
	c0-0.5-0.1-0.9-0.2-1.2c-0.9-1.4-2.9-1.8-2.9-1.8l-1-0.2l0.6-0.7c0.1-0.1,2.7-2.6,6.7-1.3c2.8,0.9,4.9,4,5,4.1l-1.4,0.7
	c0,0-1.7-2.9-4.1-3.7c-2-0.6-3.7,0-4.5,0.4c0.8,0.3,1.9,0.9,2.5,1.9c0.3,0.5,0.4,1.1,0.4,1.7c0.1,0.8,0.1,1.5,0.7,2L130.6,18z
	 M128.1,29.4c0,0,1.2-1.5,1.5-4.3c0.1-1.1-0.1-3.3-0.5-4.2c0.1,2.1-0.5,4.2-0.5,4.2S128.3,28.9,128.1,29.4z"/>
<path class="st10" d="M134.3,16.5c0,0-0.4-1.7-1.4-2.5c-1.5-1.2-3.3-0.6-3.3-0.5l-0.3-0.8c0.1,0,2.2-0.7,4.1,0.7
	c1.9,1.3,2.1,2.6,2.2,2.7L134.3,16.5L134.3,16.5z M131.8,28.3c0,0-0.6-0.9-0.5-1.9c0.1-0.5,0.3-1,0.7-1.2c0.7-0.3,1.1,0.5,1.1,0.5
	S132,26.1,131.8,28.3z"/>
<path class="st10" d="M138.6,29.7C138.6,29.7,138.7,29.7,138.6,29.7c0,0.1-1.9,1.5-3.9,0.1c-1.1-0.8-1-2.7-0.6-3.6
	c0.8,0.2,1.6,0.5,2.2,0.9c-0.8-0.7-1.4-1.2-1.4-1.2l-0.9-0.2l-1.7-0.6c0,0.1-0.6,3,1.1,4.9c0.8,0.9,4.4,2.8,6.2-0.5L138.6,29.7
	L138.6,29.7z"/>
<path class="st10" d="M138.4,29.9c1.1,1.7,3.8,0.7,3.8-1c0,0-1.8,1-3.5-0.9c-0.9-1.1-4-4.1-8.1-3.1
	C133.5,25.5,137.3,28.1,138.4,29.9L138.4,29.9z"/>
<path class="st10" d="M130.3,34.5c0.3,0.2,1.2,1.1,1.2,2.5c0,0.7-0.1,4.3-0.4,6.5c0.5,0.3,0.9,0.4,1.4,0.8c0.3-2.6,0.5-6.2,0.4-7.7
	c-0.1-1.7-1-2.8-1.9-3.3c-0.3-0.2-0.5-0.3-0.8-0.5c-1.4-0.8-2.9-1.6-2.9-3c0-1.1,0.4-1.4,0.9-1.8l0,0c0.3-0.2,0.6-0.5,0.8-1
	c0.5-1.2,0.6-4.3,0-5.1c-0.3-0.4-1.2-1.7-0.9-2.6c0.1-0.3,0.3-0.6,0.6-0.8c0.4-0.2,0.9-0.3,1.5-0.3c1.2,0,2.5,0.4,3.2,0.6
	c2.4,0.8,5.4,3,6.2,3.7l0,0l0.5,0.4l-0.3-0.6c0,0-2.2-3.6-6-4.8c-0.7-0.3-2.2-0.7-3.6-0.7c-0.9,0-1.6,0.1-2.2,0.4
	c-0.7,0.4-1.2,0.9-1.4,1.7c-0.5,1.8,1.1,3.7,1.1,3.8c0.2,0.3,0.3,2.7-0.2,3.7c-0.1,0.1-0.2,0.3-0.4,0.4c-0.1,0.1-0.1,0.1-0.2,0.2
	c-0.6,0.5-1.5,1.1-1.5,2.7c0,2.2,2.2,3.3,3.9,4.3C129.8,34.3,130,34.4,130.3,34.5z"/>
<path class="st10" d="M130.6,18c-0.9-0.8-0.2-1.5-0.3-2.4c0-0.5-0.1-0.9-0.2-1.2c-0.9-1.4-2.9-1.8-2.9-1.8l-1-0.2l0.6-0.7
	c0.1-0.1,2.7-2.6,6.7-1.3c2.8,0.9,4.9,4,5,4.1l-1.4,0.7c0,0-1.7-2.9-4.1-3.7c-2-0.6-3.7,0-4.5,0.4c0.8,0.3,1.9,0.9,2.5,1.9
	c0.3,0.5,0.4,1.1,0.4,1.7c0.1,0.8,0.1,1.5,0.7,2L130.6,18z"/>
<path class="st10" d="M130.6,18.1L130.6,18.1c-0.8-0.6-0.6-1.2-0.5-1.7c0.1-0.3,0.1-0.5,0.1-0.8c0-0.5-0.1-0.9-0.2-1.1
	c-0.8-1.3-2.8-1.7-2.8-1.7l-1.2-0.2l0.8-0.9c0,0,1.7-1.7,4.5-1.7c0.8,0,1.6,0.1,2.3,0.4c2.9,0.9,5,4.1,5,4.2l0.1,0.1l-1.7,0.8
	l-0.1-0.1c-0.2-0.3-1.8-2.9-4-3.6c-0.5-0.2-1.1-0.3-1.7-0.3c-1.1,0-1.9,0.3-2.4,0.5c0.8,0.3,1.7,0.9,2.3,1.9
	c0.3,0.5,0.4,1.1,0.4,1.7c0.1,0.7,0.1,1.5,0.6,1.9l0.2,0.2L130.6,18.1L130.6,18.1z"/>
<path class="st10" d="M134.3,16.5c0,0-0.4-1.7-1.4-2.5c-1.5-1.2-3.3-0.6-3.3-0.5l-0.3-0.8c0.1,0,2.2-0.7,4.1,0.7
	c1.9,1.3,2.1,2.6,2.2,2.7L134.3,16.5L134.3,16.5z"/>
<path class="st10" d="M134.2,16.7v-0.2c0,0-0.4-1.6-1.4-2.4c-0.6-0.5-1.3-0.7-2-0.7c-0.6,0-1.1,0.1-1.1,0.2h-0.1l-0.4-1.1h0.1
	c0.1,0,0.6-0.2,1.4-0.2c1,0,2,0.3,2.8,0.9c2,1.4,2.2,2.7,2.2,2.8v0.1L134.2,16.7z M130.8,13.2c0.8,0,1.6,0.3,2.2,0.7
	c0.9,0.7,1.3,2,1.4,2.4l1-0.4c-0.1-0.3-0.5-1.4-2.1-2.5c-0.8-0.5-1.7-0.8-2.6-0.8c-0.5,0-1,0.1-1.2,0.1l0.2,0.5
	C129.9,13.2,130.3,13.2,130.8,13.2z M139.5,52c-0.4,0-0.8-0.2-1.1-0.4c-0.2-0.2-1-0.9-1.3-1.8c-0.1-0.3-0.1-0.6,0.1-0.8
	c0.1-0.1,0.4-0.3,0.9-0.3h0.4c0.5,0,1.2,0,1.9,0h0.6c0.4,0,0.7,0.1,0.9,0.3s0.1,0.5,0.1,0.6c-0.1,0.3-0.5,1.1-1.3,1.9
	C140.3,51.8,139.9,52,139.5,52z M140,30l-1.5-0.1c0,0,0.4,0.7,0.6,1.6c0.3,1-0.3,2.5-0.3,2.5S140.8,31.6,140,30z M138.1,56
	c-5.4-0.4-7.3-5.5-7.3-6.6h1.4h-0.7h0.7c0,0.5,1.4,4.8,6,5.2C138.2,54.6,138.1,56,138.1,56z"/>
<path class="st3" d="M136.6,46.8c-0.1-0.5-0.1-0.9,0-1.4c-0.4-0.3-1.1-0.4-1.7-0.6c-0.5-0.3-2.8,0.3-4.4-1.7
	c-2.1-2.5-1.7-4.1-1.7-4.1c-0.5,0.6-1.1,0.4-1.9,3.2s0.4,4.7,2.6,6.7c1.1,0.9,2.6,1.3,3.9,1.4c-0.4-0.4,0.7-0.5,1.5-0.8
	c-0.1-0.7,0-1.3,0.5-1.8c0.3-0.3,0.7-0.5,1.1-0.6c0-0.1,0-0.1,0.1-0.1C136.6,46.9,136.6,46.9,136.6,46.8z"/>
<path class="st9" d="M134.9,49.5c0-0.1-0.1-0.3-0.1-0.4c0-0.2-0.2-0.6,0-0.1c-0.1-0.1-0.1-0.3-0.1-0.4c-3.6,0-6.8-2.5-6.2-7.8
	c-0.5-0.6-1.1,1.3-1.1,1.3s-1.8,5.3,2.9,7.3c1.6,0.7,3,1.2,3.3,1c0.7,0.1,1.3-0.3,1.5-0.6C135,49.7,135,49.6,134.9,49.5z"/>
<path class="st10" d="M136.5,46.1c0-0.4,0.1-0.9,0.3-1.3v-0.1c-1.4,0-3-0.1-4.4-0.7c-1.5-0.6-3.4-2.7-3.7-5.1c0,0-2.8,2.2-2,6.9
	c0.8,4.4,4.5,5.9,8.7,6.1c0,0-0.5-1-0.3-1.6c-2.4,0.2-5.1-0.8-6.4-2.9c-1.2-1.9-0.9-5.3-0.4-5.8C129.5,45.4,133.8,46.2,136.5,46.1z"
	/>
<path class="st10" d="M136.9,43.4c-0.8,2.2-2.3,4-2.3,4s2.1-0.1,2.2-0.5c0.1-0.3,1.9-4.6,2.6-9.6C138.8,38.4,137,43.2,136.9,43.4z"
	/>
<path class="st7" d="M149,38.3c0,0,2.4,3.7,4.2,6.3c0.3,0.4-1.8,0.4-1.8,0.4L149,38.3L149,38.3z M147.8,30.6c0,0,0.7,1.8,1.1,2.8
	c0.4,1,2.1,1.6,2.1,1.6s-0.9-0.9-0.9-3.2c0-1-1.2-1.3-1.2-1.3L147.8,30.6L147.8,30.6z"/>
<path class="st7" d="M148.6,31.6c0,0,1.5,1.8,4.3,0.8s3.1-4.5,3.1-5.5s-5.3,1-6,1.4C149.2,28.7,147.9,30.4,148.6,31.6z M159,12.7
	c0,0-2.6-0.5-4.3,0.9c-1.7,1.3-2.2,2.4-2.2,2.4l2.9,2.3c0,0,1.4-0.6,1.8-2.5C157.7,13.9,157.4,13,159,12.7z"/>
<path class="st7" d="M149.3,26.5c1.1-1.6,2.9-2.2,4.4-2.4c2.5-0.2,3.6,0.7,3.6,0.7s-4,0.2-5.2,1.7c-2.2,2.9-5.3,3.1-5.8,2.5
	c0.6,0,1.2-0.3,1.9-0.9C148.6,27.7,149,27,149.3,26.5z M156.2,32c0,0,4.5-1.5,3.6-3.1s-0.2-2.4-0.2-2.4s2.5,1.9,1.9,3.9
	c-0.4,1.2-1.1,2.1-4.7,3.8c-1.7,3.2-0.4,9-0.4,9c-0.1,0-2.4-1.1-2.3-6.6C154.1,35,154.3,32.7,156.2,32z M150.3,15.5
	c1.9,1,4.5,2.3,4.5,2.3l-1,0.5c0.1,0.2,0.1,0.3,0.1,0.3l-1,0.5c0,0-2.5,1.8-4.1,3c0.5-1.6,2-4.1,2-4.1S151.2,16.7,150.3,15.5z
	 M144,54.4c5.8,0,7.7-2.9,7.7-2.9l-0.9,2.2c-0.3,1-4,3.9-6.8,3.9"/>
<path class="st7" d="M151.1,49.5c0,0-0.5,3.3-2.7,3.3c-1.8,0-2.3-2.7-2.3-3.3H151.1z M154.7,44.6c-0.2-0.5-0.9-2.6-1.1-4.5
	c-0.3-2.3-0.2-5.7-0.2-5.7s0.6,2.2,1.1,2.6c0.5,0.4,1.4,2.8,1.4,2.8s0.5,3.6,0.7,4.8C156,44.7,155.5,44.3,154.7,44.6z M159.8,30.3
	c0,0-1.2-0.4-1.6-3.1c-0.4-2.6,0.4-4.9,0.4-4.9s-0.1,3.6,0.4,4.3c0.4,0.7,0.8,0.9,1.3,1.8C160.8,29.5,160.1,30.1,159.8,30.3z"/>
<path class="st8" d="M158.4,13.3l0.2-0.2C159.4,13.2,158.4,13.3,158.4,13.3z"/>
<path class="st6" d="M149.3,14.7c0,0,1.1-0.2,1.7-1c0.6-0.9,2.2-2.6,4.7-2.6c2.6,0,5.1,0.7,5.1,0.7l-2.2,1.4c-0.2,0-0.6,0-1.3,0
	c-2.8,0.1-3.2,2.8-3.2,2.8l-9.8-1.3"/>
<path class="st3" d="M148.3,29.9c0,0,1.3,1.3,3.4,0.9c2-0.4,3.3-1.3,3.4-2.9c0.1-1.6-0.4-2.2-0.4-2.2s-2.3,0.7-3.4,1.7
	C150.2,28.3,149.4,29.8,148.3,29.9z"/>
<path class="st9" d="M149.9,29.4c0,0,1.2,0.5,2.4,0.1c1.7-0.6,1.8-2.3,1.8-2.3s1,3-1.9,3.6c-2.3,0.5-3.7-0.9-3.7-0.9L149.9,29.4
	L149.9,29.4z"/>
<path class="st10" d="M157.5,18c0.9-0.8,0.2-1.5,0.3-2.4c0-0.5,0.1-0.9,0.2-1.2c0.9-1.4,2.9-1.8,2.9-1.8l1-0.2l-0.6-0.7
	c-0.1-0.1-2.7-2.6-6.7-1.3c-2.8,0.9-4.9,4-5,4.1l1.4,0.7c0,0,1.7-2.9,4.1-3.7c2-0.6,3.7,0,4.5,0.4c-0.8,0.3-1.9,0.9-2.5,1.9
	c-0.3,0.5-0.4,1.1-0.4,1.7c-0.1,0.8-0.1,1.5-0.7,2C155.9,17.5,157.5,18,157.5,18z M160,29.4c0,0-1.2-1.5-1.5-4.3
	c-0.1-1.1,0.1-3.3,0.5-4.2c-0.1,2.1,0.5,4.2,0.5,4.2S159.8,28.9,160,29.4z"/>
<path class="st10" d="M153.7,16.5c0,0,0.4-1.7,1.4-2.5c1.5-1.2,3.3-0.6,3.3-0.5l0.3-0.8c-0.1,0-2.2-0.7-4.1,0.7
	c-1.9,1.3-2.1,2.6-2.2,2.7L153.7,16.5z M156.3,28.3c0,0,0.6-0.9,0.5-1.9c-0.1-0.5-0.3-1-0.7-1.2c-0.7-0.3-1.1,0.5-1.1,0.5
	S156.1,26.1,156.3,28.3z"/>
<path class="st10" d="M149.5,29.7C149.4,29.7,149.4,29.7,149.5,29.7c0,0.1,1.9,1.5,3.9,0.1c1.1-0.8,1-2.7,0.6-3.6
	c-0.8,0.2-1.6,0.5-2.2,0.9c0.8-0.7,1.4-1.2,1.4-1.2l0.9-0.2l1.7-0.6c0,0.1,0.6,3-1.1,4.9c-0.8,0.9-4.4,2.8-6.2-0.5L149.5,29.7
	L149.5,29.7z"/>
<path class="st10" d="M149.6,29.9c-1.1,1.7-3.8,0.7-3.8-1c0,0,1.8,1,3.5-0.9c0.9-1.1,4-4.1,8.1-3.1
	C154.6,25.5,150.8,28.1,149.6,29.9z"/>
<path class="st10" d="M157.8,34.5c-0.3,0.2-1.2,1.1-1.2,2.5c0,0.7,0.1,4.3,0.4,6.5c-0.5,0.3-0.9,0.4-1.4,0.8
	c-0.3-2.6-0.5-6.2-0.4-7.7c0.1-1.7,1-2.8,1.9-3.3c0.3-0.2,0.5-0.3,0.8-0.5c1.4-0.8,2.9-1.6,2.9-3c0-1.1-0.4-1.4-0.9-1.8l0,0
	c-0.3-0.2-0.6-0.5-0.8-1c-0.5-1.2-0.6-4.3,0-5.1c0.3-0.4,1.2-1.7,0.9-2.6c-0.1-0.3-0.3-0.6-0.7-0.8c-0.4-0.2-0.9-0.3-1.5-0.3
	c-1.2,0-2.5,0.4-3.2,0.6c-2.4,0.8-5.4,3-6.2,3.7l0,0l-0.5,0.4l0.3-0.6c0,0,2.2-3.6,6-4.8c0.7-0.3,2.2-0.7,3.6-0.7
	c0.9,0,1.6,0.1,2.2,0.4c0.7,0.4,1.2,0.9,1.4,1.7c0.5,1.8-1.1,3.7-1.1,3.8c-0.2,0.3-0.3,2.7,0.2,3.7c0.1,0.1,0.2,0.3,0.4,0.4
	c0.1,0.1,0.1,0.1,0.2,0.2c0.6,0.5,1.5,1.1,1.5,2.7c0,2.2-2.2,3.3-3.9,4.3C158.3,34.3,158,34.4,157.8,34.5L157.8,34.5z"/>
<path class="st10" d="M155.2,17.7c-0.3-0.6-1.2-1.7-3.3-2.7c-2.3-1.1-4.9-1.7-7.9-1.7l0,0l0,0l0,0c-2.9,0-5.6,0.6-7.9,1.7
	c-2,1-2.9,2.1-3.3,2.7l-0.1,0.2l1.8,0.4l0.1-0.1v-0.1c0-0.1,0.3-0.7,2.2-1.7c2.1-1,4.5-1.5,7.2-1.5s5.1,0.5,7.2,1.5
	c2,1,2.2,1.6,2.2,1.7v0.1l0.1,0.1l1.8-0.4L155.2,17.7L155.2,17.7z"/>
<path class="st10" d="M157.5,18c0.9-0.8,0.2-1.5,0.3-2.4c0-0.5,0.1-0.9,0.2-1.2c0.9-1.4,2.9-1.8,2.9-1.8l1-0.2l-0.6-0.7
	c-0.1-0.1-2.7-2.6-6.7-1.3c-2.8,0.9-4.9,4-5,4.1l1.4,0.7c0,0,1.7-2.9,4.1-3.7c2-0.6,3.7,0,4.5,0.4c-0.8,0.3-1.9,0.9-2.5,1.9
	c-0.3,0.5-0.4,1.1-0.4,1.7c-0.1,0.8-0.1,1.5-0.7,2C155.9,17.5,157.5,18,157.5,18z"/>
<path class="st10" d="M155.7,17.5l0.2-0.2c0.5-0.4,0.6-1.1,0.6-1.9c0.1-0.6,0.1-1.2,0.4-1.7c0.6-0.9,1.5-1.5,2.3-1.9
	c-0.5-0.2-1.3-0.5-2.4-0.5c-0.6,0-1.2,0.1-1.7,0.3c-2.2,0.7-3.8,3.3-4,3.6l-0.1,0.1l-1.7-0.8l0.1-0.1c0,0,2.1-3.2,5-4.2
	c0.8-0.3,1.6-0.4,2.3-0.4c2.8,0,4.5,1.7,4.5,1.7l0.8,0.9l-1.2,0.2c0,0-2,0.4-2.8,1.7c-0.1,0.2-0.2,0.6-0.2,1.1c0,0.3,0,0.5,0.1,0.8
	c0.1,0.6,0.2,1.1-0.5,1.7l-0.1,0.1C157.5,18.1,155.7,17.5,155.7,17.5z"/>
<path class="st10" d="M153.7,16.5c0,0,0.4-1.7,1.4-2.5c1.5-1.2,3.3-0.6,3.3-0.5l0.3-0.8c-0.1,0-2.2-0.7-4.1,0.7
	c-1.9,1.3-2.1,2.6-2.2,2.7L153.7,16.5z"/>
<path class="st10" d="M152.4,16.1V16c0-0.1,0.3-1.4,2.2-2.8c0.8-0.6,1.8-0.9,2.8-0.9c0.8,0,1.3,0.2,1.4,0.2h0.1l-0.4,1.1h-0.1
	c-0.1,0-0.5-0.2-1.1-0.2c-0.8,0-1.5,0.2-2,0.7c-1,0.8-1.4,2.4-1.4,2.4v0.2C153.8,16.7,152.4,16.1,152.4,16.1z M158.4,13.3l0.2-0.5
	c-0.2-0.1-0.6-0.1-1.2-0.1c-1,0-1.9,0.3-2.6,0.8c-1.6,1.1-2,2.2-2.1,2.5l1,0.4c0.1-0.4,0.5-1.7,1.4-2.4c0.6-0.5,1.4-0.7,2.2-0.7
	C157.8,13.2,158.2,13.2,158.4,13.3L158.4,13.3z M147.5,51.5c-0.7-0.8-1.2-1.6-1.3-1.9c-0.1-0.1-0.1-0.4,0.1-0.6
	c0.2-0.2,0.5-0.3,0.9-0.3h0.6c0.7,0,1.4,0,1.9,0h0.4c0.5,0,0.8,0.2,0.9,0.3c0.2,0.2,0.2,0.4,0.1,0.8c-0.3,0.9-1.1,1.6-1.3,1.8
	c-0.3,0.3-0.7,0.4-1.1,0.4C148.1,52,147.7,51.8,147.5,51.5z M148.1,30l1.5-0.1c0,0-0.4,0.7-0.6,1.6c-0.3,1,0.3,2.5,0.3,2.5
	S147.2,31.6,148.1,30z"/>
<path class="st7" d="M144,24.6c-1,0-2.2,0-3.2-0.7c0,0,1.2,2.2,3.2,2.2v-0.3v0.3c1.9,0,3.2-2.2,3.2-2.2
	C146.3,24.5,145,24.6,144,24.6z"/>
<path class="st10" d="M146.7,24.5c-1,0.6-1.8,0.8-2.7,0.8c-0.8,0-1.7-0.2-2.7-0.8c0,0,1.4,1.7,2.7,1.7l0,0l0,0l0,0l0,0
	C145.3,26.3,146.7,24.5,146.7,24.5z M150,56l-0.1-1.4c4.5-0.3,6-4.7,6-5.2h1.4C157.3,50.5,155.4,55.6,150,56z"/>
<path class="st3" d="M151.5,46.8c0.1-0.5,0.1-0.9,0-1.4c0.4-0.3,1.1-0.4,1.7-0.6c0.5-0.3,2.8,0.3,4.4-1.7c2.1-2.5,1.7-4.1,1.7-4.1
	c0.5,0.6,1.1,0.4,1.9,3.2c0.8,2.8-0.4,4.7-2.6,6.7c-1.1,0.9-2.6,1.3-3.9,1.4c0.4-0.4-0.7-0.5-1.5-0.8c0.1-0.7,0-1.3-0.5-1.8
	c-0.3-0.3-0.7-0.5-1.1-0.6c0-0.1,0-0.1-0.1-0.1C151.5,46.9,151.5,46.9,151.5,46.8L151.5,46.8z"/>
<path class="st9" d="M153.2,49.5c0-0.1,0.1-0.3,0.1-0.4c0-0.2,0.2-0.6,0-0.1c0.1-0.1,0.1-0.3,0.1-0.4c3.6,0,6.8-2.5,6.2-7.8
	c0.5-0.6,1.1,1.3,1.1,1.3s1.8,5.3-2.9,7.3c-1.6,0.7-3,1.2-3.3,1c-0.7,0.1-1.3-0.3-1.5-0.6C153.1,49.7,153.1,49.6,153.2,49.5z"/>
<path class="st10" d="M151.6,46.1c0-0.4-0.1-0.9-0.3-1.3v-0.1c1.4,0,3-0.1,4.4-0.7c1.5-0.6,3.4-2.7,3.7-5.1c0,0,2.8,2.2,2,6.9
	c-0.8,4.4-4.5,5.9-8.7,6.1c0,0,0.5-1,0.3-1.6c2.4,0.2,5.1-0.8,6.4-2.9c1.2-1.9,0.9-5.3,0.4-5.8C158.5,45.4,154.3,46.2,151.6,46.1z"
	/>
<path class="st10" d="M153.3,47.2c-0.5-0.5-1.4-1.2-3.6-1.2H144l0,0c-1.6,0-5.7,0-5.7,0c-2.1,0-3.1,0.6-3.6,1.2
	c-0.7,0.8-0.8,1.9-0.3,3.3c1.3,3.7,3.2,7.4,9.6,7.4l0,0l0,0l0,0l0,0c6.3,0,8.2-3.7,9.6-7.4C154.1,49.1,154,48,153.3,47.2z
	 M152.3,50.2c-0.6,1.8-2.4,6.3-8.3,6.3c-5.9,0-7.6-4.5-8.3-6.3c-0.4-1-0.3-1.8,0.1-2.2c0.3-0.3,0.9-0.7,2.4-0.7h1.5
	c1.1,0,2.6,0,4.2,0c1.7,0,3.1,0,4.2,0h1.5c1.5,0,2.1,0.4,2.4,0.7C152.6,48.4,152.7,49.2,152.3,50.2L152.3,50.2z"/>
<path class="st10" d="M151.1,43.4c0.8,2.2,2.3,4,2.3,4s-2.1-0.1-2.2-0.5c-0.1-0.3-1.9-4.6-2.6-9.6C149.2,38.4,151.1,43.2,151.1,43.4
	z"/>
<view  id="gulp" preserveAspectRatio="xMidYMid meet" viewBox="0 66 38.61 66" zoomAndPan="magnify"></view>
<title>gulp</title>
<g transform="translate(0 1)">
	<path class="st11" d="M19.2,112.4c-2.9,0-5.2-0.4-6.3-0.7c-0.7-0.2-1.3-0.4-1.8-0.6l1.4,2.5l0.6,7.7c0,0.9,2.7,1.6,6.1,1.6
		s6.1-0.7,6.1-1.6l0.4-7.8l1.4-2.4c-0.5,0.2-1.1,0.4-1.8,0.6C24.4,111.9,22.1,112.4,19.2,112.4z M27.3,87.3c-2.1,0.3-5,0.5-8,0.5
		s-5.9-0.2-8-0.5c-1.1-0.1-1.9-0.3-2.5-0.5c-0.1,0-0.4-0.1-0.6-0.3l1.3,12.2c0.1-0.2,0.1-0.4,0.2-0.6c0.2-0.4,0.3-0.8,0.5-1.3
		c0.2-0.4,0.4-0.8,0.7-1.2c0.2-0.4,0.5-0.7,0.8-1s0.6-0.6,0.8-0.8c0.3-0.2,0.6-0.4,0.9-0.5c0.3-0.1,0.6-0.2,0.9-0.2
		c0.3,0,0.6,0.1,1,0.3c0.3,0.2,0.6,0.5,0.9,0.9c0.1,0.1,0.1,0.2,0.1,0.3c0,0.1,0,0.2,0,0.3c0,0.2,0,0.3-0.1,0.5
		c-0.1,0.1-0.2,0.2-0.3,0.2s-0.2-0.1-0.3-0.2s-0.2-0.3-0.3-0.5s-0.2-0.4-0.4-0.4c-0.1-0.1-0.3-0.1-0.5-0.1c-0.3,0-0.5,0.1-0.8,0.3
		c-0.3,0.2-0.6,0.5-0.9,0.8c-0.3,0.3-0.6,0.7-0.8,1.2c-0.3,0.4-0.5,0.9-0.7,1.4s-0.4,0.9-0.5,1.4s-0.2,0.9-0.2,1.2
		c0,0.1,0,0.2,0,0.4c0,0.1,0,0.2,0.1,0.3c0,0.1,0.1,0.2,0.2,0.3c0.1,0.1,0.2,0.1,0.3,0.1s0.3,0,0.5-0.1s0.3-0.2,0.5-0.4
		c0.2-0.2,0.4-0.3,0.6-0.5c0.2-0.2,0.4-0.4,0.5-0.6s0.3-0.4,0.4-0.5c0.1-0.2,0.2-0.3,0.3-0.5l0.5-1.5c0.1-0.2,0.1-0.3,0.2-0.3
		c0.1-0.1,0.2-0.1,0.3-0.1s0.1,0,0.2,0c0.1,0,0.1,0,0.1,0.1l0.1,0.1c0,0.1,0,0.1,0,0.2c0,0.2,0,0.4-0.1,0.6c0,0.2-0.1,0.4-0.1,0.5
		C15,99,15,99.1,14.9,99.3c-0.1,0.2-0.1,0.4-0.2,0.5c0,0,0,0.1-0.1,0.2c0,0.1-0.1,0.3-0.1,0.4c-0.1,0.2-0.1,0.4-0.2,0.6
		c-0.1,0.2-0.1,0.4-0.2,0.6c-0.1,0.2-0.1,0.4-0.2,0.6c-0.1,0.3-0.2,0.7-0.3,1c0,0.1,0,0.1-0.1,0.2c0,0.1,0,0.1-0.1,0.2
		c0,0.1-0.1,0.2-0.1,0.2c-0.1,0.1-0.1,0.1-0.2,0.2c-0.1,0-0.1,0.1-0.2,0.1c-0.1,0-0.2,0-0.3-0.1s-0.1-0.2-0.1-0.4v-0.1v-0.1
		c0-0.1,0-0.2,0.1-0.4c0.1-0.2,0.1-0.4,0.2-0.6c0.1-0.2,0.1-0.5,0.2-0.7c0.1-0.3,0.2-0.5,0.2-0.7c-0.2,0.2-0.4,0.4-0.6,0.6
		c-0.2,0.2-0.4,0.4-0.7,0.6c-0.2,0.2-0.5,0.3-0.7,0.4s-0.5,0.2-0.7,0.2c-0.3,0-0.5-0.1-0.7-0.2c0,0-0.1,0-0.1-0.1l0.7,7.7
		c0.2,0.5,3.8,1.7,8.6,1.7s8.4-1.2,8.6-1.7l1.1-9.2c-0.1,0.1-0.2,0.2-0.3,0.2c-0.3,0.3-0.6,0.5-0.9,0.7s-0.5,0.4-0.8,0.5
		s-0.5,0.2-0.8,0.2s-0.5-0.1-0.6-0.2c-0.2-0.1-0.2-0.3-0.2-0.5l0,0c0,0,0,0,0-0.1s0.1-0.3,0.2-0.4c0.1-0.2,0.2-0.4,0.4-0.5
		c0.1-0.2,0.3-0.4,0.4-0.5c0.1-0.2,0.3-0.3,0.4-0.5s0.2-0.3,0.3-0.5c0.1-0.1,0.1-0.2,0.1-0.3c0-0.1,0-0.1-0.1-0.1c0,0-0.1,0-0.2,0
		s-0.3,0-0.4,0.1c-0.2,0.1-0.3,0.2-0.5,0.3c-0.2,0.1-0.3,0.3-0.4,0.4c-0.1,0.2-0.3,0.3-0.4,0.5s-0.2,0.3-0.3,0.5
		c-0.1,0.2-0.2,0.3-0.3,0.5c0,0-0.1,0.1-0.1,0.2s-0.1,0.2-0.1,0.3c0,0.1-0.1,0.2-0.1,0.3c0,0.1-0.1,0.2-0.1,0.3l-0.1,0.3
		c0,0.1,0,0.1-0.1,0.2c0,0,0,0.1-0.1,0.2c0,0.1-0.1,0.2-0.1,0.4l-0.2,0.5c-0.1,0.3-0.2,0.5-0.3,0.8c0,0.1-0.1,0.2-0.1,0.2
		c0,0.1-0.1,0.2-0.1,0.3c0,0.1-0.1,0.2-0.2,0.3c-0.1,0.1-0.1,0.1-0.2,0.2c-0.1,0-0.2,0.1-0.3,0.1c-0.1,0-0.2,0-0.3-0.1
		c-0.1-0.1-0.1-0.2-0.1-0.4c0-0.1,0-0.2,0-0.3c0-0.1,0-0.2,0.1-0.3c0-0.1,0.1-0.2,0.1-0.3c0-0.1,0.1-0.2,0.1-0.2
		c0.2-0.4,0.4-0.9,0.6-1.3s0.4-0.9,0.6-1.3c0-0.1,0.1-0.2,0.1-0.3l0,0c-0.2,0.2-0.5,0.4-0.7,0.6s-0.5,0.3-0.7,0.4s-0.5,0.2-0.7,0.2
		c-0.1,0-0.3,0-0.4-0.1c-0.1,0-0.2-0.1-0.2-0.2c-0.1-0.1-0.1-0.2-0.1-0.3v-0.1c-0.1,0-0.1,0.1-0.2,0.1c-0.2,0.2-0.4,0.3-0.7,0.4
		c-0.2,0.1-0.4,0.1-0.6,0.1s-0.3-0.1-0.4-0.2s-0.2-0.3-0.2-0.6c0-0.2,0-0.4,0.1-0.7c-0.1,0.2-0.2,0.3-0.4,0.5
		c-0.1,0.2-0.3,0.3-0.5,0.5c-0.2,0.1-0.4,0.3-0.6,0.3c-0.2,0.1-0.5,0.1-0.7,0.1c-0.1,0-0.2,0-0.3,0c-0.1,0-0.2-0.1-0.3-0.2
		s-0.2-0.2-0.2-0.3c-0.1-0.1-0.1-0.3-0.1-0.5c0,0,0-0.1,0-0.2s0.1-0.3,0.1-0.6c0.1-0.3,0.2-0.6,0.4-1.1c0.2-0.4,0.4-1,0.7-1.6
		c0.1-0.2,0.2-0.3,0.3-0.4c0.1-0.1,0.2-0.1,0.3-0.1c0.1,0,0.1,0,0.2,0s0.1,0,0.2,0.1l0.1,0.1c0,0,0,0.1,0,0.2v0.1
		c0,0.1-0.1,0.2-0.1,0.3c-0.1,0.1-0.1,0.3-0.2,0.4c-0.1,0.2-0.2,0.3-0.3,0.5c-0.1,0.2-0.2,0.4-0.2,0.5c-0.1,0.2-0.1,0.4-0.2,0.6
		s-0.1,0.4-0.1,0.6c0,0.1,0,0.1,0.1,0.2c0,0.1,0.1,0.1,0.2,0.1c0.2,0,0.5-0.1,0.7-0.2c0.2-0.2,0.4-0.3,0.6-0.6
		c0.2-0.2,0.3-0.5,0.5-0.7c0.1-0.3,0.3-0.5,0.4-0.7s0.1-0.3,0.2-0.5c0-0.2,0.1-0.3,0.2-0.5c0.1-0.1,0.1-0.3,0.2-0.4s0.2-0.1,0.3-0.1
		c0.1,0,0.2,0,0.3,0.1c0.1,0.1,0.1,0.2,0.1,0.4c0,0.1,0,0.2-0.1,0.3c-0.1,0.2-0.1,0.3-0.2,0.5s-0.2,0.4-0.2,0.6
		c-0.1,0.2-0.2,0.4-0.2,0.6c-0.1,0.2-0.1,0.4-0.2,0.6c0,0.2-0.1,0.4-0.1,0.5c0,0.2,0.1,0.2,0.2,0.2s0.3,0,0.4-0.1
		c0.2-0.1,0.3-0.2,0.5-0.3l0.1-0.1c0.1-0.2,0.1-0.4,0.2-0.6c0.1-0.3,0.3-0.7,0.4-1s0.2-0.6,0.4-0.9l1.6-4.1c0.1-0.2,0.2-0.3,0.3-0.4
		c0.1-0.1,0.2-0.1,0.3-0.1c0.1,0,0.2,0,0.3,0.1c0.1,0.1,0.1,0.2,0.1,0.4c0,0.1,0,0.2,0,0.2c0,0.1-0.1,0.2-0.1,0.3
		c-0.1,0.2-0.2,0.5-0.3,0.7c-0.3,0.7-0.6,1.3-0.8,2c-0.1,0.4-0.3,0.7-0.4,1.1s-0.3,0.7-0.4,1s-0.2,0.6-0.3,0.8
		c0,0.1-0.1,0.2-0.1,0.3c0,0.1-0.1,0.2-0.1,0.4c0,0.1,0,0.1,0,0.2l0.1,0.1c0.1,0,0.2,0,0.3-0.1c0.1-0.1,0.2-0.1,0.4-0.2
		c0.1-0.1,0.3-0.2,0.4-0.3c0.1-0.1,0.3-0.2,0.4-0.4c0.1-0.1,0.3-0.2,0.4-0.4c0.1-0.1,0.2-0.2,0.3-0.3c0,0,0.1,0,0.1-0.1
		c0.1-0.2,0.1-0.4,0.2-0.5c0-0.1,0.1-0.2,0.1-0.3c0.1-0.1,0.1-0.3,0.2-0.4s0.1-0.3,0.2-0.4c0,0.2,0.1,0.2,0.2,0.2s0.2,0,0.3,0.1
		c0.1,0.1,0.1,0.2,0.1,0.3v0.1c0,0.1,0,0.1,0,0.2s0,0.1,0,0.2s0,0.1,0,0.1c0.1-0.2,0.3-0.3,0.4-0.4c0.2-0.1,0.3-0.3,0.5-0.4
		s0.3-0.2,0.5-0.3c0.2-0.1,0.3-0.1,0.5-0.1c0.1,0,0.2,0,0.4,0.1c0.1,0,0.2,0.1,0.3,0.2c0.1,0.1,0.2,0.2,0.2,0.3
		c0.1,0.1,0.1,0.2,0.1,0.4c0,0.2,0,0.4-0.1,0.6s-0.2,0.4-0.3,0.6c-0.1,0.2-0.3,0.4-0.4,0.6s-0.3,0.3-0.4,0.5
		c-0.1,0.1-0.2,0.3-0.3,0.4c-0.1,0.1-0.1,0.2-0.1,0.2c0,0.1,0,0.1,0,0.1s0.1,0,0.2,0s0.2,0,0.3-0.1c0.1-0.1,0.3-0.2,0.5-0.4
		c0.2-0.2,0.5-0.4,0.8-0.7c0.3-0.2,0.5-0.5,0.8-0.7l1.4-13.3c-0.2,0.1-0.5,0.2-0.6,0.3C29.2,86.9,28.4,87.1,27.3,87.3z M19.3,84.1
		c-6.2,0-11.2,0.7-11.2,1.6s5,1.6,11.2,1.6s11.2-0.7,11.2-1.6S25.5,84.1,19.3,84.1z M23.8,86.1c0,0.2-0.6,0.4-1.3,0.4
		c-0.7,0-1.3-0.2-1.3-0.4c0-0.2,0.6-0.4,1.3-0.4C23.2,85.7,23.8,85.9,23.8,86.1z"/>
	<path class="st11" d="M21.4,86L21.4,86c0,0.2,0.5,0.3,1.1,0.3s1.1-0.1,1.1-0.2l1.4-5.7l5.6-5.9l0,0c0.1-0.1-0.1-0.5-0.5-0.9
		s-0.8-0.5-1-0.3l0,0l-6,6.3C23.1,79.4,21.4,86,21.4,86z"/>
</g>
<view  id="jquery" preserveAspectRatio="xMidYMid meet" viewBox="38.61 66 66 62.28" zoomAndPan="magnify"></view>
<title>jquery</title>
<path class="st3" d="M67.9,111.2l-0.4,1.5L67.9,111.2L67.9,111.2z M70.1,116.5l0.5-1.8L70.1,116.5z M79.8,108l-0.9,4.2L79.8,108z
	 M77.6,108l-0.6,3.2L77.6,108z M79.6,107.8h-1.8c-0.1,0-0.2,0.1-0.2,0.2l-0.6,3.2l-0.6,3.2c0,0.1-0.1,0.2-0.2,0.2h-1.3
	c-1.3,0-1.1-0.9-0.9-2.2l0,0v-0.2l0,0l0.1-0.3l0.1-0.4c0-0.1,0-0.3,0.1-0.4l0.3-1.5l0.3-1.5c0-0.1,0-0.2-0.1-0.2h-1.9
	c-0.1,0-0.2,0.1-0.2,0.2l-0.4,2l-0.4,2v0.2c-0.5,2.2-0.3,4.4,2.2,4.4h4c0.1,0,0.2-0.1,0.2-0.2l0.9-4.2l0.9-4.2
	C79.8,107.9,79.7,107.8,79.6,107.8L79.6,107.8L79.6,107.8z M86.9,114.6c0.1,0,0.2,0.1,0.2,0.1l0,0l-0.2,0.9 M86.7,116.6l0.2-0.9
	L86.7,116.6z M86.5,116.8c-0.5,0-2.2,0-3.4,0C84.6,116.8,86.5,116.8,86.5,116.8z M82,113.4c0-0.1,0.1-0.2,0.2-0.3H82
	C81.9,114.2,82,113.4,82,113.4L82,113.4z"/>
<path class="st3" d="M86.9,114.6c0.1,0,0.2,0.1,0.2,0.1l0,0l-0.2,0.9v0.2V114.6z M86.7,116.6l0.1-0.8L86.7,116.6z M56.6,113.4
	l0.3-1.3l-0.3,1.5l-0.3,1.5l0.3-1.3C56.6,113.7,56.6,113.5,56.6,113.4L56.6,113.4L56.6,113.4z M60,107.8h-2c-0.1,0-0.2,0.1-0.2,0.2
	l-0.2,0.9l-0.2,0.9c0,0.1,0,0.2,0.1,0.2h2.1c0.1,0,0.2-0.1,0.2-0.2l0.2-0.9l0.2-0.9C60.2,107.9,60.1,107.9,60,107.8L60,107.8
	L60,107.8z M59.6,110.8l-0.6,2.9L59.6,110.8z M88.4,112.9c0,0,2.8,0,4.7,0C91.7,112.9,89.4,112.9,88.4,112.9L88.4,112.9z
	 M57.2,110.8l-0.3,1.3L57.2,110.8z"/>
<path class="st3" d="M59.5,110.6h-2c-0.1,0-0.2,0.1-0.2,0.2l-0.3,1.3l-0.3,1.3c0,0.1-0.1,0.3-0.1,0.4l-0.3,1.3l-0.3,1.3
	c0,0.1-0.1,0.2-0.1,0.4c0,0-0.4,1.2-1,1.2h-0.6c-0.1,0-0.2,0.1-0.2,0.2l-0.2,0.9l-0.2,0.9c0,0.1,0,0.2,0.1,0.2h1.7
	c1.6,0,2.4-0.9,3-3.6l0.6-3.1l0.6-2.9C59.6,110.7,59.6,110.6,59.5,110.6L59.5,110.6L59.5,110.6z M88.2,116.7c-0.1,0-0.2-0.1-0.2-0.1
	l0,0l1.5-7.5 M90.4,116.5l0.6-3.2L90.4,116.5z"/>
<path class="st3" d="M88.1,116.6c0-0.1,0-0.2,0-0.3l0.7-3.6L88.1,116.6C88,116.6,88.1,116.7,88.1,116.6l0.3,0.1
	C88.3,116.7,88.2,116.7,88.1,116.6L88.1,116.6z M90.2,116.7c-0.1,0-0.2,0-0.3,0h0.2c0.1,0,0.2-0.1,0.2-0.2v-0.2
	C90.4,116.4,90.3,116.6,90.2,116.7L90.2,116.7z M90.6,114.9l0.3-1.4L90.6,114.9L90.6,114.9z M96.7,109.5l0.1,0.4
	c0,0.1,0,0.2-0.1,0.2l0,0 M90.4,116.3l0.3-1.4L90.4,116.3z M96.6,109.1l0.1,0.4L96.6,109.1z M90.9,113.5l0.1-0.4l0.3-1.4l-0.3,1.6
	L90.9,113.5L90.9,113.5z"/>
<path class="st3" d="M96.7,109.8l-0.1-0.4l-0.1-0.4v-0.2c-0.2-0.7-0.6-1.1-1.7-1.1H90c-0.1,0-0.2,0.1-0.2,0.2l-0.1,0.4l-0.1,0.4v0.1
	l-0.8,3.8l-0.7,3.6c0,0.1,0,0.2,0,0.3c0.1,0.1,0.2,0.1,0.3,0.1H90c0.1,0,0.2,0,0.3,0c0.1-0.1,0.1-0.2,0.2-0.3l0.3-1.4l0.3-1.4v-0.2
	l0.3-1.6l0.3-1.4c0-0.1,0.1-0.2,0.2-0.2h4.8C96.7,110.1,96.8,110,96.7,109.8C96.8,109.9,96.8,109.9,96.7,109.8L96.7,109.8z
	 M89.6,108.9l-0.1,0.3l-0.7,3.6L89.6,108.9L89.6,108.9L89.6,108.9z"/>
<path class="st3" d="M102.9,106.5H101c-0.1,0-0.2,0.1-0.3,0.2l-3.4,5.3c-0.1,0.1-0.1,0.1-0.1,0l-0.3-1.2c0-0.1-0.1-0.2-0.2-0.2h-2.2
	c-0.1,0-0.1,0.1-0.1,0.1s0,0,0,0.1l1,3.6c0,0.1,0,0.3,0,0.4l-0.4,1.8c0,0.1,0,0.2,0.1,0.2l0,0h2.2c0.1,0,0.2-0.1,0.2-0.2l0.4-1.8
	c0-0.1,0.1-0.2,0.2-0.3l5.5-7.7c0.1-0.1,0-0.2-0.1-0.2L102.9,106.5L102.9,106.5z M85.6,111.1c0,0.1-0.1,0.2-0.2,0.2h-2.8
	c-0.1,0-0.1,0-0.1-0.1l0,0v-0.1c0.2-0.8,1-1.3,1.8-1.2C85.4,109.8,85.6,110.4,85.6,111.1L85.6,111.1z M84.8,107.7
	c-3.6,0-4.4,2.3-4.9,4.6c-0.5,2.3-0.4,4.5,3.2,4.5h3.4c0.1,0,0.2-0.1,0.2-0.2l0.1-0.8v-0.2l0.2-0.9c0-0.1,0-0.2-0.1-0.2h-3.4
	c-1.3,0-1.7-0.4-1.6-1.5h5.3c0.1,0,0.2-0.1,0.2-0.1s0,0,0-0.1C88.3,109.8,88.1,107.7,84.8,107.7L84.8,107.7z M67.9,111.1l-0.1,0.2
	l-0.4,1.5l-0.4,1.5c0,0.1-0.1,0.2-0.2,0.2h-2.1c-1.6,0-2-1.3-1.6-3.3c0.4-1.9,1.2-3.2,2.7-3.3C68,107.6,68.5,109.2,67.9,111.1
	L67.9,111.1z M69.4,114.3c0,0,1-2.6,1.2-4c0.3-2-0.6-4.8-4.2-4.8s-5.2,2.7-5.8,5.7s0.2,5.6,3.8,5.6h5.5c0.1,0,0.2-0.1,0.2-0.2
	l0.5-1.8c0-0.1,0-0.2-0.1-0.2l0,0h-0.9C69.4,114.5,69.4,114.5,69.4,114.3C69.4,114.4,69.4,114.4,69.4,114.3
	C69.4,114.4,69.4,114.3,69.4,114.3L69.4,114.3z"/>
<path class="st3" d="M87.2,112.6C87.2,112.7,87.1,112.7,87.2,112.6H87C87,112.5,87.1,112.5,87.2,112.6
	C87.2,112.5,87.2,112.5,87.2,112.6L87.2,112.6z"/>
<path class="st12" d="M65.9,81.1c-2.8,4-2.4,9.2-0.3,13.5c0.1,0.1,0.1,0.2,0.2,0.3c0.1,0.1,0.1,0.1,0.1,0.2l0.1,0.1l0.1,0.2l0.2,0.3
	l0.1,0.2c0.1,0.1,0.2,0.2,0.2,0.4l0.1,0.2c0.1,0.2,0.2,0.3,0.3,0.5l0.1,0.1c0.1,0.1,0.2,0.3,0.3,0.4l0.1,0.2l0.3,0.4l0.1,0.2
	c0.1,0.2,0.3,0.3,0.4,0.5l0,0c0.1,0.1,0.3,0.3,0.4,0.4l0.1,0.1l0.3,0.3l0.1,0.1c0.1,0.1,0.3,0.3,0.4,0.4l0.1,0.1l0.4,0.4l0.2,0.1
	l0.3,0.3l0.2,0.1l0.4,0.3l0.1,0.1l0,0c0.1,0.1,0.2,0.2,0.4,0.2l0.2,0.1c0.2,0.1,0.4,0.2,0.6,0.4l0.2,0.1l0.4,0.2l0.2,0.1l0.3,0.2
	h0.1l0.1,0.1l0.5,0.2h0.1c0.2,0.1,0.4,0.2,0.6,0.2l0.1,0.1c0.2,0.1,0.4,0.1,0.5,0.2h0.1c0.2,0.1,0.4,0.1,0.6,0.2h0.2
	c0.2,0.1,0.4,0.1,0.6,0.2c13.5,2.5,17.4-8.1,17.4-8.1c-3.3,4.3-9.1,5.4-14.7,4.2c-0.2,0-0.4-0.1-0.6-0.2H79
	c-0.2-0.1-0.4-0.1-0.6-0.2h-0.1L78,99.4l-0.1-0.1l-0.6-0.2L77.2,99l-0.5-0.2l-0.1-0.1l-0.4-0.2L76,98.4c-0.2-0.1-0.3-0.2-0.4-0.2
	l-0.2-0.1c-0.2-0.1-0.4-0.2-0.6-0.4l-0.2-0.1l-0.4-0.3l-0.1-0.1L73.7,97l-0.2-0.1l-0.3-0.3L73,96.5c-0.1-0.1-0.3-0.2-0.4-0.4l0,0
	l-0.5-0.4L72,95.6c-0.1-0.1-0.2-0.2-0.3-0.3l-0.1-0.1c-0.1-0.1-0.3-0.3-0.4-0.4l0,0c-0.1-0.2-0.3-0.3-0.4-0.5l-0.1-0.1
	c-0.1-0.1-0.2-0.2-0.3-0.4l-0.1-0.1c-0.1-0.2-0.2-0.3-0.3-0.5c-3.1-4.2-4.2-10-1.7-14.7"/>
<path class="st12" d="M74.6,77.8c-2,2.9-1.9,6.8-0.3,9.9c0.3,0.5,0.6,1,0.9,1.5s0.6,0.9,1,1.3c0.1,0.2,0.3,0.3,0.5,0.5l0.1,0.1
	c0.2,0.1,0.3,0.3,0.5,0.4l0,0c0.2,0.2,0.4,0.3,0.5,0.4l0.1,0.1c0.2,0.1,0.4,0.3,0.6,0.4l0.3,0.2l0.1,0.1c0.1,0.1,0.3,0.2,0.4,0.3
	h0.1l0.4,0.2l0.1,0.1l0.3,0.1l0,0c0.2,0.1,0.4,0.2,0.5,0.3l0.1,0.1l0.4,0.2l0.2,0.1l0.4,0.1H82c0.2,0.1,0.4,0.1,0.6,0.2
	C93,96,95.4,88,95.4,88c-2.2,3.1-6.4,4.6-10.8,3.5c-0.2,0-0.4-0.1-0.6-0.1l-0.2-0.1l-0.4-0.1L83.2,91l-0.5-0.2h-0.1
	c-0.2-0.1-0.4-0.2-0.5-0.3l-0.3-0.1l-0.2-0.1l-0.3-0.2L81.2,90l-0.4-0.3l-0.1-0.1l-0.3-0.2c-0.2-0.1-0.4-0.3-0.6-0.4l-0.1,0
	c-2-1.5-3.5-3.7-4.3-6.1c-0.8-2.5-0.6-5.3,0.7-7.6"/>
<path class="st12" d="M81.8,75.2c-1.2,1.7-1.3,4-0.5,5.9c0.9,2.1,2.6,3.7,4.7,4.4l0.3,0.1h0.1c0.1,0,0.2,0.1,0.4,0.1
	c5.8,1.1,7.3-3,7.7-3.5c-1.4,2-3.7,2.4-6.5,1.8c-0.2-0.1-0.5-0.1-0.7-0.2c-0.8-0.3-1.6-0.7-2.2-1.2c-2.5-1.9-4.1-5.6-2.4-8.5"/>
<view  id="responsive" preserveAspectRatio="xMidYMid meet" viewBox="170.63 0 66 66" zoomAndPan="magnify"></view>
<path class="st3" d="M217,49.7h-5.4c-0.2,0-0.4-0.2-0.4-0.4V48c0-0.2-0.2-0.4-0.4-0.4h-7.6c-0.2,0-0.4,0.2-0.4,0.4v1.3
	c0,0.2-0.2,0.4-0.4,0.4h-4.1c-0.2,0-0.4,0.2-0.4,0.4v1.5c0,0.2,0.2,0.4,0.4,0.4H217c0.2,0,0.4-0.2,0.4-0.4v-1.5
	C217.4,49.9,217.2,49.7,217,49.7z M226.2,13.8h-38.9c-1.4,0-2.5,1.1-2.5,2.5v6.4c0,0.8-0.1,1,0.5,1h1c0.5,0,0.4-0.1,0.4-1v-6.4
	c0-0.3,0.3-0.6,0.6-0.6h38.9c0.3,0,0.6,0.3,0.6,0.6v24H199c0,0-1,0-1,1.3v3c0,1.3,1,1.3,1,1.3h27.1c1.4,0,2.5-1.1,2.5-2.5v-27
	C228.6,15,227.5,13.8,226.2,13.8z M206.7,43.7c-0.6,0-1.1-0.5-1.1-1.1s0.5-1.1,1.1-1.1s1.1,0.5,1.1,1.1S207.3,43.7,206.7,43.7z"/>
<path class="st3" d="M194.3,25.9h-14.1c-0.9,0-1.6,0.7-1.6,1.6v23.1c0,0.9,0.7,1.6,1.6,1.6h14.1c0.9,0,1.6-0.7,1.6-1.6V27.4
	C195.9,26.6,195.2,25.9,194.3,25.9z M185.5,27.5h3.5c0.2,0,0.3,0.1,0.3,0.3c0,0.2-0.1,0.3-0.3,0.3h-3.5c-0.2,0-0.3-0.1-0.3-0.3
	S185.3,27.5,185.5,27.5z M187.2,51c-0.4,0-0.8-0.4-0.8-0.8s0.4-0.8,0.8-0.8s0.8,0.4,0.8,0.8S187.7,51,187.2,51z M194.5,48.6
	c0,0.2-0.2,0.4-0.4,0.4h-13.8c-0.2,0-0.4-0.2-0.4-0.4V29.4c0-0.2,0.2-0.4,0.4-0.4h13.8c0.2,0,0.4,0.2,0.4,0.4V48.6z"/>
<view  id="sass" preserveAspectRatio="xMidYMid meet" viewBox="170.63 66 66 53.48" zoomAndPan="magnify"></view>
<path class="st13" d="M221.7,95.5c-1.7,0-3.3,0.4-4.5,1c-0.5-0.9-0.9-1.7-1-2.3c-0.1-0.7-0.2-1.1-0.1-2c0.1-0.8,0.6-2,0.6-2.1
	s-0.1-0.5-1.1-0.5s-1.9,0.2-2,0.5s-0.3,0.9-0.4,1.5c-0.2,0.9-2,4.2-3.1,5.9c-0.3-0.7-0.6-1.3-0.7-1.7c-0.1-0.7-0.2-1.1-0.1-2
	c0.1-0.8,0.6-2,0.6-2.1s-0.1-0.5-1.1-0.5s-1.9,0.2-2,0.5s-0.2,0.9-0.4,1.5s-2.6,6-3.3,7.4c-0.3,0.7-0.6,1.3-0.8,1.7s0,0,0,0.1
	c-0.2,0.3-0.3,0.5-0.3,0.5l0,0c-0.1,0.2-0.3,0.5-0.4,0.5c-0.1,0-0.2-0.7,0-1.6c0.4-1.9,1.2-4.8,1.2-4.9s0.2-0.6-0.6-0.8
	c-0.7-0.3-1,0.2-1,0.2l-0.1,0.2c0,0,0.8-3.3-1.5-3.3c-1.4,0-3.4,1.6-4.4,3c-0.6,0.3-1.9,1.1-3.4,1.8c-0.5,0.3-1.1,0.6-1.6,0.9
	l-0.1-0.1c-2.8-3-8-5.1-7.7-9.1c0.1-1.5,0.6-5.3,9.9-9.9c7.7-3.8,13.8-2.7,14.9-0.4c1.5,3.3-3.3,9.5-11.2,10.4c-3,0.3-4.6-0.8-5-1.3
	s-0.5-0.5-0.6-0.4c-0.3,0.1-0.1,0.5,0,0.8c0.2,0.6,1.2,1.7,2.9,2.3c1.5,0.5,5,0.7,9.3-0.9c4.8-1.9,8.6-7,7.5-11.4s-8.4-5.9-15.3-3.4
	c-4.1,1.5-8.6,3.8-11.8,6.8c-3.8,3.6-4.4,6.7-4.2,7.9c0.9,4.6,7.2,7.6,9.8,9.8c-0.1,0.1-0.2,0.1-0.3,0.2c-1.3,0.6-6.1,3.2-7.3,5.8
	c-1.4,3,0.2,5.2,1.3,5.5c3.3,0.9,6.6-0.7,8.4-3.4c1.8-2.7,1.6-6.2,0.7-7.8c0,0,0,0,0-0.1c0.3-0.2,0.7-0.4,1-0.6
	c0.6-0.4,1.3-0.7,1.8-1c-0.3,0.8-0.5,1.9-0.6,3.3c-0.1,1.7,0.6,3.9,1.5,4.8c0.4,0.4,0.9,0.4,1.2,0.4c1.1,0,1.6-0.9,2.1-2
	c0.7-1.3,1.3-2.8,1.3-2.8s-0.7,4.1,1.3,4.1c0.7,0,1.5-0.9,1.8-1.4l0,0c0,0,0,0,0.1-0.1s0.1-0.2,0.1-0.2l0,0c0.3-0.5,0.9-1.7,1.9-3.6
	c1.3-2.5,2.5-5.6,2.5-5.6s0.1,0.8,0.5,2c0.2,0.7,0.7,1.6,1,2.3c-0.3,0.4-0.5,0.6-0.5,0.6l0,0c-0.2,0.3-0.5,0.6-0.8,1
	c-1,1.2-2.2,2.5-2.3,2.9c-0.2,0.5-0.1,0.8,0.2,1.1c0.3,0.2,0.7,0.2,1.2,0.2c0.9-0.1,1.5-0.3,1.8-0.4c0.5-0.2,1-0.4,1.6-0.8
	c1-0.7,1.6-1.8,1.5-3.1c0-0.7-0.3-1.5-0.6-2.2c0.1-0.1,0.2-0.3,0.3-0.4c1.5-2.3,2.7-4.7,2.7-4.7s0.1,0.8,0.5,2
	c0.2,0.6,0.6,1.3,0.9,2c-1.5,1.2-2.3,2.5-2.7,3.4c-0.6,1.7-0.1,2.4,0.7,2.6c0.4,0.1,0.9-0.1,1.3-0.3c0.5-0.2,1.1-0.4,1.7-0.9
	c1-0.7,1.9-1.7,1.9-3.1c0-0.6-0.2-1.2-0.4-1.8c1.2-0.5,2.8-0.8,4.8-0.6c4.3,0.5,5.2,3.2,5,4.4s-1.1,1.8-1.4,2
	c-0.3,0.2-0.4,0.3-0.4,0.4c0,0.2,0.2,0.2,0.4,0.2c0.4-0.1,2.3-0.9,2.4-3C228.7,98.4,226.2,95.5,221.7,95.5z M188.1,106.8
	c-1.4,1.6-3.5,2.2-4.3,1.7c-0.9-0.5-0.6-2.9,1.2-4.5c1.1-1,2.5-2,3.4-2.5c0.2-0.1,0.5-0.3,0.9-0.5c0.1,0,0.1-0.1,0.1-0.1l0.2-0.1
	C190.3,103.1,189.7,105.2,188.1,106.8z M198.6,99.7c-0.5,1.2-1.6,4.4-2.2,4.2c-0.5-0.1-0.9-2.5-0.1-4.9c0.4-1.2,1.2-2.6,1.7-3.1
	c0.8-0.9,1.7-1.2,1.9-0.8C200.2,95.5,198.9,98.9,198.6,99.7z M207.3,103.8c-0.2,0.1-0.4,0.2-0.5,0.1c-0.1,0,0.1-0.2,0.1-0.2
	s1.1-1.2,1.5-1.7c0.2-0.3,0.5-0.7,0.8-1.1v0.1C209.3,102.5,207.9,103.5,207.3,103.8z M214,102.3c-0.2-0.1-0.1-0.5,0.4-1.6
	c0.2-0.4,0.7-1.2,1.5-1.9c0.1,0.3,0.2,0.6,0.1,0.8C216,101.4,214.7,102,214,102.3z"/>
</svg>
